<svg xmlns="http://www.w3.org/2000/svg" xmlns:xlink="http://www.w3.org/1999/xlink" width="2493.664" height="1871.513" viewBox="0 0 2493.664 1871.513">
  <defs>
    <linearGradient id="linear-gradient" x1="0.092" x2="0.976" y2="0.78" gradientUnits="objectBoundingBox">
      <stop offset="0" stop-color="#1800b5"/>
      <stop offset="0.846" stop-color="#6051c0"/>
      <stop offset="1" stop-color="#9c96c9"/>
    </linearGradient>
    <linearGradient id="linear-gradient-2" x1="0.092" x2="0.976" y2="0.78" gradientUnits="objectBoundingBox">
      <stop offset="0" stop-color="#7365ce"/>
      <stop offset="1" stop-color="#9c96c9"/>
    </linearGradient>
    <linearGradient id="linear-gradient-3" x1="0.092" x2="0.976" y2="0.78" gradientUnits="objectBoundingBox">
      <stop offset="0" stop-color="#4334aa"/>
      <stop offset="1" stop-color="#9c96c9"/>
    </linearGradient>
  </defs>
  <g id="Groupe_348" data-name="Groupe 348" transform="translate(568.792 32.759)">
    <path id="Exclusion_3" data-name="Exclusion 3" d="M-99.236,6179.861H-99.3c-31.412,0-64.932-.667-99.628-1.983-33.21-1.26-68.387-3.147-104.555-5.61-67.285-4.582-140.45-11.32-217.464-20.028-129.717-14.666-272.609-35.116-424.708-60.783-59.736-10.08-121.074-21-182.31-32.464-48.98-9.168-97.986-18.7-145.657-28.321-79.987-16.148-129.415-27.167-131.479-27.628h-.007l7.773-62.7c-56.393-11.75-89.348-19.236-89.665-19.308l43.049-559.782a144.382,144.382,0,0,1,20.895-1.248,259.452,259.452,0,0,1,39.821,3.241,319.783,319.783,0,0,1,55.7,14.079l-69.8,563.017c210.64,43.886,742.062,145.965,1126.389,145.965,29,0,56.959-.592,83.094-1.758,27.13-1.211,53.055-3.074,77.056-5.538,24.86-2.551,48.366-5.82,69.865-9.714a600.735,600.735,0,0,0,61.521-14.287,370.406,370.406,0,0,0,52.023-19.254c7.837-3.656,15.269-7.563,22.089-11.615a195.5,195.5,0,0,0,19.282-13,154.313,154.313,0,0,0,16.331-14.445,126.781,126.781,0,0,0,13.235-15.935,111.7,111.7,0,0,0,10-17.473,108.079,108.079,0,0,0,6.612-19.062c2.163-8.82,3.916-17.5,5.213-25.791,1.273-8.141,2.14-16.137,2.577-23.765a197.7,197.7,0,0,0,.081-21.814,163.171,163.171,0,0,0-2.277-19.937,139.949,139.949,0,0,0-4.494-18.135,126.033,126.033,0,0,0-6.573-16.406,120.241,120.241,0,0,0-8.512-14.752,121.642,121.642,0,0,0-10.311-13.172,513.123,513.123,0,0,1,56.35,16.671,351.482,351.482,0,0,1,50.893,22.94,261.8,261.8,0,0,1,22.59,14.107,216.794,216.794,0,0,1,20.253,16.017,183.77,183.77,0,0,1,17.592,18.041,162.756,162.756,0,0,1,14.607,20.179,153.136,153.136,0,0,1,13.937,29.456,161.7,161.7,0,0,1,7.7,33.469,194.351,194.351,0,0,1,.763,37.73,257.9,257.9,0,0,1-6.875,42.24,102.4,102.4,0,0,1-6.481,18.529,106.968,106.968,0,0,1-9.881,17,122.955,122.955,0,0,1-13.141,15.508,151.577,151.577,0,0,1-16.259,14.068,194.4,194.4,0,0,1-19.237,12.674c-6.811,3.95-14.238,7.762-22.074,11.328a376.262,376.262,0,0,1-52.1,18.8,616.017,616.017,0,0,1-61.758,13.973c-21.616,3.814-45.266,7.017-70.293,9.519-24.2,2.419-50.345,4.249-77.7,5.438C-41.657,6179.277-69.914,6179.86-99.236,6179.861Zm-427.121-361.969h-.057c-23,0-45.573-.813-67.087-2.412-23.222-1.725-45.815-4.412-67.153-7.986,5.6.1,11.366.15,17.146.15a1154.687,1154.687,0,0,0,123.617-6.977c34.2-3.7,69.21-8.869,104.057-15.35,31-5.766,56.14-11.53,71.769-15.35,16.82-4.111,26.657-6.95,26.751-6.977.337-.091,8.35-2.247,21.78-5.375,12.632-2.943,32.813-7.384,57.223-11.826,27.443-4.994,54.524-8.973,80.491-11.825a845.306,845.306,0,0,1,91.583-5.375,557.63,557.63,0,0,1,59.452,2.992,363.115,363.115,0,0,1,55.7,10.142,253.814,253.814,0,0,1,25.412,8.3,198.7,198.7,0,0,1,23.237,10.741,158.571,158.571,0,0,1,20.65,13.4,132.775,132.775,0,0,1,17.65,16.283c-17.791-4.23-36.913-7.916-56.837-10.955-18.166-2.771-37.4-5.067-57.181-6.825-33.528-2.979-69.259-4.489-106.2-4.489-34.937,0-64.567,1.376-83.272,2.53-20.107,1.241-32.43,2.518-32.548,2.531l-.007,0c-.409.118-10.205,2.933-26.744,6.975-15.625,3.819-40.76,9.583-71.766,15.349-34.847,6.481-69.856,11.646-104.053,15.349A1154.448,1154.448,0,0,1-526.357,5817.892Zm-134.3-10.4-.012,0c-19.706-.348-39.109-1.313-57.669-2.871-19.8-1.661-39.174-4.04-57.588-7.07-19.53-3.214-38.5-7.249-56.4-11.99a494.241,494.241,0,0,1-54.107-17.631,408.022,408.022,0,0,1-50.721-23.991c-8.17-4.6-16.16-9.517-23.748-14.606-7.765-5.208-15.332-10.749-22.491-16.466-7.317-5.845-14.414-12.042-21.1-18.417-6.823-6.511-13.405-13.394-19.563-20.457-6.284-7.207-12.3-14.806-17.894-22.587-5.7-7.936-11.114-16.282-16.088-24.808-11.186-19.174-22.914-37.631-34.857-54.858-11.4-16.443-23.294-32.2-35.356-46.835-11.471-13.917-23.395-27.186-35.439-39.437-11.41-11.6-23.22-22.595-35.1-32.665-40.708-34.5-84.027-59.893-128.752-75.48l.722-5.823a143.929,143.929,0,0,1,20.893-1.248,248.43,248.43,0,0,1,26.345,1.464,296.306,296.306,0,0,1,34.934,5.936,353.225,353.225,0,0,1,89.477,34.548,427.226,427.226,0,0,1,51.464,33.244c8.994,6.75,17.99,14.026,26.739,21.628,9.152,7.952,18.288,16.481,27.154,25.351,9.249,9.253,18.46,19.132,27.377,29.364,9.279,10.646,18.5,21.973,27.407,33.666,9.245,12.137,18.412,25.009,27.245,38.258,9.152,13.729,18.2,28.243,26.89,43.138,53.077,90.976,147.362,148.389,280.235,170.647Z" transform="translate(1204.441 -4885)" fill="url(#linear-gradient)"/>
    <path id="Exclusion_2" data-name="Exclusion 2" d="M-7.238,6654.071c-36.571,0-75.076-.73-114.447-2.171-37.654-1.379-77.1-3.444-117.23-6.139-38.268-2.57-78.175-5.78-118.612-9.54-38.417-3.573-78.316-7.736-118.59-12.375-139.329-16.046-289.413-38.42-446.082-66.5-61.549-11.032-124.274-22.982-186.433-35.519-49.735-10.031-99.214-20.456-147.062-30.985-81.827-18.006-130.635-30.109-131.118-30.229l9.51-107.32h0c-68.673-20.017-109.3-32.919-109.7-33.047l52.666-958.11.006,0c.389-.087,9.722-2.133,25.555-2.133a229.333,229.333,0,0,1,48.719,5.548,304.544,304.544,0,0,1,68.145,24.1l-85.393,963.646c257.7,75.115,907.854,249.829,1378.046,249.829,35.47,0,69.673-1.012,101.659-3.009,33.183-2.072,64.9-5.261,94.272-9.479,15.087-2.167,29.866-4.649,43.926-7.378,14.309-2.777,28.288-5.889,41.55-9.249,13.486-3.418,26.606-7.188,39-11.206,12.6-4.084,24.8-8.541,36.269-13.247,11.656-4.782,22.881-9.954,33.364-15.373a348.006,348.006,0,0,0,30.283-17.583,292.5,292.5,0,0,0,27.025-19.879,253.039,253.039,0,0,0,23.59-22.258,228.146,228.146,0,0,0,19.98-24.723,217.4,217.4,0,0,0,16.193-27.273,220.485,220.485,0,0,0,12.229-29.907,238.29,238.29,0,0,0,8.089-32.626c2.389-13.632,4.2-27.072,5.381-39.947,1.16-12.639,1.746-25.084,1.742-36.991a337.89,337.89,0,0,0-1.7-34.14,288.111,288.111,0,0,0-4.94-31.393,253.542,253.542,0,0,0-7.984-28.752,232.018,232.018,0,0,0-10.83-26.215,219.935,219.935,0,0,0-29.407-45.244,230.593,230.593,0,0,0-18.181-19.238,248.888,248.888,0,0,0-20.234-17.124c-6.946-5.276-14.378-10.36-22.091-15.113-7.516-4.631-15.507-9.075-23.749-13.208a382.735,382.735,0,0,0-51.681-21.12,507.451,507.451,0,0,0-55.937-14.763c37.47-5.5,73.124-8.29,105.973-8.29a498.517,498.517,0,0,1,66.312,4.2c11.016,1.486,21.793,3.4,32.032,5.677,10.648,2.372,21,5.21,30.776,8.437a271.687,271.687,0,0,1,29.141,11.479,234.3,234.3,0,0,1,27.125,14.8A210.119,210.119,0,0,1,604.65,6071.4a199.364,199.364,0,0,1,21.953,22.294,202.067,202.067,0,0,1,16.458,22.638,216.943,216.943,0,0,1,13.851,25.94,245.506,245.506,0,0,1,11,29.424,290.372,290.372,0,0,1,7.9,33.092,354.819,354.819,0,0,1,4.552,36.94c.938,13.06,1.261,26.845.96,40.973-.308,14.437-1.276,29.641-2.878,45.188-1.635,15.878-3.978,32.561-6.961,49.585a237.529,237.529,0,0,1-9.833,37.758,226.82,226.82,0,0,1-15.492,34.5,235.083,235.083,0,0,1-20.87,31.352A262.175,262.175,0,0,1,599.32,6509.4a309.029,309.029,0,0,1-30.78,25.4,377.159,377.159,0,0,1-35.313,22.595c-12.326,6.98-25.637,13.677-39.564,19.9-13.676,6.114-28.323,11.943-43.534,17.325-14.929,5.283-30.817,10.283-47.221,14.861-16.091,4.491-33.124,8.7-50.627,12.511-17.156,3.735-35.24,7.192-53.752,10.274-18.133,3.019-37.174,5.761-56.595,8.151-37.617,4.629-78.19,8.124-120.591,10.389C80.824,6652.974,37.563,6654.071-7.238,6654.071Zm-304.5-510.355h-.067a798.677,798.677,0,0,1-81.43-4.06c-13.828-1.424-27.583-3.25-40.884-5.428-13.778-2.255-27.452-4.951-40.642-8.012,12.222-1.445,24.848-3.3,37.526-5.505,11.914-2.078,24.2-4.526,36.5-7.278,22.32-4.992,44.874-10.967,68.951-18.268,43.835-13.292,83.227-28.194,114.879-40.167l.017-.006c25.139-9.511,45-17.022,59.762-21.083,1.227-.336,8.4-2.034,20.639-4.528,13.352-2.719,28.376-5.488,43.447-8.007,20.352-3.4,41.178-6.429,61.9-9C24.407,6005.491,77.967,6002,128.055,6002c28.067,0,55.231,1.118,80.736,3.321a692.618,692.618,0,0,1,79.772,11.361c-25.2,3.7-51.462,8.661-78.065,14.751-21.277,4.871-42.808,10.467-63.994,16.635-36.279,10.561-58.951,19.134-59.176,19.219-.117.047-11.91,4.823-32.729,11.942-12.159,4.158-24.941,8.276-37.99,12.241C.3,6096.425-16.462,6101.146-33.2,6105.5a1253.582,1253.582,0,0,1-127.3,26.272c-24.837,3.764-49.6,6.677-73.6,8.658C-260.5,6142.611-286.617,6143.716-311.735,6143.716Zm-231.4-13.331h-.013A488.01,488.01,0,0,1-601.155,6127a425.988,425.988,0,0,1-57.986-11.026c-9.7-2.57-19.373-5.526-28.737-8.786-9.61-3.346-19.177-7.11-28.434-11.186-9.488-4.178-18.92-8.8-28.031-13.748-9.336-5.066-18.6-10.608-27.53-16.473-9.146-6.006-18.207-12.52-26.93-19.362-8.924-7-17.749-14.541-26.231-22.414-8.667-8.045-17.223-16.668-25.432-25.628-8.382-9.151-16.637-18.91-24.535-29.007-8.06-10.3-15.979-21.254-23.539-32.547-7.709-11.518-15.26-23.715-22.443-36.252-7.321-12.778-14.47-26.275-21.248-40.118-6.9-14.093-13.615-28.947-19.955-44.149-13.685-32.816-28.033-64.407-42.644-93.895-13.946-28.145-28.5-55.115-43.255-80.161-14.035-23.823-28.622-46.534-43.356-67.5-13.954-19.855-28.4-38.667-42.948-55.911-49.8-59.044-102.8-102.51-157.517-129.19l.883-9.969.006,0c.39-.087,9.724-2.133,25.554-2.133a218.265,218.265,0,0,1,32.231,2.506,269.711,269.711,0,0,1,42.739,10.159c36.854,11.91,73.684,31.8,109.468,59.132,10.384,7.93,20.811,16.6,30.992,25.76,10.734,9.661,21.49,20.138,31.97,31.142,11,11.551,22.009,24.006,32.713,37.018,11.2,13.615,22.378,28.214,33.221,43.391,11.314,15.835,22.583,32.744,33.493,50.258,11.356,18.229,22.637,37.616,33.531,57.623,11.312,20.774,22.526,42.8,33.332,65.48,11.194,23.491,22.263,48.333,32.9,73.835,65.106,156.121,180.884,254.488,344.119,292.372A585.528,585.528,0,0,1-543.134,6130.385Z" transform="translate(2798.695 -4723.795) rotate(17)" fill="url(#linear-gradient-2)"/>
    <path id="Exclusion_1" data-name="Exclusion 1" d="M34.207,6339.428h-.156c-36.26,0-74.633-.651-114.053-1.935-37.695-1.227-77.364-3.066-117.9-5.466-75.395-4.464-156.538-11.029-241.178-19.512-142.533-14.286-297.474-34.206-460.519-59.208-64.051-9.822-129.522-20.461-194.592-31.622-52.028-8.924-103.947-18.2-154.315-27.585-84.472-15.732-136.137-26.462-138.295-26.911h-.006l9.51-78.709h0c-68.8-14.707-109.3-24.143-109.7-24.237l52.667-702.676h.005c.389-.063,9.711-1.564,25.559-1.564a309.571,309.571,0,0,1,48.717,4.068,383.234,383.234,0,0,1,68.143,17.673l-85.391,706.737h0C-1119.6,6143.569-469.448,6271.7.746,6271.7c35.468,0,69.671-.743,101.658-2.207,33.182-1.52,64.9-3.858,94.273-6.952,30.411-3.2,59.169-7.305,85.475-12.194a719.306,719.306,0,0,0,75.266-17.934c11.648-3.5,22.873-7.3,33.364-11.274,10.648-4.036,20.836-8.375,30.282-12.9a305.92,305.92,0,0,0,27.025-14.579,238.775,238.775,0,0,0,23.591-16.325,190.278,190.278,0,0,0,19.979-18.132,158.326,158.326,0,0,0,16.193-20,141.173,141.173,0,0,0,12.229-21.934,138,138,0,0,0,8.089-23.928,384.454,384.454,0,0,0,7.665-41.673,286.073,286.073,0,0,0,2.279-37.406,219.563,219.563,0,0,0-2.73-33.344,178.1,178.1,0,0,0-7.361-29.489,156.5,156.5,0,0,0-11.615-25.839,151.354,151.354,0,0,0-15.492-22.4,160.674,160.674,0,0,0-18.991-19.157,183.964,183.964,0,0,0-22.113-16.126,367,367,0,0,1,46.312,14.025,268.2,268.2,0,0,1,41.753,19.975,216.106,216.106,0,0,1,18.682,12.469,191.611,191.611,0,0,1,16.96,14.257,175.292,175.292,0,0,1,15.044,16.146,166.38,166.38,0,0,1,22.2,35.348,175.4,175.4,0,0,1,7.449,18.814,190.641,190.641,0,0,1,5.508,20.477,214.319,214.319,0,0,1,3.445,22.2c.795,7.731,1.219,15.8,1.26,23.992.042,8.337-.31,17.033-1.047,25.845-.75,8.967-1.921,18.307-3.478,27.76-1.583,9.612-3.612,19.617-6.03,29.739a139.506,139.506,0,0,1-8.894,25.763,145.854,145.854,0,0,1-13.688,23.579,168.477,168.477,0,0,1-18.262,21.467,208.717,208.717,0,0,1-22.614,19.426,268.666,268.666,0,0,1-26.744,17.459c-9.455,5.429-19.768,10.665-30.653,15.563-10.7,4.816-22.258,9.438-34.341,13.738-11.883,4.229-24.6,8.262-37.807,11.987-12.978,3.662-26.79,7.129-41.051,10.307-14.009,3.121-28.838,6.048-44.075,8.7-29.652,5.16-62.064,9.488-96.333,12.864-32.97,3.249-68.556,5.7-105.769,7.3C111.919,6338.65,73.755,6339.426,34.207,6339.428ZM-311.73,5934.777h-.07c-28.159,0-55.774-1.019-82.078-3.024-28.407-2.165-56.049-5.54-82.158-10.029,6.873.125,13.931.188,20.977.188,25.118,0,51.238-.811,77.636-2.409,23.99-1.452,48.753-3.588,73.6-6.35,41.843-4.65,84.675-11.133,127.307-19.268,37.937-7.239,68.688-14.474,87.805-19.268,20.718-5.2,32.612-8.723,32.729-8.758.413-.114,10.211-2.819,26.647-6.747,15.457-3.694,40.15-9.268,70.01-14.843,33.566-6.267,66.7-11.261,98.478-14.843a1008.384,1008.384,0,0,1,112.049-6.747c90.264,0,160.451,15.221,208.611,45.241-40.68-9.576-88.249-14.433-141.387-14.433-27.71,0-57.1,1.327-87.358,3.944-24.212,2.094-49.023,5.013-73.745,8.675-41.811,6.194-69.717,12.556-69.994,12.619l-.009,0c-.5.148-12.477,3.679-32.719,8.755-19.118,4.795-49.87,12.03-87.8,19.268-42.63,8.135-85.461,14.618-127.3,19.268-24.843,2.761-49.6,4.9-73.6,6.349C-260.494,5933.966-286.613,5934.777-311.73,5934.777Zm-164.306-13.053h-.014c-24.108-.436-47.846-1.648-70.555-3.6-24.226-2.085-47.929-5.071-70.453-8.875-23.892-4.035-47.1-9.1-68.995-15.051a593.906,593.906,0,0,1-66.195-22.131c-10.808-4.363-21.45-9.074-31.628-14-10.426-5.049-20.662-10.47-30.425-16.112-9.987-5.772-19.762-11.941-29.054-18.334-9.5-6.537-18.757-13.491-27.515-20.67-8.951-7.336-17.634-15.114-25.809-23.117-8.348-8.174-16.4-16.814-23.934-25.68-7.69-9.05-15.056-18.589-21.892-28.354-6.973-9.958-13.595-20.436-19.682-31.141-13.684-24.065-28.032-47.234-42.645-68.862-13.943-20.638-28.5-40.418-43.255-58.791-14.032-17.468-28.62-34.124-43.357-49.5-13.957-14.565-28.407-28.361-42.948-41-49.8-43.3-102.8-75.182-157.518-94.749l.884-7.311h.005c.389-.063,9.708-1.563,25.554-1.563a296.2,296.2,0,0,1,32.231,1.837,354.068,354.068,0,0,1,42.739,7.45c36.855,8.735,73.685,23.326,109.468,43.368,10.382,5.815,20.809,12.171,30.992,18.892,10.734,7.086,21.491,14.77,31.97,22.839,11,8.473,22.01,17.607,32.714,27.149,11.2,9.983,22.375,20.69,33.221,31.822,11.315,11.615,22.584,24.017,33.494,36.86,11.353,13.366,22.634,27.584,33.531,42.26,11.314,15.239,22.528,31.4,33.332,48.023,11.2,17.229,22.263,35.448,32.9,54.151C-753.95,5821.7-638.6,5893.768-476.036,5921.724Z" transform="translate(1286.441 -5012.5)" fill="url(#linear-gradient-3)"/>
  </g>
</svg>
