<svg xmlns="http://www.w3.org/2000/svg" width="21" height="24" viewBox="0 0 21 24">
  <g id="ic-chevron-down" transform="translate(0.041 24) rotate(-90)">
    <rect id="Rectangle_65" data-name="Rectangle 65" width="24" height="21" transform="translate(0 -0.041)" fill="none"/>
    <g id="Layer" transform="translate(6.248 7.734)">
      <g id="Vrstva_127" data-name="Vrstva 127">
        <path id="Tracé_125" data-name="Tracé 125" d="M5.193,5.22a1.343,1.343,0,0,0,1.62,0l4.4-3.659a.8.8,0,0,0,0-1.231,1.1,1.1,0,0,0-1.42,0L6.123,3.352a.278.278,0,0,1-.33,0L1.663.216A1.107,1.107,0,0,0,.248.3.8.8,0,0,0,.343,1.535Z" fill="#1d2634"/>
      </g>
    </g>
  </g>
</svg>
