<svg id="Calque_1" data-name="Calque 1" xmlns="http://www.w3.org/2000/svg" xmlns:xlink="http://www.w3.org/1999/xlink" width="1933.648" height="1033" viewBox="0 0 1933.648 1033">
  <defs>
    <linearGradient id="Dégradé_sans_nom" data-name="Dégradé sans nom" x1="311.443" y1="1527.033" x2="312.327" y2="1526.253" gradientTransform="matrix(1828.127, 0, 0, -819.867, -569748.298, 1252540.657)" gradientUnits="userSpaceOnUse">
      <stop offset="0" stop-color="#1800b5"/>
      <stop offset="0.846" stop-color="#6051c0"/>
      <stop offset="1" stop-color="#9c96c9"/>
    </linearGradient>
    <linearGradient id="Dégradé_sans_nom_2" data-name="Dégradé sans nom 2" x1="311.49" y1="1526.696" x2="312.374" y2="1525.916" gradientTransform="matrix(2073.685, 633.989, 378.349, -1237.523, -1223959.78, 1691949.004)" gradientUnits="userSpaceOnUse">
      <stop offset="0" stop-color="#7365ce"/>
      <stop offset="1" stop-color="#9c96c9"/>
    </linearGradient>
    <linearGradient id="Dégradé_sans_nom_3" data-name="Dégradé sans nom 3" x1="311.504" y1="1526.973" x2="312.388" y2="1526.193" gradientTransform="matrix(2125.425, 0, 0, -979.425, -662418.557, 1496038.738)" gradientUnits="userSpaceOnUse">
      <stop offset="0" stop-color="#4334aa"/>
      <stop offset="1" stop-color="#9c96c9"/>
    </linearGradient>
  </defs>
  <title>Plan de travail 1</title>
  <g id="Groupe_348" data-name="Groupe 348">
    <path id="Exclusion_3" data-name="Exclusion 3" d="M1113.981,1251.5h-.064c-31.412,0-64.932-.667-99.628-1.983-33.21-1.26-68.387-3.147-104.555-5.61-67.285-4.582-140.45-11.32-217.464-20.028-129.717-14.666-272.609-35.116-424.708-60.783-59.736-10.08-121.074-21-182.31-32.464-48.98-9.168-97.986-18.7-145.657-28.321-79.987-16.148-129.415-27.167-131.479-27.628h-.007l7.773-62.7c-56.393-11.75-89.348-19.236-89.665-19.308l43.049-559.782a144.364,144.364,0,0,1,20.9-1.248,259.411,259.411,0,0,1,39.821,3.241,319.8,319.8,0,0,1,55.7,14.079l-69.8,563.017c210.64,43.886,742.062,145.965,1126.389,145.965,29,0,56.959-.592,83.094-1.758,27.13-1.211,53.055-3.074,77.056-5.538,24.86-2.551,48.366-5.82,69.865-9.714a600.676,600.676,0,0,0,61.521-14.287,370.35,370.35,0,0,0,52.023-19.254c7.837-3.656,15.269-7.563,22.089-11.615a195.514,195.514,0,0,0,19.282-13,154.321,154.321,0,0,0,16.331-14.445,126.805,126.805,0,0,0,13.235-15.935,111.72,111.72,0,0,0,10-17.473,108.071,108.071,0,0,0,6.612-19.062c2.163-8.82,3.916-17.5,5.213-25.791,1.273-8.141,2.14-16.137,2.577-23.765a197.7,197.7,0,0,0,.081-21.814,163.178,163.178,0,0,0-2.277-19.937,139.949,139.949,0,0,0-4.494-18.135,126.033,126.033,0,0,0-6.573-16.406,120.244,120.244,0,0,0-8.512-14.752,121.646,121.646,0,0,0-10.311-13.172,513.134,513.134,0,0,1,56.35,16.671,351.471,351.471,0,0,1,50.893,22.94,261.782,261.782,0,0,1,22.59,14.107,216.81,216.81,0,0,1,20.253,16.017,183.752,183.752,0,0,1,17.592,18.041,162.735,162.735,0,0,1,14.607,20.179,153.127,153.127,0,0,1,13.937,29.456,161.705,161.705,0,0,1,7.7,33.469,194.352,194.352,0,0,1,.763,37.73,257.9,257.9,0,0,1-6.875,42.24,102.4,102.4,0,0,1-6.481,18.529,106.957,106.957,0,0,1-9.881,17,122.975,122.975,0,0,1-13.141,15.508,151.543,151.543,0,0,1-16.259,14.068,194.45,194.45,0,0,1-19.237,12.674c-6.811,3.95-14.238,7.762-22.074,11.328a376.248,376.248,0,0,1-52.1,18.8,615.938,615.938,0,0,1-61.758,13.973c-21.616,3.814-45.266,7.017-70.293,9.519-24.2,2.419-50.345,4.249-77.7,5.438C1171.56,1250.917,1143.3,1251.5,1113.981,1251.5ZM686.86,889.532H686.8c-23,0-45.573-.813-67.087-2.412-23.222-1.725-45.815-4.412-67.153-7.986,5.6.1,11.366.15,17.146.15a1154.728,1154.728,0,0,0,123.617-6.977c34.2-3.7,69.21-8.869,104.057-15.35,31-5.766,56.14-11.53,71.769-15.35,16.82-4.111,26.657-6.95,26.751-6.977.337-.091,8.35-2.247,21.78-5.375,12.632-2.943,32.813-7.384,57.223-11.826,27.443-4.994,54.524-8.973,80.491-11.825a845.224,845.224,0,0,1,91.583-5.375,557.586,557.586,0,0,1,59.452,2.992,363.1,363.1,0,0,1,55.7,10.142,253.87,253.87,0,0,1,25.412,8.3,198.688,198.688,0,0,1,23.237,10.741,158.558,158.558,0,0,1,20.65,13.4,132.764,132.764,0,0,1,17.65,16.283c-17.791-4.23-36.913-7.916-56.837-10.955-18.166-2.771-37.4-5.067-57.181-6.825-33.528-2.979-69.259-4.489-106.2-4.489-34.937,0-64.567,1.376-83.272,2.53-20.107,1.241-32.43,2.518-32.548,2.531h-.007c-.409.118-10.205,2.933-26.744,6.975-15.625,3.819-40.76,9.583-71.766,15.349-34.847,6.481-69.856,11.646-104.053,15.349a1154.4,1154.4,0,0,1-123.613,6.981Zm-134.3-10.4h-.012c-19.706-.348-39.109-1.313-57.669-2.871-19.8-1.661-39.174-4.04-57.588-7.07-19.53-3.214-38.5-7.249-56.4-11.99a494.29,494.29,0,0,1-54.107-17.631,408.032,408.032,0,0,1-50.721-23.991c-8.17-4.6-16.16-9.517-23.748-14.606-7.765-5.208-15.332-10.749-22.491-16.466-7.317-5.845-14.414-12.042-21.1-18.417-6.823-6.511-13.405-13.394-19.563-20.457-6.284-7.207-12.3-14.806-17.894-22.587-5.7-7.936-11.114-16.282-16.088-24.808-11.186-19.174-22.914-37.631-34.857-54.858-11.4-16.443-23.294-32.2-35.356-46.835-11.471-13.917-23.4-27.186-35.439-39.437-11.41-11.6-23.22-22.6-35.1-32.665-40.708-34.5-84.027-59.893-128.752-75.48l.722-5.823a143.92,143.92,0,0,1,20.893-1.248,248.5,248.5,0,0,1,26.345,1.464,296.254,296.254,0,0,1,34.934,5.936A353.221,353.221,0,0,1,58.046,483.84a427.216,427.216,0,0,1,51.464,33.244c8.994,6.75,17.99,14.026,26.739,21.628,9.152,7.952,18.288,16.481,27.154,25.351,9.249,9.253,18.46,19.132,27.377,29.364,9.279,10.646,18.5,21.973,27.407,33.666,9.245,12.137,18.412,25.009,27.245,38.258,9.152,13.729,18.2,28.243,26.89,43.138C325.4,799.465,419.684,856.878,552.557,879.136Z" fill="url(#Dégradé_sans_nom)"/>
    <path id="Exclusion_2" data-name="Exclusion 2" d="M855.087,1594.049c-34.973-10.692-71.582-22.648-108.811-35.537-35.606-12.328-72.724-25.835-110.313-40.146-35.845-13.646-73.069-28.383-110.64-43.8-35.694-14.649-72.632-30.3-109.79-46.507C286.984,1371.977,150,1306.7,8.386,1234.041c-55.634-28.545-112.125-58.312-167.9-88.475-44.629-24.134-88.9-48.57-131.577-72.628-72.987-41.143-116.124-66.987-116.551-67.243l40.472-99.85h0c-59.82-39.22-94.9-63.437-95.245-63.676L-131.928-58.677l.006,0c.4.031,9.921.8,25.062,5.432A229.35,229.35,0,0,1-61.892-33.694,304.553,304.553,0,0,1-3.771,9.276l-363.4,896.573c224.478,147.177,795.142,504.344,1244.789,641.814,33.92,10.37,66.925,19.4,98.1,26.845,32.339,7.721,63.6,13.944,92.924,18.5,15.061,2.339,29.92,4.286,44.164,5.787,14.5,1.528,28.774,2.639,42.439,3.3,13.9.674,27.545.9,40.572.686,13.243-.222,26.213-.917,38.557-2.064,12.545-1.165,24.792-2.829,36.4-4.947a348.072,348.072,0,0,0,34.1-7.961,292.573,292.573,0,0,0,31.656-11.109,253.055,253.055,0,0,0,29.067-14.388,228.131,228.131,0,0,0,26.335-17.8,217.4,217.4,0,0,0,23.459-21.347,220.485,220.485,0,0,0,20.439-25.025,238.289,238.289,0,0,0,17.274-28.835c6.27-12.338,11.932-24.661,16.825-36.628,4.8-11.748,9-23.477,12.481-34.866a337.9,337.9,0,0,0,8.356-33.145,288.124,288.124,0,0,0,4.454-31.466,253.536,253.536,0,0,0,.771-29.83,232,232,0,0,0-2.692-28.236,219.936,219.936,0,0,0-14.894-51.865,230.586,230.586,0,0,0-11.762-23.713,248.9,248.9,0,0,0-14.343-22.292c-5.1-7.076-10.721-14.111-16.707-20.911-5.834-6.626-12.176-13.212-18.85-19.574a382.757,382.757,0,0,0-43.248-35.307A507.452,507.452,0,0,0,1324.313,1071c37.441,5.7,72.353,13.452,103.766,23.056a498.55,498.55,0,0,1,62.186,23.4c10.1,4.642,19.847,9.623,28.973,14.794,9.489,5.382,18.559,11.122,26.964,17.066a271.714,271.714,0,0,1,24.512,19.5,234.283,234.283,0,0,1,21.613,22.084,210.15,210.15,0,0,1,18.268,24.835,199.352,199.352,0,0,1,14.476,27.738,202.073,202.073,0,0,1,9.12,26.461,216.919,216.919,0,0,1,5.662,28.856,245.5,245.5,0,0,1,1.917,31.354,290.383,290.383,0,0,1-2.12,33.956,354.832,354.832,0,0,1-6.447,36.657c-2.921,12.764-6.643,26.041-11.061,39.463-4.515,13.716-9.886,27.973-15.964,42.372-6.206,14.706-13.324,29.975-21.154,45.383a237.526,237.526,0,0,1-20.443,33.233,226.824,226.824,0,0,1-24.9,28.463,235.055,235.055,0,0,1-29.125,23.88,262.207,262.207,0,0,1-33.114,19.486,308.977,308.977,0,0,1-36.861,15.291,377.129,377.129,0,0,1-40.376,11.283c-13.828,3.071-28.515,5.584-43.653,7.463-14.866,1.848-30.577,3.14-46.7,3.84-15.821.688-32.477.824-49.5.405-16.7-.41-34.22-1.364-52.073-2.837-17.5-1.444-35.8-3.426-54.407-5.891-18.223-2.414-37.234-5.359-56.505-8.752-37.327-6.572-77.149-15.092-118.359-25.322C939.622,1618.747,897.931,1607.147,855.087,1594.049ZM713.106,1016.967l-.064-.02a798.738,798.738,0,0,1-76.685-27.69c-12.807-5.4-25.428-11.172-37.511-17.144-12.517-6.185-24.8-12.761-36.524-19.545,12.11,2.192,24.727,4.109,37.5,5.707,12,1.5,24.466,2.747,37.033,3.712,22.8,1.752,46.12,2.632,71.279,2.689,45.806.1,87.833-2.629,121.6-4.825h.018c26.821-1.746,48.01-3.121,63.315-2.689,1.272.037,8.628.511,21.061,1.7,13.564,1.3,28.741,3.048,43.89,5.046,20.457,2.7,41.258,5.891,61.827,9.491,55.132,9.658,107.373,21.979,155.272,36.623,26.841,8.206,52.491,17.217,76.237,26.781a692.6,692.6,0,0,1,72.965,34.188c-25.181-3.829-51.746-6.763-78.967-8.718-21.771-1.563-44-2.506-66.061-2.8-37.782-.507-61.969,1.062-62.209,1.078-.126.011-12.8,1.13-34.79,1.851-12.843.422-26.271.622-39.909.6-17.045-.03-34.455-.416-51.735-1.146a1253.582,1253.582,0,0,1-129.419-12.095c-24.852-3.662-49.385-8.117-72.915-13.239-25.884-5.633-51.183-12.212-75.2-19.556Zm-217.391-80.4-.012,0a487.976,487.976,0,0,1-54.48-20.2,425.951,425.951,0,0,1-52.229-27.5c-8.525-5.294-16.911-10.949-24.913-16.8-8.212-6.01-16.26-12.406-23.921-19.011-7.852-6.77-15.52-13.947-22.787-21.343-7.447-7.574-14.686-15.583-21.511-23.8-6.99-8.417-13.751-17.3-20.092-26.389-6.487-9.3-12.722-19.095-18.532-29.1-5.936-10.227-11.6-20.975-16.828-31.944-5.34-11.2-10.381-22.948-14.982-34.913-4.7-12.206-9.067-25-12.995-38.007-4-13.269-7.66-27.14-10.863-41.23-3.265-14.36-6.156-29.357-8.59-44.577-2.478-15.494-4.557-31.663-6.175-48.054-3.493-35.383-7.977-69.789-13.328-102.26-5.108-30.993-11.141-61.04-17.928-89.305-6.457-26.886-13.766-52.869-21.726-77.227-7.539-23.067-15.854-45.281-24.725-66.025C78.737,107.848,40.761,50.786-3.765,9.274L-.006,0,0,0C.4.031,9.923.8,25.061,5.432a218.3,218.3,0,0,1,30.09,11.82,269.716,269.716,0,0,1,37.9,22.211c31.761,22.165,61.167,51.953,87.4,88.553,7.612,10.62,15.048,21.959,22.106,33.7,7.44,12.377,14.663,25.541,21.468,39.128,7.142,14.262,14.029,29.392,20.461,44.965,6.73,16.295,13.151,33.524,19.083,51.208,6.19,18.451,12.023,37.916,17.336,57.854,5.53,20.753,10.65,42.591,15.219,64.909,4.744,23.174,9.028,47.516,12.731,72.364,3.837,25.738,7.159,52.73,9.875,80.228C335.343,740.7,417.3,868.621,562.328,952.575a585.561,585.561,0,0,1-66.609-16.01Z" fill="url(#Dégradé_sans_nom_2)"/>
    <path id="Exclusion_1" data-name="Exclusion 1" d="M1329.424,1283.569h-.156c-36.26,0-74.633-.651-114.053-1.935-37.7-1.227-77.364-3.066-117.9-5.466-75.395-4.464-156.538-11.029-241.178-19.512-142.533-14.286-297.474-34.206-460.519-59.208-64.051-9.822-129.522-20.461-194.592-31.622-52.028-8.924-103.947-18.2-154.315-27.585-84.472-15.732-136.137-26.462-138.3-26.911h-.006l9.51-78.709h0c-68.8-14.707-109.3-24.143-109.7-24.237l52.667-702.676h.005c.389-.063,9.711-1.564,25.559-1.564a309.58,309.58,0,0,1,48.717,4.068A383.206,383.206,0,0,1,3.311,325.885L-82.08,1032.621h0c257.7,55.088,907.849,183.219,1378.043,183.219,35.468,0,69.671-.743,101.658-2.207,33.182-1.52,64.9-3.858,94.273-6.952,30.411-3.2,59.169-7.305,85.475-12.194a719.3,719.3,0,0,0,75.266-17.934c11.648-3.5,22.873-7.3,33.364-11.274,10.648-4.036,20.836-8.375,30.282-12.9a305.919,305.919,0,0,0,27.025-14.579,238.753,238.753,0,0,0,23.591-16.325,190.244,190.244,0,0,0,19.979-18.132,158.316,158.316,0,0,0,16.193-20,141.169,141.169,0,0,0,12.229-21.934,138,138,0,0,0,8.089-23.928,384.441,384.441,0,0,0,7.665-41.673,286.071,286.071,0,0,0,2.279-37.406,219.56,219.56,0,0,0-2.73-33.344,178.1,178.1,0,0,0-7.361-29.489,156.5,156.5,0,0,0-11.615-25.839,151.352,151.352,0,0,0-15.492-22.4,160.69,160.69,0,0,0-18.991-19.157,183.962,183.962,0,0,0-22.113-16.126,367.006,367.006,0,0,1,46.312,14.025,268.209,268.209,0,0,1,41.753,19.975,216.04,216.04,0,0,1,18.682,12.469,191.685,191.685,0,0,1,16.96,14.257,175.246,175.246,0,0,1,15.044,16.146,166.382,166.382,0,0,1,22.2,35.348,175.372,175.372,0,0,1,7.449,18.814,190.653,190.653,0,0,1,5.508,20.477,214.332,214.332,0,0,1,3.445,22.2c.795,7.731,1.219,15.8,1.26,23.992.042,8.337-.31,17.033-1.047,25.845-.75,8.967-1.921,18.307-3.478,27.76-1.583,9.612-3.612,19.617-6.03,29.739a139.5,139.5,0,0,1-8.894,25.763,145.845,145.845,0,0,1-13.688,23.579,168.452,168.452,0,0,1-18.262,21.467,208.709,208.709,0,0,1-22.614,19.426,268.691,268.691,0,0,1-26.744,17.459c-9.455,5.429-19.768,10.665-30.653,15.563-10.7,4.816-22.258,9.438-34.341,13.738-11.883,4.229-24.6,8.262-37.807,11.987-12.978,3.662-26.79,7.129-41.051,10.307-14.009,3.121-28.838,6.048-44.075,8.7-29.652,5.16-62.064,9.488-96.333,12.864-32.97,3.249-68.556,5.7-105.769,7.3C1407.136,1282.79,1368.972,1283.566,1329.424,1283.569ZM983.487,878.917h-.07c-28.159,0-55.774-1.019-82.078-3.024-28.407-2.165-56.049-5.54-82.158-10.029,6.873.125,13.931.188,20.977.188,25.118,0,51.238-.811,77.636-2.409,23.99-1.452,48.753-3.588,73.6-6.35,41.843-4.65,84.675-11.133,127.307-19.268,37.937-7.239,68.688-14.474,87.8-19.268,20.718-5.2,32.612-8.723,32.729-8.758.413-.114,10.211-2.819,26.647-6.747,15.457-3.694,40.15-9.268,70.01-14.843,33.566-6.267,66.7-11.261,98.478-14.843a1008.455,1008.455,0,0,1,112.049-6.747c90.264,0,160.451,15.221,208.611,45.241-40.68-9.576-88.249-14.433-141.387-14.433-27.71,0-57.1,1.327-87.358,3.944-24.212,2.094-49.023,5.013-73.745,8.675-41.811,6.194-69.717,12.556-69.994,12.619h-.009c-.5.148-12.477,3.679-32.719,8.755-19.118,4.795-49.87,12.03-87.8,19.268-42.63,8.135-85.461,14.618-127.3,19.268-24.843,2.761-49.6,4.9-73.6,6.349C1034.723,878.106,1008.6,878.917,983.487,878.917ZM819.181,865.864h-.014c-24.108-.436-47.846-1.648-70.555-3.6-24.226-2.085-47.929-5.071-70.453-8.875-23.892-4.035-47.1-9.1-68.995-15.051a593.83,593.83,0,0,1-66.2-22.131c-10.808-4.363-21.45-9.074-31.628-14-10.426-5.049-20.662-10.47-30.425-16.112-9.987-5.772-19.762-11.941-29.054-18.334-9.5-6.537-18.757-13.491-27.515-20.67-8.951-7.336-17.634-15.114-25.809-23.117-8.348-8.174-16.4-16.814-23.934-25.68-7.69-9.05-15.056-18.589-21.892-28.354-6.973-9.958-13.595-20.436-19.682-31.141-13.684-24.065-28.032-47.234-42.645-68.862-13.943-20.638-28.5-40.418-43.255-58.791-14.032-17.468-28.62-34.124-43.357-49.5-13.957-14.565-28.407-28.361-42.948-41-49.8-43.3-102.8-75.182-157.518-94.749l.884-7.311H4.2c.389-.063,9.708-1.563,25.554-1.563a296.191,296.191,0,0,1,32.231,1.837,354.1,354.1,0,0,1,42.739,7.45c36.855,8.735,73.685,23.326,109.468,43.368,10.382,5.815,20.809,12.171,30.992,18.892,10.734,7.086,21.491,14.77,31.97,22.839,11,8.473,22.01,17.607,32.714,27.149,11.2,9.983,22.375,20.69,33.221,31.822C354.4,482,365.669,494.4,376.579,507.24c11.353,13.366,22.634,27.584,33.531,42.26,11.314,15.239,22.528,31.4,33.332,48.023,11.2,17.229,22.263,35.448,32.9,54.151,64.925,114.167,180.275,186.235,342.839,214.191Z" fill="url(#Dégradé_sans_nom_3)"/>
  </g>
</svg>
