<svg xmlns="http://www.w3.org/2000/svg" width="20" height="21.574" viewBox="0 0 20 21.574">
  <path id="Icon_open-magnifying-glass" data-name="Icon open-magnifying-glass" d="M8.671-.018C3.89-.018,0,4.178,0,9.335s3.89,9.354,8.671,9.354a8.076,8.076,0,0,0,4.113-1.1,2.584,2.584,0,0,0,.322.347l2.478,2.673a2.416,2.416,0,0,0,2.5.836,2.634,2.634,0,0,0,1.847-1.993,2.861,2.861,0,0,0-.775-2.691l-2.478-2.672a2.525,2.525,0,0,0-.4-.347,9.8,9.8,0,0,0,1.09-4.436c0-5.158-3.89-9.354-8.671-9.354Zm0,2.673a6.421,6.421,0,0,1,6.194,6.681,7,7,0,0,1-1.635,4.6l-.074.08a2.584,2.584,0,0,0-.322.347,5.946,5.946,0,0,1-4.187,1.684A6.421,6.421,0,0,1,2.453,9.362,6.421,6.421,0,0,1,8.647,2.681Z" transform="translate(0 0.045)" fill="#7f7f7f"/>
</svg>
