<svg xmlns="http://www.w3.org/2000/svg" width="19.999" height="20" viewBox="0 0 19.999 20">
  <path id="Tracé_129" data-name="Tracé 129" d="M18.609,5a6.385,6.385,0,0,0-6.254,8.1L5.948,19.5a3.223,3.223,0,0,0,4.558,4.558l6.407-6.407a6.4,6.4,0,0,0,7.534-8.825.79.79,0,0,0-1.28-.236l-3.453,3.453A1.238,1.238,0,1,1,17.963,10.3h0l3.453-3.453a.791.791,0,0,0-.237-1.279,6.49,6.49,0,0,0-1.853-.513A6.406,6.406,0,0,0,18.609,5ZM18.6,6.579a5.032,5.032,0,0,1,.541.037c.073.009.14.047.213.06l-2.5,2.5h0a2.818,2.818,0,0,0,3.986,3.985l2.5-2.5a4.818,4.818,0,0,1-1.325,4.255,4.879,4.879,0,0,1-5.1,1.143.79.79,0,0,0-.822.185l-6.7,6.7a1.644,1.644,0,0,1-2.325-2.325l6.7-6.7a.79.79,0,0,0,.186-.822A4.871,4.871,0,0,1,18.6,6.579Z" transform="translate(-5.01 -5.001)" fill="#7f7f7f"/>
</svg>
