<svg xmlns="http://www.w3.org/2000/svg" width="21" height="21" viewBox="0 0 21 21">
  <path id="Tracé_143" data-name="Tracé 143" d="M22.323,11.319l-.738-.184a9.133,9.133,0,0,0-.533-2l.546-.527a.893.893,0,0,0,.153-1.089l-.314-.543a.894.894,0,0,0-1.019-.413l-.739.211a9.238,9.238,0,0,0-1.455-1.455l.211-.739a.892.892,0,0,0-.412-1.019l-.544-.314A.891.891,0,0,0,16.39,3.4l-.528.546a9.129,9.129,0,0,0-2-.532l-.185-.74A.893.893,0,0,0,12.814,2h-.628a.891.891,0,0,0-.866.676l-.185.739a9.129,9.129,0,0,0-2,.533L8.611,3.4a.894.894,0,0,0-1.089-.153l-.544.314a.891.891,0,0,0-.412,1.019l.211.738A9.257,9.257,0,0,0,5.322,6.776l-.74-.211a.892.892,0,0,0-1.018.412l-.314.544A.892.892,0,0,0,3.4,8.61l.546.528a9.133,9.133,0,0,0-.533,2l-.737.184A.894.894,0,0,0,2,12.186v.628a.89.89,0,0,0,.676.866l.739.185a9.133,9.133,0,0,0,.533,2l-.546.527a.893.893,0,0,0-.153,1.089l.314.543a.893.893,0,0,0,1.019.413l.739-.211a9.238,9.238,0,0,0,1.455,1.455l-.211.739a.892.892,0,0,0,.412,1.019l.544.314A.89.89,0,0,0,8.61,21.6l.528-.546a9.129,9.129,0,0,0,2,.532l.185.74a.893.893,0,0,0,.866.676h.628a.892.892,0,0,0,.866-.677l.185-.739a9.16,9.16,0,0,0,2-.533l.527.545a.893.893,0,0,0,1.089.153l.544-.314a.891.891,0,0,0,.412-1.019l-.211-.738a9.258,9.258,0,0,0,1.455-1.455l.74.211a.892.892,0,0,0,1.018-.412l.314-.544A.892.892,0,0,0,21.6,16.39l-.546-.528a9.134,9.134,0,0,0,.533-2l.737-.184A.893.893,0,0,0,23,12.814v-.628A.891.891,0,0,0,22.323,11.319ZM6.969,14.639a5.869,5.869,0,0,1,0-4.278L9.808,12a2.651,2.651,0,0,0,0,1Zm4.618,3.718A5.922,5.922,0,0,1,7.88,16.221l2.841-1.64a2.733,2.733,0,0,0,.865.5Zm0-8.437a2.723,2.723,0,0,0-.865.5L7.88,8.779a5.924,5.924,0,0,1,3.707-2.136Zm1.826-3.277A5.922,5.922,0,0,1,17.12,8.779l-2.841,1.64a2.733,2.733,0,0,0-.865-.5Zm0,11.714V15.08a2.723,2.723,0,0,0,.865-.5l2.841,1.64A5.924,5.924,0,0,1,13.413,18.357Zm4.618-3.718L15.192,13a2.651,2.651,0,0,0,0-1l2.84-1.639a5.869,5.869,0,0,1,0,4.278Z" transform="translate(-2 -2)" fill="#636060"/>
</svg>
