<svg xmlns="http://www.w3.org/2000/svg" width="36.516" height="27.678" viewBox="0 0 36.516 27.678">
  <path id="Tracé_1343" data-name="Tracé 1343" d="M36.528,9.5H5.957a2.959,2.959,0,0,0-2.044,5.1l14.5,13.776A4.049,4.049,0,0,0,21.242,29.5a4.1,4.1,0,0,0,2.831-1.132L37.6,15.507V33.341a1.96,1.96,0,0,1-1.95,1.95H6.837a1.96,1.96,0,0,1-1.95-1.95V21.766a.944.944,0,0,0-1.887,0V33.341a3.853,3.853,0,0,0,3.837,3.837H35.679a3.853,3.853,0,0,0,3.837-3.837V12.2A3.052,3.052,0,0,0,36.528,9.5Zm.723,3.743-14.5,13.776a2.165,2.165,0,0,1-3.019,0L5.233,13.243a1.022,1.022,0,0,1-.346-.786,1.061,1.061,0,0,1,1.069-1.069H36.528A1.061,1.061,0,0,1,37.6,12.457,1.126,1.126,0,0,1,37.252,13.243Z" transform="translate(-3 -9.5)" fill="#fff"/>
</svg>
