<svg xmlns="http://www.w3.org/2000/svg" width="17.109" height="20" viewBox="0 0 17.109 20">
  <path id="Icon_payment-invoice-sign-alt-o" data-name="Icon payment-invoice-sign-alt-o" d="M27.764,20.607a2.823,2.823,0,0,1,.547.82,2.34,2.34,0,0,1,.2.976V35.295a.936.936,0,0,1-.312.742,1.013,1.013,0,0,1-.742.313h-15a1.01,1.01,0,0,1-.742-.312A.933.933,0,0,1,11.4,35.3V17.4a.934.934,0,0,1,.312-.742,1.012,1.012,0,0,1,.742-.312h10a2.325,2.325,0,0,1,.976.234,2.94,2.94,0,0,1,.859.508l3.477,3.515ZM27.1,34.9V23.5H22.452a1.01,1.01,0,0,1-.742-.312A.98.98,0,0,1,21.4,22.4v-4.61H12.8V34.9H27.1ZM15.655,25.295a.377.377,0,0,1,.117-.274.337.337,0,0,1,.234-.117H23.9a.338.338,0,0,1,.234.117.376.376,0,0,1,.117.274V26q0,.2-.117.234a.339.339,0,0,1-.235.117H16.007a.338.338,0,0,1-.234-.117q-.117-.038-.117-.234v-.7Zm8.242,2.5a.32.32,0,0,1,.234.078.376.376,0,0,1,.117.274v.7a.376.376,0,0,1-.117.274.6.6,0,0,1-.234.078h-7.89a.59.59,0,0,1-.234-.078.375.375,0,0,1-.117-.274v-.7a.377.377,0,0,1,.117-.274.318.318,0,0,1,.234-.078Zm0,2.852a.6.6,0,0,1,.234.078.376.376,0,0,1,.117.274v.7a.376.376,0,0,1-.117.274.6.6,0,0,1-.234.078h-7.89a.59.59,0,0,1-.234-.078.375.375,0,0,1-.117-.274V31a.377.377,0,0,1,.117-.274.6.6,0,0,1,.234-.078ZM22.8,17.873v4.18h4.219a.717.717,0,0,0-.274-.43l-3.476-3.516a1.28,1.28,0,0,0-.469-.234Z" transform="translate(-11.398 -16.35)" fill="#7f7f7f"/>
</svg>
