<svg xmlns="http://www.w3.org/2000/svg" width="30.766" height="30.766" viewBox="0 0 30.766 30.766">
  <path id="Tracé_143" data-name="Tracé 143" d="M31.773,15.653l-1.081-.27a13.38,13.38,0,0,0-.781-2.925l.8-.772a1.309,1.309,0,0,0,.224-1.6l-.46-.8a1.31,1.31,0,0,0-1.493-.6L27.9,9a13.534,13.534,0,0,0-2.132-2.132l.31-1.082a1.307,1.307,0,0,0-.6-1.493l-.8-.46a1.306,1.306,0,0,0-1.594.224l-.774.8a13.375,13.375,0,0,0-2.924-.78l-.271-1.085A1.308,1.308,0,0,0,17.842,2h-.92a1.306,1.306,0,0,0-1.269.991l-.271,1.083a13.374,13.374,0,0,0-2.924.781l-.773-.8a1.31,1.31,0,0,0-1.6-.225l-.8.46a1.306,1.306,0,0,0-.6,1.493L9,6.865A13.562,13.562,0,0,0,6.866,9l-1.083-.31a1.307,1.307,0,0,0-1.492.6l-.46.8a1.307,1.307,0,0,0,.224,1.594l.8.773a13.379,13.379,0,0,0-.781,2.925l-1.08.27A1.309,1.309,0,0,0,2,16.923v.92a1.3,1.3,0,0,0,.991,1.269l1.083.271a13.379,13.379,0,0,0,.781,2.925l-.8.772a1.309,1.309,0,0,0-.224,1.6l.46.8a1.309,1.309,0,0,0,1.493.6l1.083-.31A13.534,13.534,0,0,0,9,27.9l-.31,1.082a1.307,1.307,0,0,0,.6,1.493l.8.46a1.3,1.3,0,0,0,1.594-.224l.774-.8a13.375,13.375,0,0,0,2.924.78l.271,1.085a1.308,1.308,0,0,0,1.269.991h.92a1.306,1.306,0,0,0,1.269-.991l.271-1.082a13.42,13.42,0,0,0,2.925-.781l.772.8a1.309,1.309,0,0,0,1.6.225l.8-.46a1.306,1.306,0,0,0,.6-1.493l-.31-1.081A13.563,13.563,0,0,0,27.9,25.768l1.083.31a1.307,1.307,0,0,0,1.492-.6l.46-.8a1.307,1.307,0,0,0-.224-1.594l-.8-.773a13.382,13.382,0,0,0,.781-2.925l1.08-.27a1.309,1.309,0,0,0,.995-1.271v-.92A1.305,1.305,0,0,0,31.773,15.653ZM9.279,20.516a8.6,8.6,0,0,1,0-6.267l4.16,2.4a3.883,3.883,0,0,0,0,1.463Zm6.766,5.448a8.676,8.676,0,0,1-5.43-3.129l4.163-2.4a4,4,0,0,0,1.267.731Zm0-12.36a3.989,3.989,0,0,0-1.267.731l-4.163-2.4A8.678,8.678,0,0,1,16.045,8.8ZM18.72,8.8a8.676,8.676,0,0,1,5.43,3.129l-4.163,2.4A4,4,0,0,0,18.72,13.6Zm0,17.162v-4.8a3.989,3.989,0,0,0,1.267-.731l4.163,2.4A8.678,8.678,0,0,1,18.72,25.964Zm6.766-5.448-4.16-2.4a3.883,3.883,0,0,0,0-1.463l4.16-2.4a8.6,8.6,0,0,1,0,6.267Z" transform="translate(-2 -2)" fill="#fff"/>
</svg>
