<svg xmlns="http://www.w3.org/2000/svg" width="15.812" height="15.556" viewBox="0 0 15.812 15.556">
  <path id="Icon_open-magnifying-glass" data-name="Icon open-magnifying-glass" d="M7.053.238a6.9,6.9,0,0,0,0,13.793,7.527,7.527,0,0,0,3.448-.862c.078.094-.094-.078,0,0l1.724,1.724a3.337,3.337,0,0,0,2.586.862c.729-.18.682-1,.862-1.724s.561-1.225,0-1.724l-2.586-1.724c-.1-.1.114.075,0,0a7.465,7.465,0,0,0,.862-3.448A6.874,6.874,0,0,0,7.053.238Zm0,1.724a5.307,5.307,0,0,1,5.172,5.172A5.5,5.5,0,0,1,10.5,10.583h0c-.094.078.078-.094,0,0a5.7,5.7,0,0,1-3.448,1.724A5.307,5.307,0,0,1,1.88,7.135,5.307,5.307,0,0,1,7.053,1.962Z" transform="translate(-0.156 -0.238)" fill="#fff"/>
</svg>
