<svg xmlns="http://www.w3.org/2000/svg" width="14.896" height="13.034" viewBox="0 0 14.896 13.034">
  <path id="Icon_awesome-camera" data-name="Icon awesome-camera" d="M14.9,5.508v8.379a1.4,1.4,0,0,1-1.4,1.4H1.4a1.4,1.4,0,0,1-1.4-1.4V5.508a1.4,1.4,0,0,1,1.4-1.4h2.56l.358-.957a1.4,1.4,0,0,1,1.306-.9H9.272a1.4,1.4,0,0,1,1.306.9l.361.957H13.5A1.4,1.4,0,0,1,14.9,5.508ZM10.939,9.7a3.491,3.491,0,1,0-3.491,3.491A3.494,3.494,0,0,0,10.939,9.7Zm-.931,0a2.56,2.56,0,1,1-2.56-2.56A2.564,2.564,0,0,1,10.008,9.7Z" transform="translate(0 -2.25)"/>
</svg>
