<svg xmlns="http://www.w3.org/2000/svg" xmlns:xlink="http://www.w3.org/1999/xlink" width="304.576" height="388.446" viewBox="0 0 304.576 388.446">
  <defs>
    <linearGradient id="linear-gradient" x1="1.059" y1="1.131" x2="0.324" y2="0.336" gradientUnits="objectBoundingBox">
      <stop offset="0" stop-color="#dae3fe"/>
      <stop offset="1" stop-color="#e9effd"/>
    </linearGradient>
    <linearGradient id="linear-gradient-2" x1="0.682" y1="0.238" x2="-0.923" y2="2.556" gradientUnits="objectBoundingBox">
      <stop offset="0" stop-color="#ff928e"/>
      <stop offset="1" stop-color="#fe7062"/>
    </linearGradient>
    <linearGradient id="linear-gradient-3" y1="0.5" x2="1" y2="0.5" gradientUnits="objectBoundingBox">
      <stop offset="0" stop-color="#febbba"/>
      <stop offset="1" stop-color="#ff928e"/>
    </linearGradient>
    <linearGradient id="linear-gradient-26" x1="0" y1="0.5" x2="1" y2="0.5" xlink:href="#linear-gradient-3"/>
    <linearGradient id="linear-gradient-27" x1="0" y1="0.5" x2="1" y2="0.5" xlink:href="#linear-gradient-3"/>
    <linearGradient id="linear-gradient-28" x1="0.591" y1="0.053" x2="0.961" y2="-1.671" gradientUnits="objectBoundingBox">
      <stop offset="0" stop-color="#e1473d"/>
      <stop offset="1" stop-color="#e9605a"/>
    </linearGradient>
    <linearGradient id="linear-gradient-29" x1="0.845" y1="20.963" x2="0.636" y2="8.413" xlink:href="#linear-gradient-28"/>
    <linearGradient id="linear-gradient-30" x1="0.467" y1="0.748" x2="0.808" y2="-2.145" xlink:href="#linear-gradient-28"/>
    <linearGradient id="linear-gradient-31" x1="0.537" y1="25.042" x2="0.513" y2="8.979" xlink:href="#linear-gradient-28"/>
    <linearGradient id="linear-gradient-32" x1="4.878" y1="-1.136" x2="2.497" y2="-0.246" xlink:href="#linear-gradient-28"/>
    <linearGradient id="linear-gradient-37" x1="0.388" y1="0.608" x2="4.486" y2="-3.328" xlink:href="#linear-gradient-28"/>
    <linearGradient id="linear-gradient-38" x1="0.442" y1="-4.046" x2="0.605" y2="8.855" xlink:href="#linear-gradient-28"/>
    <linearGradient id="linear-gradient-39" x1="1.032" y1="-1.15" x2="0.938" y2="-0.79" xlink:href="#linear-gradient-2"/>
    <linearGradient id="linear-gradient-40" x1="0.96" y1="0.583" x2="1.967" y2="0.583" xlink:href="#linear-gradient-3"/>
    <linearGradient id="linear-gradient-41" x1="3.515" y1="0.628" x2="4.517" y2="0.628" gradientUnits="objectBoundingBox">
      <stop offset="0" stop-color="#09005d"/>
      <stop offset="1" stop-color="#1a0f91"/>
    </linearGradient>
    <linearGradient id="linear-gradient-42" x1="8.606" y1="-0.634" x2="8.09" y2="2.577" xlink:href="#linear-gradient-3"/>
    <linearGradient id="linear-gradient-43" x1="4.859" y1="0.607" x2="5.859" y2="0.607" xlink:href="#linear-gradient-41"/>
    <linearGradient id="linear-gradient-44" x1="17.006" y1="-0.101" x2="16.493" y2="2.674" xlink:href="#linear-gradient-3"/>
    <linearGradient id="linear-gradient-45" x1="3.585" y1="-0.294" x2="1.062" y2="1.255" xlink:href="#linear-gradient-41"/>
    <linearGradient id="linear-gradient-46" x1="1.215" y1="0.724" x2="-0.244" y2="0.293" gradientUnits="objectBoundingBox">
      <stop offset="0" stop-color="#4f52ff"/>
      <stop offset="1" stop-color="#4042e2"/>
    </linearGradient>
    <linearGradient id="linear-gradient-47" x1="4.855" y1="-0.128" x2="4.038" y2="3.075" xlink:href="#linear-gradient-3"/>
    <linearGradient id="linear-gradient-48" x1="-14.952" y1="-2.657" x2="-16.034" y2="-1.376" xlink:href="#linear-gradient-3"/>
    <linearGradient id="linear-gradient-49" x1="-11.089" y1="-1.348" x2="-10.174" y2="-1.348" xlink:href="#linear-gradient-41"/>
    <linearGradient id="linear-gradient-50" x1="-46.078" y1="-7.671" x2="-43.778" y2="-10.309" xlink:href="#linear-gradient-3"/>
    <linearGradient id="linear-gradient-51" x1="6.972" y1="-0.66" x2="6.036" y2="1.021" xlink:href="#linear-gradient-41"/>
    <linearGradient id="linear-gradient-52" x1="2.169" y1="1.305" x2="0.301" y2="0.359" xlink:href="#linear-gradient-46"/>
    <linearGradient id="linear-gradient-53" x1="4.995" y1="-1.472" x2="1.781" y2="3.445" xlink:href="#linear-gradient-3"/>
    <linearGradient id="linear-gradient-54" x1="6.132" y1="-0.998" x2="2.911" y2="5.17" xlink:href="#linear-gradient-3"/>
    <linearGradient id="linear-gradient-55" x1="3.735" y1="-5.512" x2="2.017" y2="-2.31" xlink:href="#linear-gradient-41"/>
    <linearGradient id="linear-gradient-56" x1="2.672" y1="-0.257" x2="1.881" y2="0.025" xlink:href="#linear-gradient-2"/>
    <linearGradient id="linear-gradient-57" x1="-141.059" y1="12.135" x2="-140.84" y2="11.224" xlink:href="#linear-gradient-3"/>
    <linearGradient id="linear-gradient-58" x1="-84.225" y1="9.345" x2="-83.006" y2="10.505" xlink:href="#linear-gradient-3"/>
    <linearGradient id="linear-gradient-59" x1="0.384" y1="0.139" x2="6.737" y2="6.096" xlink:href="#linear-gradient-41"/>
    <linearGradient id="linear-gradient-60" x1="-32.756" y1="-437.877" x2="-53.426" y2="-389.321" xlink:href="#linear-gradient-3"/>
    <linearGradient id="linear-gradient-61" x1="15.359" y1="1.329" x2="16.73" y2="0.186" xlink:href="#linear-gradient-3"/>
    <linearGradient id="linear-gradient-62" x1="37.303" y1="0.641" x2="38.307" y2="0.641" xlink:href="#linear-gradient-41"/>
    <linearGradient id="linear-gradient-63" x1="1.678" y1="0.335" x2="5.237" y2="-0.079" xlink:href="#linear-gradient-3"/>
    <linearGradient id="linear-gradient-64" x1="33.073" y1="0.66" x2="34.078" y2="0.66" xlink:href="#linear-gradient-41"/>
    <linearGradient id="linear-gradient-65" x1="1.707" y1="-0.601" x2="-0.023" y2="1.073" xlink:href="#linear-gradient-46"/>
    <linearGradient id="linear-gradient-66" x1="19.665" y1="1.47" x2="22.654" y2="-0.707" xlink:href="#linear-gradient-3"/>
    <linearGradient id="linear-gradient-67" x1="15.689" y1="6.654" x2="16.304" y2="7.75" xlink:href="#linear-gradient-3"/>
    <linearGradient id="linear-gradient-68" x1="37.998" y1="17.484" x2="39.588" y2="20.491" xlink:href="#linear-gradient-3"/>
    <linearGradient id="linear-gradient-70" x1="-123.236" y1="0.051" x2="-124.696" y2="1.09" xlink:href="#linear-gradient-41"/>
    <linearGradient id="linear-gradient-71" x1="-111.074" y1="-11.78" x2="-110.137" y2="-11.78" xlink:href="#linear-gradient-41"/>
    <linearGradient id="linear-gradient-72" x1="-26.533" y1="-24.479" x2="-28.812" y2="-22.657" xlink:href="#linear-gradient-41"/>
    <linearGradient id="linear-gradient-73" x1="0.711" y1="-12.206" x2="0.648" y2="-8.437" xlink:href="#linear-gradient-2"/>
    <linearGradient id="linear-gradient-74" x1="0.895" y1="-9.257" x2="0.783" y2="-6.489" xlink:href="#linear-gradient-2"/>
    <linearGradient id="linear-gradient-75" x1="-146.514" y1="1.796" x2="-146.408" y2="0.917" xlink:href="#linear-gradient-3"/>
    <linearGradient id="linear-gradient-76" x1="-136.898" y1="0.5" x2="-135.898" y2="0.5" xlink:href="#linear-gradient-3"/>
    <linearGradient id="linear-gradient-77" x1="-114.394" y1="0.5" x2="-113.393" y2="0.5" xlink:href="#linear-gradient-3"/>
    <linearGradient id="linear-gradient-78" x1="-54.344" y1="1.189" x2="-53.075" y2="0.1" xlink:href="#linear-gradient-3"/>
    <linearGradient id="linear-gradient-79" x1="2.067" y1="-1.189" x2="1.392" y2="-0.446" xlink:href="#linear-gradient-2"/>
    <linearGradient id="linear-gradient-80" x1="0.734" y1="0.091" x2="0.41" y2="1.015" xlink:href="#linear-gradient-2"/>
    <linearGradient id="linear-gradient-81" x1="2.525" y1="-21.564" x2="1.633" y2="-11.88" xlink:href="#linear-gradient-28"/>
    <linearGradient id="linear-gradient-82" x1="-75.92" y1="-8.574" x2="-75.852" y2="-9.423" xlink:href="#linear-gradient-3"/>
    <linearGradient id="linear-gradient-83" x1="-466.663" y1="-29.573" x2="-466.242" y2="-32.745" xlink:href="#linear-gradient-3"/>
    <linearGradient id="linear-gradient-84" x1="-311.118" y1="-34.529" x2="-310.844" y2="-38.105" xlink:href="#linear-gradient-3"/>
    <linearGradient id="linear-gradient-85" x1="-39.883" y1="-45.063" x2="-43.287" y2="-41.735" xlink:href="#linear-gradient-41"/>
    <linearGradient id="linear-gradient-86" x1="5.577" y1="5.092" x2="6.125" y2="6.222" xlink:href="#linear-gradient-3"/>
    <linearGradient id="linear-gradient-87" x1="16.703" y1="14.496" x2="18.293" y2="17.502" xlink:href="#linear-gradient-3"/>
    <linearGradient id="linear-gradient-89" x1="21.836" y1="-40.072" x2="23.096" y2="-40.072" xlink:href="#linear-gradient-46"/>
    <linearGradient id="linear-gradient-90" x1="-29.738" y1="-1.265" x2="-29.767" y2="1.941" xlink:href="#linear-gradient-3"/>
    <linearGradient id="linear-gradient-91" x1="1.289" y1="-0.231" x2="-0.194" y2="1.339" xlink:href="#linear-gradient-3"/>
    <linearGradient id="linear-gradient-92" x1="0.909" y1="0.007" x2="-3.44" y2="4.143" xlink:href="#linear-gradient-3"/>
    <linearGradient id="linear-gradient-93" x1="-58.7" y1="0.194" x2="-57.701" y2="0.194" xlink:href="#linear-gradient-46"/>
    <linearGradient id="linear-gradient-94" x1="-64.95" y1="0.371" x2="-65.02" y2="2.153" xlink:href="#linear-gradient-3"/>
    <linearGradient id="linear-gradient-95" x1="-26.402" y1="1.32" x2="-25.454" y2="1.32" xlink:href="#linear-gradient-41"/>
    <linearGradient id="linear-gradient-96" x1="-88.35" y1="2.662" x2="-87.491" y2="3.922" xlink:href="#linear-gradient-41"/>
    <linearGradient id="linear-gradient-97" x1="2.534" y1="-1.07" x2="1.463" y2="-0.264" xlink:href="#linear-gradient-2"/>
    <linearGradient id="linear-gradient-98" x1="-402.948" y1="-25.686" x2="-404.687" y2="-31.453" xlink:href="#linear-gradient-3"/>
    <linearGradient id="linear-gradient-99" x1="-94.525" y1="0.315" x2="-90.603" y2="0.84" xlink:href="#linear-gradient-3"/>
    <linearGradient id="linear-gradient-100" x1="-34.728" y1="-7.135" x2="-35.102" y2="-7.83" xlink:href="#linear-gradient-41"/>
    <linearGradient id="linear-gradient-101" x1="-44.885" y1="-6.798" x2="-45.037" y2="-8.041" xlink:href="#linear-gradient-3"/>
    <linearGradient id="linear-gradient-102" x1="-45.446" y1="-11.358" x2="-45.897" y2="-12.717" xlink:href="#linear-gradient-41"/>
    <linearGradient id="linear-gradient-103" x1="-213.001" y1="-29.165" x2="-213.692" y2="-34.082" xlink:href="#linear-gradient-3"/>
  </defs>
  <g id="Groupe_187" data-name="Groupe 187" transform="translate(-468.019 -122.378)">
    <g id="Illustration" transform="translate(381.233 122.382)">
      <g id="Groupe_186" data-name="Groupe 186" transform="translate(87.651 -0.004)">
        <path id="Tracé_275" data-name="Tracé 275" d="M836.406,720.936c-39.107,91.641-142.337,131-223.219,124.292-22.084-1.832,12.976-3.21-21.718-36.1-41.976-39.8-43.509-96.567-43.018-163.8-.558-17.509-.437-31.062-.393-48.877.03-12.009-.1-26.578,0-44.3.122-16.168-.451-17.517,4.319-31.553,4.491-14.865,32.082-63.811,120.679-62.913,64.866.657,110.4,37.393,115.931,41.97a178.857,178.857,0,0,1,36.321,41.315C857.973,592.178,860.844,663.669,836.406,720.936Z" transform="translate(-548.88 -457.669)" fill="url(#linear-gradient)"/>
        <g id="Groupe_160" data-name="Groupe 160" transform="translate(16.854 68.383)">
          <g id="Groupe_157" data-name="Groupe 157" transform="translate(57.138 12.611)">
            <path id="Tracé_276" data-name="Tracé 276" d="M1099.345,694.215s19.189-20.2,14.683-34.343-19.461-33.969,6.71-64.232c15.322-17.718,21.764-25.7,24.473-29.266a2.637,2.637,0,0,1,4.2,0c7.471,9.853,30.408,43.334,18.458,68.862C1153.7,665.495,1099.345,694.215,1099.345,694.215Z" transform="translate(-1099.345 -565.327)" fill="#7d97f4"/>
            <path id="Tracé_277" data-name="Tracé 277" d="M1200.216,699.191a150.283,150.283,0,0,1-.779,29.99c-.333,2.483-.639,4.971-1.086,7.438l-.312,1.854-.156.927-.183.922-.739,3.688-.189.921-.218.915-.435,1.83-.435,1.83-.218.915-.246.908c-.679,2.417-1.28,4.845-2.09,7.245-.182.6-.406,1.195-.615,1.79s-.419,1.19-.641,1.781l-.7,1.76-.349.88-.376.868-.751,1.736-.8,1.712c-.265.572-.537,1.141-.83,1.7l-.86,1.683a104.194,104.194,0,0,1-8,12.8,119.558,119.558,0,0,1-9.617,11.6q-2.593,2.732-5.353,5.3c-1.842,1.713-3.724,3.353-5.745,4.9a.674.674,0,0,1-.839-1.055l.015-.012c.935-.77,1.866-1.6,2.773-2.437s1.812-1.684,2.693-2.553q2.65-2.6,5.132-5.364a121.376,121.376,0,0,0,9.285-11.56,112.683,112.683,0,0,0,7.735-12.615,93.134,93.134,0,0,0,5.783-13.582c.781-2.327,1.411-4.733,2.1-7.11l.251-.894.222-.9.445-1.8.445-1.8.223-.9.194-.909c1.1-4.833,1.956-9.719,2.7-14.623.7-4.912,1.218-9.852,1.52-14.808a142.893,142.893,0,0,0,.277-14.882v-.018a.382.382,0,0,1,.763-.047Z" transform="translate(-1150.774 -683.58)" fill="#fff" opacity="0.5"/>
          </g>
          <g id="Groupe_158" data-name="Groupe 158" transform="translate(0)">
            <path id="Tracé_278" data-name="Tracé 278" d="M684.459,665.179c2.489,2.206-17.187-44-10.2-106.113,3.29-29.27,12.927-64.421.689-82.368-10.185-14.937-57.389-20.306-72.938-21.687a2.3,2.3,0,0,0-2.1,3.6c5.454,7.921,16.759,26.173,16.8,41.437.061,20.119,14.542,36.9,29.554,44.5s23,13.164,23.725,40.727S677.386,658.911,684.459,665.179Z" transform="translate(-599.49 -455)" fill="#91b3fa"/>
            <path id="Tracé_279" data-name="Tracé 279" d="M781.056,575.122a75.007,75.007,0,0,1,25.65,14.63,58.647,58.647,0,0,1,9.939,11.118,50.625,50.625,0,0,1,6.534,13.457l.541,1.8c.176.6.3,1.217.447,1.824.135.609.294,1.224.41,1.827l.351,1.812q.71,3.621,1.373,7.252,1.323,7.261,2.419,14.563c1.467,9.733,2.64,19.509,3.219,29.35a.4.4,0,0,1-.792.068v-.012q-.8-7.3-1.888-14.59-1.053-7.283-2.28-14.539l-1.248-7.251-1.331-7.237q-.664-3.619-1.389-7.226l-.355-1.8c-.118-.6-.269-1.177-.4-1.767s-.253-1.178-.42-1.756l-.512-1.732a50.276,50.276,0,0,0-6.2-13.007,55.645,55.645,0,0,0-4.406-5.753l-.592-.688-.619-.665c-.414-.442-.818-.894-1.242-1.327-.86-.854-1.71-1.72-2.616-2.528a74.987,74.987,0,0,0-11.679-8.721,77.809,77.809,0,0,0-13.1-6.487l-.019-.007a.319.319,0,0,1,.213-.6Z" transform="translate(-759.931 -561.377)" fill="#fff" opacity="0.5"/>
          </g>
          <g id="Groupe_159" data-name="Groupe 159" transform="translate(0 83.39)">
            <path id="Tracé_280" data-name="Tracé 280" d="M500.1,1264.4c.84,1.446-.086-19.179,5.23-33.555s12.779-39.91,8.835-60.387-14.312-28.538-33.544-24.043c-16.027,3.746-25.481,4.792-30.1,3.214-1.144-.391-2.273.7-2.242,2.144.161,7.669,1.958,26.167,15.135,33.1,16.808,8.839,41.95,8.219,43.457,22.648s-1.787,19.943-3.739,25.131S494.54,1254.831,500.1,1264.4Z" transform="translate(-448.274 -1145.206)" fill="#7d97f4"/>
            <path id="Tracé_281" data-name="Tracé 281" d="M773.854,1323.7a46.65,46.65,0,0,1,5.1-1.15c1.715-.3,3.446-.533,5.188-.665a43.376,43.376,0,0,1,10.509.352,29.834,29.834,0,0,1,5.161,1.327,22.171,22.171,0,0,1,4.808,2.432c.365.268.749.512,1.1.8s.711.575,1.036.878l1.9,1.85,1.768,1.983,1.614,2.118a30.255,30.255,0,0,1,4.477,9.62,37.657,37.657,0,0,1,1.164,10.478l-.022,1.314c0,.438-.061.873-.088,1.309-.077.871-.127,1.744-.226,2.611l-.362,2.59c-.1.867-.316,1.712-.476,2.567a91.777,91.777,0,0,1-2.644,10.063.325.325,0,0,1-.626-.172l0-.01c.809-3.347,1.643-6.687,2.131-10.082.3-1.689.45-3.393.648-5.089.074-.85.1-1.7.151-2.553.015-.425.063-.851.052-1.276l-.014-1.275a38.293,38.293,0,0,0-1.343-10.016,29.508,29.508,0,0,0-4.321-9.025L809,1332.68l-1.687-1.874-1.819-1.756c-.306-.284-.624-.531-.935-.8s-.66-.485-.987-.73a20.339,20.339,0,0,0-4.4-2.256,28.245,28.245,0,0,0-4.83-1.341,46.891,46.891,0,0,0-10.132-.688,65.672,65.672,0,0,0-10.193,1.114l-.011,0a.337.337,0,0,1-.158-.655Z" transform="translate(-753.708 -1302.818)" fill="#fff" opacity="0.5"/>
          </g>
        </g>
        <g id="Groupe_162" data-name="Groupe 162" transform="translate(207.412 81.399)">
          <circle id="Ellipse_6" data-name="Ellipse 6" cx="24.708" cy="24.708" r="24.708" transform="translate(0 34.943) rotate(-45)" fill="url(#linear-gradient-2)"/>
          <g id="Groupe_161" data-name="Groupe 161" transform="translate(3.276 3.726)">
            <path id="Tracé_282" data-name="Tracé 282" d="M2713.3,1143.346c-.246,0-.491,0-.735-.009a.28.28,0,0,1,.006-.561h.006c.493.011.99.011,1.482,0h.007a.28.28,0,0,1,.006.561Q2713.688,1143.346,2713.3,1143.346Z" transform="translate(-2682.073 -1080.899)" fill="#fff"/>
            <path id="Tracé_283" data-name="Tracé 283" d="M2687.979,1141.635h-.02c-.5-.035-1-.083-1.5-.143a.28.28,0,0,1,.066-.557c.488.058.985.105,1.475.14a.281.281,0,0,1-.02.56Z" transform="translate(-2658.973 -1079.266)" fill="#fff"/>
            <path id="Tracé_284" data-name="Tracé 284" d="M2738.721,1141.6a.281.281,0,0,1-.02-.56c.49-.035.987-.083,1.475-.142a.28.28,0,1,1,.067.557c-.5.06-1,.109-1.5.145Z" transform="translate(-2705.235 -1079.23)" fill="#fff"/>
            <path id="Tracé_285" data-name="Tracé 285" d="M2662.169,1137.421a.3.3,0,0,1-.047,0c-.495-.084-.993-.18-1.481-.287a.281.281,0,0,1,.12-.548c.479.105.968.2,1.455.282a.28.28,0,0,1-.046.557Z" transform="translate(-2636.132 -1075.406)" fill="#fff"/>
            <path id="Tracé_286" data-name="Tracé 286" d="M2764.684,1137.35a.281.281,0,0,1-.047-.557c.485-.083.973-.178,1.454-.284a.281.281,0,1,1,.121.548c-.489.108-.987.205-1.48.289A.275.275,0,0,1,2764.684,1137.35Z" transform="translate(-2728.229 -1075.343)" fill="#fff"/>
            <path id="Tracé_287" data-name="Tracé 287" d="M2636.891,1130.725a.277.277,0,0,1-.073-.01c-.484-.131-.971-.276-1.447-.43a.28.28,0,0,1,.173-.534c.467.151.945.293,1.42.422a.281.281,0,0,1-.073.551Z" transform="translate(-2613.774 -1069.351)" fill="#fff"/>
            <path id="Tracé_288" data-name="Tracé 288" d="M2790.223,1130.625a.281.281,0,0,1-.073-.551c.475-.13.953-.272,1.419-.424a.28.28,0,1,1,.174.533c-.475.155-.961.3-1.446.432A.28.28,0,0,1,2790.223,1130.625Z" transform="translate(-2750.848 -1069.261)" fill="#fff"/>
            <path id="Tracé_289" data-name="Tracé 289" d="M2612.333,1121.581a.273.273,0,0,1-.1-.018c-.47-.178-.942-.37-1.4-.57a.281.281,0,0,1,.224-.514c.451.2.914.385,1.375.56a.28.28,0,0,1-.1.543Z" transform="translate(-2592.064 -1061.13)" fill="#fff"/>
            <path id="Tracé_290" data-name="Tracé 290" d="M2815.093,1121.483a.281.281,0,0,1-.1-.543c.459-.175.92-.363,1.368-.558a.28.28,0,1,1,.225.514c-.457.2-.926.391-1.394.569A.28.28,0,0,1,2815.093,1121.483Z" transform="translate(-2772.875 -1061.044)" fill="#fff"/>
            <path id="Tracé_291" data-name="Tracé 291" d="M2588.791,1110.1a.276.276,0,0,1-.124-.029c-.45-.222-.9-.458-1.338-.7a.28.28,0,1,1,.272-.49c.43.24.872.472,1.314.69a.281.281,0,0,1-.125.532Z" transform="translate(-2571.268 -1050.842)" fill="#fff"/>
            <path id="Tracé_292" data-name="Tracé 292" d="M2839.012,1110.023a.281.281,0,0,1-.125-.532c.44-.218.881-.45,1.309-.689a.28.28,0,1,1,.273.49c-.436.243-.885.479-1.333.7A.276.276,0,0,1,2839.012,1110.023Z" transform="translate(-2794.06 -1050.777)" fill="#fff"/>
            <path id="Tracé_293" data-name="Tracé 293" d="M2566.483,1096.4a.281.281,0,0,1-.148-.042c-.425-.264-.85-.543-1.263-.828a.281.281,0,0,1,.319-.462c.406.28.823.554,1.24.813a.28.28,0,0,1-.148.519Z" transform="translate(-2551.575 -1038.597)" fill="#fff"/>
            <path id="Tracé_294" data-name="Tracé 294" d="M2861.825,1096.342a.281.281,0,0,1-.148-.519c.416-.259.833-.532,1.238-.812a.281.281,0,0,1,.319.462c-.412.285-.836.563-1.26.827A.28.28,0,0,1,2861.825,1096.342Z" transform="translate(-2814.266 -1038.55)" fill="#fff"/>
            <path id="Tracé_295" data-name="Tracé 295" d="M2545.611,1080.616a.278.278,0,0,1-.17-.057c-.4-.3-.794-.622-1.177-.945a.281.281,0,0,1,.362-.429c.376.318.765.63,1.156.929a.281.281,0,0,1-.171.5Z" transform="translate(-2533.165 -1024.518)" fill="#fff"/>
            <path id="Tracé_296" data-name="Tracé 296" d="M2883.316,1080.577a.281.281,0,0,1-.171-.5c.391-.3.779-.611,1.154-.928a.281.281,0,0,1,.362.429c-.383.323-.778.641-1.175.945A.281.281,0,0,1,2883.316,1080.577Z" transform="translate(-2833.3 -1024.483)" fill="#fff"/>
            <path id="Tracé_297" data-name="Tracé 297" d="M2526.357,1062.912a.281.281,0,0,1-.191-.075c-.366-.34-.729-.695-1.08-1.053a.28.28,0,1,1,.4-.392c.344.352.7.7,1.061,1.035a.281.281,0,0,1-.191.486Z" transform="translate(-2516.197 -1008.743)" fill="#fff"/>
            <path id="Tracé_298" data-name="Tracé 298" d="M2903.3,1062.874a.28.28,0,0,1-.191-.486c.361-.336.718-.685,1.06-1.035a.28.28,0,1,1,.4.392c-.349.357-.712.711-1.079,1.054A.28.28,0,0,1,2903.3,1062.874Z" transform="translate(-2850.996 -1008.709)" fill="#fff"/>
            <path id="Tracé_299" data-name="Tracé 299" d="M2508.895,1043.451a.28.28,0,0,1-.21-.094c-.333-.375-.66-.762-.974-1.152a.281.281,0,0,1,.437-.352c.308.383.63.763.956,1.131a.28.28,0,0,1-.209.467Z" transform="translate(-2500.823 -991.419)" fill="#fff"/>
            <path id="Tracé_300" data-name="Tracé 300" d="M2921.569,1043.4a.281.281,0,0,1-.21-.467c.328-.37.65-.751.957-1.132a.28.28,0,1,1,.437.351c-.313.389-.64.777-.974,1.153A.279.279,0,0,1,2921.569,1043.4Z" transform="translate(-2867.18 -991.373)" fill="#fff"/>
            <path id="Tracé_301" data-name="Tracé 301" d="M2493.394,1022.413a.281.281,0,0,1-.227-.115c-.3-.406-.584-.823-.858-1.239a.28.28,0,1,1,.469-.308c.269.409.553.819.843,1.217a.281.281,0,0,1-.227.446Z" transform="translate(-2487.197 -972.71)" fill="#fff"/>
            <path id="Tracé_302" data-name="Tracé 302" d="M2937.969,1022.329a.28.28,0,0,1-.226-.445c.291-.4.574-.81.844-1.22a.28.28,0,1,1,.469.308c-.274.417-.563.835-.859,1.242A.281.281,0,0,1,2937.969,1022.329Z" transform="translate(-2881.707 -972.633)" fill="#fff"/>
            <path id="Tracé_303" data-name="Tracé 303" d="M2479.994,999.993a.28.28,0,0,1-.242-.138c-.254-.431-.5-.873-.734-1.316a.281.281,0,0,1,.5-.262c.229.434.471.869.721,1.292a.281.281,0,0,1-.242.423Z" transform="translate(-2475.436 -952.786)" fill="#fff"/>
            <path id="Tracé_304" data-name="Tracé 304" d="M2952.339,999.847a.281.281,0,0,1-.241-.423c.25-.425.493-.861.722-1.3a.281.281,0,0,1,.5.261c-.233.443-.48.887-.736,1.32A.28.28,0,0,1,2952.339,999.847Z" transform="translate(-2894.433 -952.652)" fill="#fff"/>
            <path id="Tracé_305" data-name="Tracé 305" d="M2468.831,976.4a.28.28,0,0,1-.254-.162c-.212-.455-.415-.919-.6-1.38a.281.281,0,0,1,.52-.212c.184.452.383.908.592,1.355a.28.28,0,0,1-.254.4Z" transform="translate(-2465.665 -931.833)" fill="#fff"/>
            <path id="Tracé_306" data-name="Tracé 306" d="M2964.532,976.159a.277.277,0,0,1-.118-.026.281.281,0,0,1-.136-.373c.208-.448.408-.906.594-1.361a.28.28,0,1,1,.519.212c-.188.463-.392.93-.6,1.386A.281.281,0,0,1,2964.532,976.159Z" transform="translate(-2905.232 -931.615)" fill="#fff"/>
            <path id="Tracé_307" data-name="Tracé 307" d="M2459.991,951.792a.281.281,0,0,1-.265-.187c-.167-.473-.324-.955-.467-1.435a.281.281,0,0,1,.538-.161c.141.471.3.945.458,1.409a.28.28,0,0,1-.264.374Z" transform="translate(-2457.955 -909.99)" fill="#fff"/>
            <path id="Tracé_308" data-name="Tracé 308" d="M2974.42,951.51a.277.277,0,0,1-.093-.016.28.28,0,0,1-.171-.358c.163-.464.317-.938.457-1.409a.281.281,0,0,1,.538.16c-.143.48-.3.963-.466,1.435A.28.28,0,0,1,2974.42,951.51Z" transform="translate(-2913.99 -909.74)" fill="#fff"/>
            <path id="Tracé_309" data-name="Tracé 309" d="M2453.589,926.438a.28.28,0,0,1-.272-.214c-.121-.489-.23-.985-.326-1.473a.281.281,0,0,1,.551-.108c.094.48.2.966.32,1.447a.28.28,0,0,1-.273.348Z" transform="translate(-2452.409 -887.5)" fill="#fff"/>
            <path id="Tracé_310" data-name="Tracé 310" d="M2981.885,926.151a.281.281,0,0,1-.273-.347c.118-.479.225-.966.318-1.447a.28.28,0,1,1,.551.107c-.1.49-.2.986-.324,1.474A.28.28,0,0,1,2981.885,926.151Z" transform="translate(-2920.602 -887.245)" fill="#fff"/>
            <path id="Tracé_311" data-name="Tracé 311" d="M2449.671,900.588a.281.281,0,0,1-.277-.24c-.072-.5-.133-1-.181-1.5a.281.281,0,1,1,.559-.054c.047.489.107.984.178,1.471a.28.28,0,0,1-.237.318A.294.294,0,0,1,2449.671,900.588Z" transform="translate(-2449.065 -864.584)" fill="#fff"/>
            <path id="Tracé_312" data-name="Tracé 312" d="M2986.882,900.291a.269.269,0,0,1-.041,0,.28.28,0,0,1-.238-.318c.07-.487.13-.982.177-1.471a.28.28,0,0,1,.558.053c-.048.5-.108,1-.18,1.5A.28.28,0,0,1,2986.882,900.291Z" transform="translate(-2925.027 -864.32)" fill="#fff"/>
            <path id="Tracé_313" data-name="Tracé 313" d="M2448.255,874.473a.281.281,0,0,1-.28-.267c-.024-.5-.037-1-.038-1.508a.281.281,0,0,1,.28-.281h0a.28.28,0,0,1,.281.28c0,.495.013.993.037,1.482a.281.281,0,0,1-.267.294Z" transform="translate(-2447.937 -841.444)" fill="#fff"/>
            <path id="Tracé_314" data-name="Tracé 314" d="M2989.373,873.666h-.013a.28.28,0,0,1-.267-.294c.023-.489.035-.987.035-1.481v-.066a.281.281,0,0,1,.562,0v.066c0,.5-.012,1.011-.036,1.508A.281.281,0,0,1,2989.373,873.666Z" transform="translate(-2927.234 -840.671)" fill="#fff"/>
            <path id="Tracé_315" data-name="Tracé 315" d="M2448.517,848.346h-.013a.28.28,0,0,1-.267-.293c.023-.5.059-1.008.105-1.5a.281.281,0,0,1,.559.053c-.046.488-.082.986-.1,1.478A.28.28,0,0,1,2448.517,848.346Z" transform="translate(-2448.202 -818.307)" fill="#fff"/>
            <path id="Tracé_316" data-name="Tracé 316" d="M2988.491,847.472a.281.281,0,0,1-.28-.267c-.024-.491-.061-.988-.109-1.478a.281.281,0,1,1,.558-.055c.049.5.086,1,.111,1.5a.28.28,0,0,1-.266.294Z" transform="translate(-2926.356 -817.533)" fill="#fff"/>
            <path id="Tracé_317" data-name="Tracé 317" d="M2450.982,822.442a.28.28,0,0,1-.278-.32c.071-.494.155-.995.25-1.488a.28.28,0,1,1,.551.106c-.094.484-.177.976-.246,1.461A.281.281,0,0,1,2450.982,822.442Z" transform="translate(-2450.385 -795.379)" fill="#fff"/>
            <path id="Tracé_318" data-name="Tracé 318" d="M2984.835,821.58a.281.281,0,0,1-.278-.24c-.071-.487-.156-.979-.25-1.46a.28.28,0,1,1,.55-.108c.1.49.183.991.255,1.487a.28.28,0,0,1-.237.318A.26.26,0,0,1,2984.835,821.58Z" transform="translate(-2922.991 -794.616)" fill="#fff"/>
            <path id="Tracé_319" data-name="Tracé 319" d="M2455.948,797.008a.288.288,0,0,1-.067-.008.281.281,0,0,1-.206-.339c.119-.485.251-.975.393-1.456a.281.281,0,0,1,.538.159c-.14.473-.271.954-.386,1.43A.281.281,0,0,1,2455.948,797.008Z" transform="translate(-2454.784 -772.879)" fill="#fff"/>
            <path id="Tracé_320" data-name="Tracé 320" d="M2978.686,796.165a.281.281,0,0,1-.272-.213c-.119-.478-.25-.958-.391-1.429a.281.281,0,1,1,.537-.161c.143.479.278.969.4,1.455a.281.281,0,0,1-.2.34A.288.288,0,0,1,2978.686,796.165Z" transform="translate(-2917.418 -772.134)" fill="#fff"/>
            <path id="Tracé_321" data-name="Tracé 321" d="M2463.386,772.255a.278.278,0,0,1-.093-.016.281.281,0,0,1-.172-.357c.166-.473.346-.949.535-1.415a.281.281,0,0,1,.52.211c-.186.457-.363.924-.525,1.389A.28.28,0,0,1,2463.386,772.255Z" transform="translate(-2461.372 -750.993)" fill="#fff"/>
            <path id="Tracé_322" data-name="Tracé 322" d="M2970.093,771.467a.281.281,0,0,1-.265-.187c-.164-.463-.342-.929-.528-1.384a.28.28,0,0,1,.519-.213c.19.464.371.938.538,1.41a.28.28,0,0,1-.264.374Z" transform="translate(-2909.685 -750.299)" fill="url(#linear-gradient-3)"/>
            <path id="Tracé_323" data-name="Tracé 323" d="M2473.25,748.434a.28.28,0,0,1-.254-.4c.212-.456.437-.912.669-1.355a.28.28,0,1,1,.5.26c-.228.435-.449.883-.657,1.33A.281.281,0,0,1,2473.25,748.434Z" transform="translate(-2470.108 -729.948)" fill="url(#linear-gradient-3)"/>
            <path id="Tracé_324" data-name="Tracé 324" d="M2959.166,747.763a.28.28,0,0,1-.254-.162c-.208-.444-.429-.889-.659-1.324a.28.28,0,1,1,.5-.262c.234.443.46.9.671,1.348a.28.28,0,0,1-.254.4Z" transform="translate(-2899.891 -729.359)" fill="url(#linear-gradient-3)"/>
            <path id="Tracé_325" data-name="Tracé 325" d="M2485.417,725.792a.281.281,0,0,1-.242-.423c.254-.432.522-.863.8-1.283a.281.281,0,0,1,.469.307c-.27.412-.533.836-.783,1.26A.28.28,0,0,1,2485.417,725.792Z" transform="translate(-2480.884 -709.956)" fill="url(#linear-gradient-3)"/>
            <path id="Tracé_326" data-name="Tracé 326" d="M2945.992,725.213a.28.28,0,0,1-.241-.138c-.25-.422-.514-.845-.784-1.255a.281.281,0,0,1,.469-.309c.275.418.544.848.8,1.278a.281.281,0,0,1-.241.423Z" transform="translate(-2888.111 -709.448)" fill="url(#linear-gradient-3)"/>
            <path id="Tracé_327" data-name="Tracé 327" d="M2499.762,704.531a.281.281,0,0,1-.227-.445c.295-.406.6-.809.916-1.2a.281.281,0,0,1,.438.351c-.308.383-.611.78-.9,1.178A.28.28,0,0,1,2499.762,704.531Z" transform="translate(-2493.59 -691.199)" fill="url(#linear-gradient-3)"/>
            <path id="Tracé_328" data-name="Tracé 328" d="M2930.7,704.024a.28.28,0,0,1-.227-.115c-.289-.4-.592-.791-.9-1.175a.281.281,0,1,1,.437-.352c.315.391.624.793.918,1.2a.281.281,0,0,1-.227.446Z" transform="translate(-2874.462 -690.753)" fill="url(#linear-gradient-3)"/>
            <path id="Tracé_329" data-name="Tracé 329" d="M2516.142,684.847a.28.28,0,0,1-.21-.466c.332-.375.677-.747,1.027-1.106a.281.281,0,0,1,.4.391c-.343.352-.683.718-1.009,1.086A.279.279,0,0,1,2516.142,684.847Z" transform="translate(-2508.097 -673.848)" fill="url(#linear-gradient-3)"/>
            <path id="Tracé_330" data-name="Tracé 330" d="M2913.436,684.391a.281.281,0,0,1-.21-.094c-.327-.368-.667-.732-1.011-1.083a.28.28,0,1,1,.4-.392c.35.357.7.729,1.029,1.1a.281.281,0,0,1-.209.467Z" transform="translate(-2859.073 -673.446)" fill="url(#linear-gradient-3)"/>
            <path id="Tracé_331" data-name="Tracé 331" d="M2534.4,666.914a.28.28,0,0,1-.192-.486c.366-.341.745-.678,1.128-1a.28.28,0,1,1,.362.428c-.376.318-.749.649-1.107.984A.28.28,0,0,1,2534.4,666.914Z" transform="translate(-2524.266 -658.056)" fill="url(#linear-gradient-3)"/>
            <path id="Tracé_332" data-name="Tracé 332" d="M2894.357,666.5a.279.279,0,0,1-.191-.075c-.361-.335-.735-.665-1.111-.982a.281.281,0,1,1,.361-.429c.382.322.763.658,1.131,1a.28.28,0,0,1-.191.486Z" transform="translate(-2842.086 -657.689)" fill="url(#linear-gradient-3)"/>
            <path id="Tracé_333" data-name="Tracé 333" d="M2554.355,650.9a.281.281,0,0,1-.171-.5c.4-.3.807-.6,1.218-.888a.281.281,0,0,1,.32.461c-.4.28-.807.574-1.2.872A.28.28,0,0,1,2554.355,650.9Z" transform="translate(-2541.942 -643.968)" fill="url(#linear-gradient-3)"/>
            <path id="Tracé_334" data-name="Tracé 334" d="M2873.644,650.51a.279.279,0,0,1-.17-.057c-.392-.3-.8-.592-1.2-.871a.281.281,0,0,1,.319-.462c.412.284.823.582,1.222.887a.28.28,0,0,1-.17.5Z" transform="translate(-2823.661 -643.628)" fill="url(#linear-gradient-3)"/>
            <path id="Tracé_335" data-name="Tracé 335" d="M2575.833,636.948a.28.28,0,0,1-.148-.518c.426-.266.862-.524,1.3-.767a.281.281,0,0,1,.274.49c-.427.238-.856.492-1.274.753A.279.279,0,0,1,2575.833,636.948Z" transform="translate(-2560.964 -631.721)" fill="url(#linear-gradient-3)"/>
            <path id="Tracé_336" data-name="Tracé 336" d="M2851.472,636.588a.28.28,0,0,1-.148-.042c-.418-.259-.848-.512-1.279-.751a.281.281,0,0,1,.272-.491c.438.244.877.5,1.3.765a.281.281,0,0,1-.148.519Z" transform="translate(-2803.954 -631.404)" fill="url(#linear-gradient-3)"/>
            <path id="Tracé_337" data-name="Tracé 337" d="M2598.63,625.2a.281.281,0,0,1-.125-.532c.448-.223.907-.437,1.364-.637a.281.281,0,1,1,.225.514c-.448.2-.9.407-1.34.626A.278.278,0,0,1,2598.63,625.2Z" transform="translate(-2581.156 -621.428)" fill="url(#linear-gradient-3)"/>
            <path id="Tracé_338" data-name="Tracé 338" d="M2828.049,624.869a.28.28,0,0,1-.124-.029c-.441-.218-.894-.428-1.346-.624a.28.28,0,1,1,.223-.515c.461.2.922.414,1.372.635a.281.281,0,0,1-.125.532Z" transform="translate(-2783.147 -621.138)" fill="url(#linear-gradient-3)"/>
            <path id="Tracé_339" data-name="Tracé 339" d="M2622.537,615.761a.281.281,0,0,1-.1-.543c.468-.178.947-.348,1.423-.5a.281.281,0,0,1,.174.533c-.468.153-.938.319-1.4.494A.279.279,0,0,1,2622.537,615.761Z" transform="translate(-2602.331 -613.188)" fill="url(#linear-gradient-3)"/>
            <path id="Tracé_340" data-name="Tracé 340" d="M2803.583,615.479a.276.276,0,0,1-.1-.018c-.461-.174-.932-.339-1.4-.49a.28.28,0,1,1,.172-.534c.478.154.959.322,1.428.5a.281.281,0,0,1-.1.543Z" transform="translate(-2761.427 -612.941)" fill="url(#linear-gradient-3)"/>
            <path id="Tracé_341" data-name="Tracé 341" d="M2647.4,608.726a.281.281,0,0,1-.074-.551c.483-.132.976-.254,1.465-.362a.281.281,0,1,1,.121.548c-.48.106-.964.226-1.438.356A.286.286,0,0,1,2647.4,608.726Z" transform="translate(-2624.351 -607.08)" fill="url(#linear-gradient-3)"/>
            <path id="Tracé_342" data-name="Tracé 342" d="M2778.371,608.525a.278.278,0,0,1-.073-.01c-.475-.128-.959-.246-1.439-.351a.28.28,0,1,1,.119-.548c.49.107.982.227,1.466.357a.281.281,0,0,1-.073.551Z" transform="translate(-2739.064 -606.907)" fill="url(#linear-gradient-3)"/>
            <path id="Tracé_343" data-name="Tracé 343" d="M2672.932,604.169a.281.281,0,0,1-.047-.557c.492-.084.995-.158,1.492-.219a.281.281,0,0,1,.068.557c-.489.06-.982.132-1.466.215A.286.286,0,0,1,2672.932,604.169Z" transform="translate(-2646.965 -603.17)" fill="url(#linear-gradient-3)"/>
            <path id="Tracé_344" data-name="Tracé 344" d="M2752.606,604.057a.276.276,0,0,1-.047,0c-.485-.081-.978-.152-1.467-.21a.281.281,0,0,1,.066-.557c.5.059,1,.131,1.493.214a.28.28,0,0,1-.046.557Z" transform="translate(-2716.221 -603.076)" fill="url(#linear-gradient-3)"/>
            <path id="Tracé_345" data-name="Tracé 345" d="M2698.889,602.115a.28.28,0,0,1-.02-.56c.5-.037,1.005-.062,1.507-.074a.281.281,0,0,1,.014.561c-.493.013-.991.037-1.48.073Z" transform="translate(-2669.954 -601.478)" fill="url(#linear-gradient-26)"/>
            <path id="Tracé_346" data-name="Tracé 346" d="M2726.531,602.089h-.02c-.49-.034-.988-.057-1.48-.068a.28.28,0,0,1,.012-.561c.5.011,1.009.034,1.507.069a.281.281,0,0,1-.019.56Z" transform="translate(-2693.114 -601.459)" fill="url(#linear-gradient-27)"/>
          </g>
        </g>
        <g id="Groupe_172" data-name="Groupe 172" transform="translate(0 120.44)">
          <g id="Groupe_171" data-name="Groupe 171">
            <rect id="Rectangle_199" data-name="Rectangle 199" width="67.738" height="130.638" transform="translate(227.148 98.52)" fill="#91b3fa"/>
            <path id="Tracé_347" data-name="Tracé 347" d="M2521.532,1414.93h-76.57l-14.013-58.868h74.189l19.41,53.93A3.468,3.468,0,0,1,2521.532,1414.93Z" transform="translate(-2222.202 -1305.12)" fill="url(#linear-gradient-28)"/>
            <path id="Tracé_348" data-name="Tracé 348" d="M2414.717,1309.61l-83.545.35-2.314-7.256,80.732.454c2.831,0,5.127,1.751,5.127,3.912Z" transform="translate(-2131.781 -1257.862)" fill="url(#linear-gradient-29)"/>
            <g id="Groupe_164" data-name="Groupe 164" transform="translate(241.865 134.002)" opacity="0.89">
              <rect id="Rectangle_200" data-name="Rectangle 200" width="38.708" height="59.674" rx="1.123" fill="#fff" opacity="0.71"/>
              <g id="Groupe_163" data-name="Groupe 163" transform="translate(2.822 3.226)">
                <rect id="Rectangle_201" data-name="Rectangle 201" width="15.028" height="53.223" rx="0.624" fill="#7d97f4"/>
                <rect id="Rectangle_202" data-name="Rectangle 202" width="15.028" height="53.223" rx="0.624" transform="translate(18.034)" fill="#7d97f4"/>
              </g>
            </g>
            <path id="Rectangle_203" data-name="Rectangle 203" d="M0,0H57.562A10.176,10.176,0,0,1,67.738,10.176V130.638a0,0,0,0,1,0,0H0a0,0,0,0,1,0,0V0A0,0,0,0,1,0,0Z" transform="translate(75.112 229.158) rotate(180)" fill="#91b3fa"/>
            <path id="Tracé_349" data-name="Tracé 349" d="M455.38,1386.411h76.6l27.344-62.548-87.542,3.68-19.418,53.93A3.468,3.468,0,0,0,455.38,1386.411Z" transform="translate(-452.05 -1276.601)" fill="url(#linear-gradient-30)"/>
            <path id="Tracé_350" data-name="Tracé 350" d="M624.66,1304.926l88.7-1.464,6.944-6.046-90.119,1.059c-3.051,0-5.524,1.751-5.524,3.912Z" transform="translate(-604.929 -1253.177)" fill="url(#linear-gradient-31)"/>
            <g id="Groupe_166" data-name="Groupe 166" transform="translate(21.688 134.002)" opacity="0.89">
              <rect id="Rectangle_204" data-name="Rectangle 204" width="38.707" height="59.674" rx="1.123" transform="translate(38.707 59.674) rotate(180)" fill="#fff" opacity="0.71"/>
              <g id="Groupe_165" data-name="Groupe 165" transform="translate(2.822 3.226)">
                <rect id="Rectangle_205" data-name="Rectangle 205" width="15.029" height="53.223" rx="0.624" transform="translate(33.063 53.223) rotate(180)" fill="#7d97f4"/>
                <rect id="Rectangle_206" data-name="Rectangle 206" width="15.028" height="53.223" rx="0.624" transform="translate(15.028 53.223) rotate(180)" fill="#91b3fa"/>
              </g>
            </g>
            <path id="Tracé_351" data-name="Tracé 351" d="M1112.632,1057.487s-83.316,69.329-85.38,69.329v144.03a4.547,4.547,0,0,0,4.311,4.752h162.628a4.03,4.03,0,0,0,3.821-4.211V1126.816Z" transform="translate(-961.502 -1040.674)" fill="#bdd0fb"/>
            <g id="Groupe_169" data-name="Groupe 169" transform="translate(69.685 95.716)">
              <path id="Tracé_352" data-name="Tracé 352" d="M1616.83,2838.437h-58.357v-8.673a1.226,1.226,0,0,1,1.226-1.226h55.9a1.226,1.226,0,0,1,1.226,1.226Z" transform="translate(-1510.119 -2704.995)" fill="#7d97f4"/>
              <path id="Rectangle_207" data-name="Rectangle 207" d="M3.171,0H55.186a3.17,3.17,0,0,1,3.17,3.17V9.9a0,0,0,0,1,0,0H0a0,0,0,0,1,0,0V3.171A3.171,3.171,0,0,1,3.171,0Z" transform="translate(48.354 131.393)" fill="#91b3fa"/>
              <path id="Rectangle_208" data-name="Rectangle 208" d="M3.56,0H36.271a3.56,3.56,0,0,1,3.56,3.56V77.7a0,0,0,0,1,0,0H0a0,0,0,0,1,0,0V3.56A3.56,3.56,0,0,1,3.56,0Z" transform="translate(57.617 45.839)" fill="url(#linear-gradient-32)"/>
              <path id="Tracé_353" data-name="Tracé 353" d="M1676.527,2021.992h-34.206a2.812,2.812,0,0,1-2.812-2.812v-2.457a2.812,2.812,0,0,1,2.617-2.805l34.206-2.376a2.813,2.813,0,0,1,3.008,2.806v4.832A2.812,2.812,0,0,1,1676.527,2021.992Z" transform="translate(-1581.892 -1981.383)" fill="#bdd0fb" opacity="0.9"/>
              <g id="Groupe_167" data-name="Groupe 167" transform="translate(110.25 6.091)">
                <path id="Tracé_354" data-name="Tracé 354" d="M2118.785,1801.047h-.379c-9.837,0-18.449,6.965-18.449,16.8v17.716h18.828Z" transform="translate(-2099.957 -1801.047)" fill="#7d97f4" opacity="0.9"/>
                <path id="Tracé_355" data-name="Tracé 355" d="M2099.957,2148.774v52.12c0,1.755,2.06,4.476,3.815,4.476h15.013v-56.6Z" transform="translate(-2099.957 -2109.026)" fill="#7d97f4" opacity="0.9"/>
                <path id="Tracé_356" data-name="Tracé 356" d="M2302.228,1801.047h-.957v34.518H2320.1v-17.716C2320.1,1808.012,2312.065,1801.047,2302.228,1801.047Z" transform="translate(-2278.259 -1801.047)" fill="#7d97f4" opacity="0.9"/>
                <path id="Tracé_357" data-name="Tracé 357" d="M2301.271,2205.37h15.591c1.755,0,3.237-2.721,3.237-4.476v-52.12h-18.828Z" transform="translate(-2278.259 -2109.026)" fill="#7d97f4" opacity="0.9"/>
              </g>
              <g id="Groupe_168" data-name="Groupe 168" transform="translate(6.547 6.091)">
                <path id="Tracé_358" data-name="Tracé 358" d="M1211.564,1801.047h-.378c-9.838,0-18.45,6.965-18.45,16.8v17.716h18.828Z" transform="translate(-1192.736 -1801.047)" fill="#7d97f4" opacity="0.9"/>
                <path id="Tracé_359" data-name="Tracé 359" d="M1192.736,2148.774v52.12c0,1.755,2.06,4.476,3.815,4.476h15.013v-56.6Z" transform="translate(-1192.736 -2109.026)" fill="#7d97f4"/>
                <path id="Tracé_360" data-name="Tracé 360" d="M1395.009,1801.047h-.957v34.518h18.828v-17.716C1412.88,1808.012,1404.846,1801.047,1395.009,1801.047Z" transform="translate(-1371.04 -1801.047)" fill="#7d97f4" opacity="0.9"/>
                <path id="Tracé_361" data-name="Tracé 361" d="M1394.052,2205.37h15.591c1.755,0,3.237-2.721,3.237-4.476v-52.12h-18.828Z" transform="translate(-1371.04 -2109.026)" fill="#7d97f4" opacity="0.9"/>
              </g>
              <path id="Tracé_362" data-name="Tracé 362" d="M1690.6,2245.122h-6.012a3.64,3.64,0,0,1-3.635-3.635v-44.441a3.64,3.64,0,0,1,3.635-3.635h6.012a3.64,3.64,0,0,1,3.635,3.635v44.441A3.639,3.639,0,0,1,1690.6,2245.122Zm-6.012-51.275a3.2,3.2,0,0,0-3.2,3.2v44.441a3.2,3.2,0,0,0,3.2,3.2h6.012a3.2,3.2,0,0,0,3.2-3.2v-44.441a3.2,3.2,0,0,0-3.2-3.2Z" transform="translate(-1618.599 -2142.468)" fill="url(#linear-gradient-3)"/>
              <path id="Tracé_363" data-name="Tracé 363" d="M1837.357,2245.122h-6.012a3.639,3.639,0,0,1-3.635-3.635v-44.441a3.64,3.64,0,0,1,3.635-3.635h6.012a3.64,3.64,0,0,1,3.635,3.635v44.441A3.639,3.639,0,0,1,1837.357,2245.122Zm-6.012-51.275a3.2,3.2,0,0,0-3.2,3.2v44.441a3.2,3.2,0,0,0,3.2,3.2h6.012a3.2,3.2,0,0,0,3.2-3.2v-44.441a3.2,3.2,0,0,0-3.2-3.2Z" transform="translate(-1748.58 -2142.468)" fill="url(#linear-gradient-3)"/>
              <path id="Tracé_364" data-name="Tracé 364" d="M1690.6,2680.935h-6.012a3.639,3.639,0,0,1-3.635-3.635v-5.111a3.64,3.64,0,0,1,3.635-3.636h6.012a3.639,3.639,0,0,1,3.635,3.636v5.111A3.639,3.639,0,0,1,1690.6,2680.935Zm-6.012-11.945a3.2,3.2,0,0,0-3.2,3.2v5.111a3.2,3.2,0,0,0,3.2,3.2h6.012a3.2,3.2,0,0,0,3.2-3.2v-5.111a3.2,3.2,0,0,0-3.2-3.2Z" transform="translate(-1618.599 -2563.298)" fill="url(#linear-gradient-3)"/>
              <path id="Tracé_365" data-name="Tracé 365" d="M1837.357,2680.935h-6.012a3.639,3.639,0,0,1-3.635-3.635v-5.111a3.639,3.639,0,0,1,3.635-3.636h6.012a3.639,3.639,0,0,1,3.635,3.636v5.111A3.639,3.639,0,0,1,1837.357,2680.935Zm-6.012-11.945a3.2,3.2,0,0,0-3.2,3.2v5.111a3.2,3.2,0,0,0,3.2,3.2h6.012a3.2,3.2,0,0,0,3.2-3.2v-5.111a3.2,3.2,0,0,0-3.2-3.2Z" transform="translate(-1748.58 -2563.298)" fill="url(#linear-gradient-3)"/>
              <path id="Tracé_366" data-name="Tracé 366" d="M2092.54,1853.45h-45.323a4.719,4.719,0,0,1-4.713-4.713v-78.473a22.531,22.531,0,0,1,22.505-22.505h9.739a22.531,22.531,0,0,1,22.505,22.505v78.473A4.719,4.719,0,0,1,2092.54,1853.45ZM2065.009,1748.2a22.094,22.094,0,0,0-22.069,22.069v78.473a4.281,4.281,0,0,0,4.277,4.277h45.323a4.282,4.282,0,0,0,4.277-4.277v-78.473a22.094,22.094,0,0,0-22.069-22.069Z" transform="translate(-1938.822 -1747.759)" fill="#fff"/>
              <path id="Tracé_367" data-name="Tracé 367" d="M1185.5,1853.45h-45.323a4.719,4.719,0,0,1-4.713-4.713v-78.473a22.531,22.531,0,0,1,22.505-22.505h9.739a22.531,22.531,0,0,1,22.505,22.505v78.473A4.719,4.719,0,0,1,1185.5,1853.45ZM1157.968,1748.2a22.094,22.094,0,0,0-22.069,22.069v78.473a4.282,4.282,0,0,0,4.277,4.277H1185.5a4.282,4.282,0,0,0,4.277-4.277v-78.473a22.094,22.094,0,0,0-22.069-22.069Z" transform="translate(-1135.463 -1747.759)" fill="#fff"/>
            </g>
            <g id="Groupe_170" data-name="Groupe 170" transform="translate(46.922)">
              <rect id="Rectangle_209" data-name="Rectangle 209" width="15.568" height="25.349" transform="translate(145.341 18.327)" fill="url(#linear-gradient-37)"/>
              <path id="Rectangle_210" data-name="Rectangle 210" d="M5.114,0H17.38a7.784,7.784,0,0,1,7.784,7.784v0a0,0,0,0,1,0,0H0a0,0,0,0,1,0,0V5.114A5.114,5.114,0,0,1,5.114,0Z" transform="translate(140.876 14.65)" fill="url(#linear-gradient-38)"/>
              <path id="Tracé_368" data-name="Tracé 368" d="M943.83,1003.816l99.879-76.6,94.808,73.54a5.886,5.886,0,0,0,9.374-3.472l1.33-6.5-105.512-80.376L941.578,988.414a5.088,5.088,0,0,0-1.618,5.976Z" transform="translate(-939.578 -910.406)" fill="url(#linear-gradient-39)"/>
            </g>
          </g>
        </g>
        <g id="Groupe_175" data-name="Groupe 175" transform="translate(28.21 246.449)">
          <g id="Groupe_173" data-name="Groupe 173">
            <path id="Tracé_369" data-name="Tracé 369" d="M707.145,2013.387c-2.806.752-5.619,2.041-6.7,3.573-4.866,6.91,2.605,16.48,5.175,22.832,4.415,10.911,5.875,22.806,2.629,34.219-3.517,12.365-5.729,24.538-4.089,37.209.845,6.527,2.979,13.451,7.941,18.652,9.379,9.825,33.625,4.322,38.429-6.756,3.832-8.835,2.529-18.432-.04-27.242-4.322-14.821-11.481-28.881-15.916-43.67-3.391-11.31-1.563-33.863-17.4-38.776A20.077,20.077,0,0,0,707.145,2013.387Z" transform="translate(-698.837 -2012.77)" fill="#7d97f4"/>
            <path id="Tracé_370" data-name="Tracé 370" d="M803.891,2186.6a.737.737,0,0,1-.751-.939c10.963-38.295,5.321-72.667-1.341-94.759-7.226-23.96-17.18-39.05-17.28-39.2a.737.737,0,1,1,1.227-.818c.1.151,10.157,15.386,17.449,39.541,6.731,22.292,12.43,56.98,1.363,95.641A.737.737,0,0,1,803.891,2186.6Z" transform="translate(-774.615 -2046.235)" fill="#91b3fa"/>
          </g>
          <g id="Groupe_174" data-name="Groupe 174" transform="translate(35.615 34.155)">
            <path id="Tracé_371" data-name="Tracé 371" d="M1010.505,2374.768c-.756-8.893,3.109-18.791,5.32-28a44.9,44.9,0,0,0,1.417-14.739c-.461-4.983-2.427-10.47.033-15.242,4.957-9.615,14.894-4.437,20.265,3.4,6.233,9.095,7.162,23.347,9.03,34.4,1.126,6.662,3.029,13.544,3.411,20.282.632,11.163-2.378,18.685-8.017,23.528a16.065,16.065,0,0,1-19.2,1.3C1017.354,2396.2,1011.726,2389.115,1010.505,2374.768Z" transform="translate(-1010.408 -2311.571)" fill="#91b3fa"/>
            <path id="Tracé_372" data-name="Tracé 372" d="M1170.575,2475.639a.729.729,0,0,1-.356,0,.737.737,0,0,1-.548-.887c.124-.525,12.258-53-2.128-96.619a.737.737,0,0,1,1.4-.461c14.519,44.026,2.288,96.892,2.163,97.42A.737.737,0,0,1,1170.575,2475.639Z" transform="translate(-1149.548 -2369.67)" fill="#7d97f4" opacity="0.9"/>
          </g>
        </g>
        <g id="Groupe_185" data-name="Groupe 185" transform="translate(148.693 225.921)">
          <g id="Groupe_178" data-name="Groupe 178">
            <path id="Tracé_373" data-name="Tracé 373" d="M2568.069,2384.974a23.76,23.76,0,0,0,5.591,3.95,45.885,45.885,0,0,1-9.956,9.145l-1.2,2.824-4.081-4.734S2565.545,2392.47,2568.069,2384.974Z" transform="translate(-2483.794 -2321.9)" fill="url(#linear-gradient-40)"/>
            <path id="Tracé_374" data-name="Tracé 374" d="M2468.229,3116.5a.989.989,0,0,1,.022-.261c1.214-5.162,7.6-8.467,7.6-8.467l2.554.159c1.539,4.508,1.4,7.289,1.18,8.531-.006.035-.016.068-.025.1A60.5,60.5,0,0,1,2468.229,3116.5Z" transform="translate(-2403.913 -2962.076)" fill="url(#linear-gradient-41)"/>
            <path id="Tracé_375" data-name="Tracé 375" d="M2479.563,3184.19a1.106,1.106,0,0,1-.8.831c-2.983.678-7.747.247-9.748.019a.928.928,0,0,1-.785-.913A60.532,60.532,0,0,0,2479.563,3184.19Z" transform="translate(-2403.918 -3029.703)" fill="#7d97f4"/>
            <path id="Tracé_376" data-name="Tracé 376" d="M2532.63,3075.786l-1,5.217a.85.85,0,0,1-.715.711,7.229,7.229,0,0,1-1.674,0,1.069,1.069,0,0,1-.867-1.242l.677-4.629Z" transform="translate(-2457.177 -2933.746)" fill="url(#linear-gradient-42)"/>
            <path id="Tracé_377" data-name="Tracé 377" d="M2281.607,3181.185a15.243,15.243,0,0,0,5.015-.8c.006.28.009.565,0,.86a.557.557,0,0,1-.521.574l-15.467.149a.706.706,0,0,1-.584-1.019C2272.084,3181.084,2277.255,3181.376,2281.607,3181.185Z" transform="translate(-2228.333 -3026.389)" fill="#7d97f4"/>
            <path id="Tracé_378" data-name="Tracé 378" d="M2270.569,3124.733a.74.74,0,0,1,.06-.118c1.335-1.93,4.752-5.787,11.6-7.545l3.3-.157a15.819,15.819,0,0,1,1.613,7.255,15.225,15.225,0,0,1-5.015.8C2277.77,3125.16,2272.6,3124.868,2270.569,3124.733Z" transform="translate(-2228.848 -2970.172)" fill="url(#linear-gradient-43)"/>
            <path id="Tracé_379" data-name="Tracé 379" d="M2372.833,3067.446c-.033.246-.424,3.99-.576,5.441a.718.718,0,0,1-.594.658,7.552,7.552,0,0,1-2.266,0,.976.976,0,0,1-.755-.967l-.094-5.864Z" transform="translate(-2315.627 -2925.712)" fill="url(#linear-gradient-44)"/>
            <path id="Tracé_380" data-name="Tracé 380" d="M2367.17,2474.151a293.637,293.637,0,0,0-6.71,68.388,1.472,1.472,0,0,0,1.191,1.416,17.139,17.139,0,0,0,3.694.367,1.366,1.366,0,0,0,1.283-1.162c1.01-6.558,6.816-43.5,10.366-49.542,0,0,2.927,32.774,2.435,49.81a.807.807,0,0,0,.726.828,13.551,13.551,0,0,0,2.96-.056,1.08,1.08,0,0,0,.947-.932c.705-5.547,4.747-38.566,4.17-62.3-.032-1.338-3.655-7.1-3.655-7.1Z" transform="translate(-2308.416 -2400.635)" fill="url(#linear-gradient-45)"/>
            <path id="Tracé_381" data-name="Tracé 381" d="M2317.658,2072.449l3.732-6.4c9.778-7.3,24.734-3.924,30.508-3.292a7.7,7.7,0,0,1,4.9,2.532c5.03,5.635,16.117,21.1,3.618,37.074a23.749,23.749,0,0,1-5.591-3.951c1.347-4,1.38-9.084-1.677-15.271a14.649,14.649,0,0,1-.354,1.471,90.714,90.714,0,0,0-3.863,26.2.819.819,0,0,1-.5.772c-5.33,2.236-15.676,1.123-19.15.662a1.166,1.166,0,0,1-1-1.307c1.5-12.352-7.554-32.485-9.942-37.525A3.371,3.371,0,0,0,2317.658,2072.449Z" transform="translate(-2270.555 -2035.335)" fill="url(#linear-gradient-46)"/>
            <path id="Tracé_382" data-name="Tracé 382" d="M2464.28,1982.041l1.2,10.545s-5.913,1.885-10.283-1.094l2.883-9.648Z" transform="translate(-2392.375 -1964.851)" fill="url(#linear-gradient-47)"/>
            <g id="Groupe_176" data-name="Groupe 176" transform="translate(57.17)">
              <path id="Tracé_383" data-name="Tracé 383" d="M2427.319,1875.637c-.141.137-5.847,11.8-5.847,11.8l6.73,3.116,7.051-10.253S2429.676,1873.345,2427.319,1875.637Z" transform="translate(-2419.671 -1870.374)" fill="url(#linear-gradient-48)"/>
              <path id="Tracé_384" data-name="Tracé 384" d="M2418.354,1843.443a1.067,1.067,0,0,1-.065.937l-3.241,5.606a1.037,1.037,0,0,1-.179.23c-.39.375-1.73,1.471-2.8.026a9.4,9.4,0,0,0-2.677-2.8,1.065,1.065,0,0,0-1.429.5,39.794,39.794,0,0,0-2.192,5.444,1.06,1.06,0,0,0,.638,1.29,29.535,29.535,0,0,0,6.427,1.763,1.065,1.065,0,0,0,1-.444c1-1.414,3.811-5.367,4.777-6.361.9-.923,2.586-.607,3.348-.4a1.071,1.071,0,0,0,.849-.125,2.347,2.347,0,0,0,.826-3.586,1.066,1.066,0,0,1,.307-1.454,2.357,2.357,0,0,0,.849-3.358,3.323,3.323,0,0,0-3.626-1.7,1.106,1.106,0,0,1-1.171-.626.7.7,0,0,0-.557-.424,1.034,1.034,0,0,1-.856-1.2,2.729,2.729,0,0,0-1.574-3.1c-2.907-1.538-5.389,1.084-6,3.274s2.64,3.677,4.671,3.9C2417.169,1840.987,2418.011,1842.6,2418.354,1843.443Z" transform="translate(-2405.723 -1833.185)" fill="url(#linear-gradient-49)"/>
              <path id="Tracé_385" data-name="Tracé 385" d="M2505.033,1966.509s1.537-3.6,3.179-3.492,2.96,1.724.957,3.594C2506.677,1968.936,2505.033,1966.509,2505.033,1966.509Z" transform="translate(-2493.681 -1948.173)" fill="url(#linear-gradient-50)"/>
            </g>
            <path id="Tracé_386" data-name="Tracé 386" d="M2505.612,2591.434a.3.3,0,0,0,.287-.229c.619-2.555,5.512-5.429,5.562-5.458a.3.3,0,0,0-.3-.518c-.21.122-5.165,3.033-5.843,5.835a.3.3,0,0,0,.3.371Z" transform="translate(-2436.754 -2499.227)" fill="url(#linear-gradient-51)"/>
            <g id="Groupe_177" data-name="Groupe 177" transform="translate(11.087 26.988)">
              <path id="Tracé_387" data-name="Tracé 387" d="M2131.475,2083.059c11.216,1.5,18.4-5.679,23.76-10.049,7.084-5.77,12.711-3.109,12.711-3.109l-7.417,14.726c-11.253,10.958-23.007,8.754-30.449,5.382A14.241,14.241,0,0,1,2131.475,2083.059Z" transform="translate(-2115.487 -2069.288)" fill="url(#linear-gradient-52)"/>
              <path id="Tracé_388" data-name="Tracé 388" d="M2002.733,2133.574l3.743,1.937a32.468,32.468,0,0,0,12.091,4.485,14.246,14.246,0,0,0-1.394,6.95,34.261,34.261,0,0,1-7.728-4.767C2000.958,2137.3,2002.733,2133.574,2002.733,2133.574Z" transform="translate(-2002.578 -2126.225)" fill="url(#linear-gradient-53)"/>
            </g>
            <path id="Tracé_389" data-name="Tracé 389" d="M1905.98,2110.6a2.737,2.737,0,0,1,1.572-1.777l7.482-3.15s.1-.968-1.617-1.6a2.266,2.266,0,0,1-1.347-2.544s2.346,1.025,5.783,2.655a7.983,7.983,0,0,1,3.688,3.888l-1.9,2.581a34.457,34.457,0,0,1-14.056,1.334Z" transform="translate(-1905.586 -2070.86)" fill="url(#linear-gradient-54)"/>
          </g>
          <g id="Groupe_179" data-name="Groupe 179" transform="translate(79.776 2.056)">
            <path id="Tracé_390" data-name="Tracé 390" d="M2649.736,1885.98c1.145-1.891,3.143-3.133,4.347-4.986a9.025,9.025,0,0,0,.575-8.027c-.825-2.158-2.295-4.021-3.136-6.173a10.472,10.472,0,0,1-.638-7.049c.454-2.561,1.449-5.289,3.908-6.757a14.686,14.686,0,0,1,10.24-1.5,19.046,19.046,0,0,1,9.758,4.772,13.723,13.723,0,0,1,4.322,9.818c-.03,2.487-.83,5.051-.033,7.407a5.826,5.826,0,0,0,4.115,3.734c2.093.489,4.269-.227,6.418-.2a9.357,9.357,0,0,1,5.87,2.195,7.744,7.744,0,0,1,2.751,4.8,5.792,5.792,0,0,1-1.848,5.107c-.984.835-2.368,1.4-2.731,2.64-.406,1.386.786,2.778,2.116,3.341s2.826.611,4.18,1.115a7.746,7.746,0,0,1,4.626,7.762,10.924,10.924,0,0,1-4.949,7.953,18.935,18.935,0,0,1-9.139,2.891,75.532,75.532,0,0,1-9.684-.146c-3.691-.174-7.456-.222-10.957-1.406a29.894,29.894,0,0,1-9.451-5.9,10.311,10.311,0,0,1-3.326-4.057c-.44-1.207-.442-2.548-.948-3.729-1.086-2.534-4.1-3.611-5.839-5.749A7.01,7.01,0,0,1,2649.736,1885.98Z" transform="translate(-2643.608 -1851.175)" fill="url(#linear-gradient-55)"/>
            <path id="Tracé_391" data-name="Tracé 391" d="M2826.5,1908.862h.021a4.555,4.555,0,0,0,2.784-7.259c-1.407-1.826-3.884-2.3-6.3-2.627l-4.379-.594c-2.471-.335-5-.815-6.425-2.641-1.516-1.948-1.214-4.609-.921-7.184.034-.294.067-.587.1-.875a18.841,18.841,0,0,0-1.144-9.5,10.742,10.742,0,0,0-6.949-6.308.111.111,0,1,0-.054.216,10.519,10.519,0,0,1,6.8,6.181,18.626,18.626,0,0,1,1.127,9.388c-.03.288-.063.58-.1.874-.3,2.618-.605,5.326.966,7.346,1.473,1.893,4.054,2.384,6.571,2.726l4.379.594c2.371.321,4.8.782,6.154,2.542a4.331,4.331,0,0,1-2.648,6.9.111.111,0,0,0,.02.221Z" transform="translate(-2780.321 -1869.503)" fill="#bdd0fb"/>
            <path id="Tracé_392" data-name="Tracé 392" d="M2867.627,2014.215a.223.223,0,0,0,.152-.06,6.665,6.665,0,0,0,1.5-1.791,2.4,2.4,0,0,0-.033-2.39,3.168,3.168,0,0,0-1.449-1.018,18.121,18.121,0,0,0-4.178-1.21c-.934-.153-1.89-.232-2.814-.309a27.349,27.349,0,0,1-3.608-.463c-1.412-.312-3.945-1.166-5.047-3.383-.891-1.792-.56-3.791-.209-5.907a13.2,13.2,0,0,0,.175-5.176.223.223,0,0,0-.434.1,12.863,12.863,0,0,1-.181,5c-.347,2.093-.7,4.257.25,6.179,1.185,2.384,3.861,3.292,5.351,3.621a27.715,27.715,0,0,0,3.667.472c.916.076,1.862.155,2.779.3a17.714,17.714,0,0,1,4.076,1.18,2.789,2.789,0,0,1,1.256.86,1.961,1.961,0,0,1,0,1.939,6.238,6.238,0,0,1-1.408,1.665.223.223,0,0,0,.152.386Z" transform="translate(-2822.829 -1976.199)" fill="#bdd0fb"/>
            <path id="Tracé_393" data-name="Tracé 393" d="M2624,2113.1a14.3,14.3,0,0,1,14.056,3.342,3.594,3.594,0,0,1,1.093,3.564c-1.466,5.763-5.305,22.781-1.582,30.059,0,0-6.241,7.107-13.264,1.573,0,0-3.329-13.505-7.5-19.39-2.878-4.063,4.236-15.5,6.039-18.264A2.164,2.164,0,0,1,2624,2113.1Z" transform="translate(-2614.685 -2082.607)" fill="url(#linear-gradient-56)"/>
            <path id="Tracé_394" data-name="Tracé 394" d="M2702.017,2017.4s3.24,8.715,3.535,12.578a6.628,6.628,0,0,1-6.669-.964s-.479-8.749-.994-10.309Z" transform="translate(-2687.097 -1998.399)" fill="url(#linear-gradient-57)"/>
            <path id="Tracé_395" data-name="Tracé 395" d="M2658.846,1912.751s-7.922,11.473-3.024,14.689,10.538-4.937,10.538-4.937,1.78-6.239-.22-8.313S2658.846,1912.751,2658.846,1912.751Z" transform="translate(-2648.424 -1905.632)" fill="url(#linear-gradient-58)"/>
            <path id="Tracé_396" data-name="Tracé 396" d="M2694.3,1887.843s-3.709.942-4.2,2.635,5.332,3.162,6.959,3.212l1.419,6.777s3.769-6.457,2.176-10.126S2694.3,1887.843,2694.3,1887.843Z" transform="translate(-2680.167 -1883.494)" fill="url(#linear-gradient-59)"/>
            <path id="Tracé_397" data-name="Tracé 397" d="M2746.528,1975.192s3.1-3.7,4.389-1.343-2.772,4.216-4.208,3.069Z" transform="translate(-2730.177 -1959.13)" fill="url(#linear-gradient-60)"/>
            <path id="Tracé_398" data-name="Tracé 398" d="M2608.433,2705.2c.034.615-.968,5.514-1.514,8.127a4.287,4.287,0,0,0,.511,3.068l20.916,33.945a4.678,4.678,0,0,1,.556,1.325,29.414,29.414,0,0,1,.89,9.124l-1.018,2.205,4.539-1.108.794-12.251-1.3-.766a6.132,6.132,0,0,1-2.526-2.862c-1.913-4.443-6.669-15.755-7.937-21.285-1.441-6.284-8.526-11.293-8.526-11.293L2615,2710.5Z" transform="translate(-2606.446 -2607.575)" fill="url(#linear-gradient-61)"/>
            <path id="Tracé_399" data-name="Tracé 399" d="M2797.786,3094.737s-2.523-3.861-2.837-5.375-1.163-4.182-2.667-3.35a89.043,89.043,0,0,0-.3,10.265c.292,2.878-3.213,2.842-3.213,2.842a3.276,3.276,0,0,0-1.66.87.821.821,0,0,0,.572,1.371,19.741,19.741,0,0,0,4.876-.355,1.493,1.493,0,0,0,1.183-1.4l.368-8.5,3.167,3.869Z" transform="translate(-2765.922 -2944.721)" fill="url(#linear-gradient-62)"/>
            <path id="Tracé_400" data-name="Tracé 400" d="M2701.71,2744.509s1.212,30.646,1.379,35-.462,14.015-4.781,16.969l1.922,1.376a25.391,25.391,0,0,0,4.6-5.976,35.853,35.853,0,0,1,3.31-5.213l-.893-1.756a3.893,3.893,0,0,1-.356-2.491c.869-4.581,3.771-19.816,4.576-23.1.951-3.876.94-9.033-2.655-13.291S2701.71,2744.509,2701.71,2744.509Z" transform="translate(-2687.47 -2641.624)" fill="url(#linear-gradient-63)"/>
            <path id="Tracé_401" data-name="Tracé 401" d="M2690.276,3126.823a.267.267,0,0,0,.266-.234,39.589,39.589,0,0,1,1.146-6.2c.547-1.224,2.316-6.368-.11-6.763,0,0-5.873,8.884-7.009,10.088a2.263,2.263,0,0,1-2.6.456,4.345,4.345,0,0,0-1.95,1.448.8.8,0,0,0,.648,1.27l4.052-.027a2.85,2.85,0,0,0,2.643-1.839c.685-1.792,1.867-4.425,3.276-5.607l-.627,7.115a.27.27,0,0,0,.271.294Z" transform="translate(-2671.124 -2969.316)" fill="url(#linear-gradient-64)"/>
            <path id="Tracé_402" data-name="Tracé 402" d="M2612.093,2409.044s.96,2.9-.365,7.71l-8.211,30.522a.942.942,0,0,0,.607,1.136,58.049,58.049,0,0,0,22.88,2.4,1.327,1.327,0,0,0,1.192-1.051c.713-3.477,3.149-15.336,3.65-17.773,1.911-9.286,4.05-19.3-6.165-25.171C2621.05,2408.891,2616.72,2410.137,2612.093,2409.044Z" transform="translate(-2603.484 -2343.303)" fill="url(#linear-gradient-65)"/>
            <path id="Tracé_403" data-name="Tracé 403" d="M2754.812,2151.85s10.032,8.067,12.669,19.269-14.265,12.669-14.265,12.669-2.339-2.528-5.051-1.569-.283-4.474,2.908-4.511,1.754,2.51,6.235.392c4.365-2.063,6.984-8.267-4.386-17.424a5.08,5.08,0,0,1-1.514-1.994C2749.14,2153.231,2750.811,2149.607,2754.812,2151.85Z" transform="translate(-2730.59 -2116.883)" fill="url(#linear-gradient-66)"/>
          </g>
          <g id="Groupe_181" data-name="Groupe 181" transform="translate(10.835 75.406)">
            <path id="Tracé_404" data-name="Tracé 404" d="M2038.853,2601.943s5.687,15.324,14.337,13.443c0,0,.891,5.214-.564,5.829,0,0-12.975.376-14.264-17.443Z" transform="translate(-2034.02 -2589.473)" fill="url(#linear-gradient-67)"/>
            <g id="Groupe_180" data-name="Groupe 180" transform="translate(0 8.614)">
              <path id="Tracé_405" data-name="Tracé 405" d="M2005.453,2575.657c-.025.266.963.449,1.277-.683-.086-.492-.24-2.645-.617-2.979a39.817,39.817,0,0,0-5.587-3.785.732.732,0,0,0,.125,1.014l1.787,1.206a7.235,7.235,0,0,0-.489,1.868,2.092,2.092,0,0,0,.528,1.461c.355.406.834.931,1.266,1.329A2.066,2.066,0,0,0,2005.453,2575.657Z" transform="translate(-2000.376 -2568.21)" fill="url(#linear-gradient-68)"/>
              <path id="Tracé_406" data-name="Tracé 406" d="M2026.411,2596.928l-.659-1.032-1.573-.841c-.245.2-.349.467.051.885a15.638,15.638,0,0,1,1.279,2.56Z" transform="translate(-2021.266 -2591.986)" fill="url(#linear-gradient-3)"/>
            </g>
            <path id="Tracé_407" data-name="Tracé 407" d="M2118.812,2498.921s2.746-2.48-.785-5.17c-3.317-2.526-5.742.865-4.643,3.046a.265.265,0,0,1-.18.379c-.29.063-.54.352-.083,1.371a.266.266,0,0,1-.031.267c-.407.545-1.764,2.731,2.328,3.065a.269.269,0,0,0,.2-.069Z" transform="translate(-2099.725 -2492.854)" fill-rule="evenodd" fill="url(#linear-gradient-70)"/>
            <path id="Tracé_408" data-name="Tracé 408" d="M2289.834,2538.12s.263-3.165,1.958-4.2,4.983-1.909,6.36,1.532c.657,1.641.44,2.422.032,2.791a1.027,1.027,0,0,0-.168,1.295c.279.5.317,1.115-.524,1.674a1.064,1.064,0,0,0-.468.683c-.219,1.148-1.394,3.9-7.669.891Z" transform="translate(-2256.321 -2528.413)" fill-rule="evenodd" fill="url(#linear-gradient-71)"/>
            <path id="Tracé_409" data-name="Tracé 409" d="M2143.809,2520.406c1.235-.53,3.851-1.069,5.886,2.49a1.556,1.556,0,0,0,.6.592c1.213.668,4.722,3.1,1.526,7.483a1.522,1.522,0,0,0-.278.679c-.107.743-.46,2.389-1.523,2.8a1.53,1.53,0,0,0-.761.635c-.714,1.176-2.751,3.65-6.178,1.066a1.528,1.528,0,0,0-.589-.272l-4.732-1.043a1.537,1.537,0,0,0-.76.027,1.6,1.6,0,0,1-2.182-1.044,1.558,1.558,0,0,0-.475-.712,4.043,4.043,0,0,1-1.2-5.068,1.546,1.546,0,0,0,.146-.927c-.149-.96-.228-3.093,1.766-4.013a1.482,1.482,0,0,0,.7-.656c.665-1.28,2.831-4.558,6.648-2.154A1.523,1.523,0,0,0,2143.809,2520.406Z" transform="translate(-2117.552 -2516.39)" fill-rule="evenodd" fill="url(#linear-gradient-72)"/>
            <path id="Tracé_410" data-name="Tracé 410" d="M2115.146,3185.9l.689.8-.473,1.728a1.22,1.22,0,0,1-.958.879c-1.538.282-5.026.791-6.82.019,0,0-.558-3.74,5.624-2.625Z" transform="translate(-2095.318 -3106.679)" fill-rule="evenodd" fill="url(#linear-gradient-73)"/>
            <path id="Tracé_411" data-name="Tracé 411" d="M2235.4,3203.274l.367.9-.149,3.241a1,1,0,0,1-.884.914,11.805,11.805,0,0,1-2.585.138.973.973,0,0,1-.894-1.344l1.091-2.337a1.424,1.424,0,0,1,.826-.744Z" transform="translate(-2204.786 -3122.067)" fill-rule="evenodd" fill="url(#linear-gradient-74)"/>
            <path id="Tracé_412" data-name="Tracé 412" d="M2197.458,2649.054l.7,6.973s-3.79,1.286-6.286-.166l.675-7Z" transform="translate(-2169.985 -2631.027)" fill-rule="evenodd" fill="url(#linear-gradient-75)"/>
            <path id="Tracé_413" data-name="Tracé 413" d="M2241.05,2978.637s-1.8,20.059-2.987,26.2a1.993,1.993,0,0,1-2.219-.188l-1.615-26.768Z" transform="translate(-2207.498 -2922.435)" fill-rule="evenodd" fill="url(#linear-gradient-76)"/>
            <path id="Tracé_414" data-name="Tracé 414" d="M2161.873,2986.141l-4.929,22.463a2.229,2.229,0,0,1-3.084,0l.85-23.614Z" transform="translate(-2136.315 -2928.735)" fill-rule="evenodd" fill="url(#linear-gradient-77)"/>
            <path id="Tracé_415" data-name="Tracé 415" d="M2269.305,2716.15l1.233.137c2.388,2.56,6.767,20.153,8.347,23.893l6.428-1.05a.32.32,0,0,1,.36.437c-.286.7-1.356,2.709-5.529,2.709-1.949,0,1.094,1.513-.072,2.032,0,0-2.562-.922-2.566-2.545,0,0-7.344-16.728-8.854-18.488S2269.305,2716.15,2269.305,2716.15Z" transform="translate(-2237.513 -2690.625)" fill-rule="evenodd" fill="url(#linear-gradient-78)"/>
            <path id="Tracé_416" data-name="Tracé 416" d="M2171.009,2709.21a24.814,24.814,0,0,0-14.688.085s-.915,6.174-.444,9.113l14.052.509Z" transform="translate(-2137.983 -2683.548)" fill-rule="evenodd" fill="url(#linear-gradient-79)"/>
            <path id="Tracé_417" data-name="Tracé 417" d="M2118.621,2806.262s-4.491,14.417-5.157,24.023a.9.9,0,0,0,.832.956,20.028,20.028,0,0,1,4.822,1.043,14.982,14.982,0,0,0,9.352.031,76.4,76.4,0,0,1,9.653-1.349.893.893,0,0,0,.8-1.049c-.637-3.554-3.06-16.169-6.736-24.744Z" transform="translate(-2100.535 -2769.472)" fill-rule="evenodd" fill="url(#linear-gradient-80)"/>
            <path id="Tracé_418" data-name="Tracé 418" d="M2156.518,2794.9l.238,2.263s4.321.016,13.869-.3l.049-1.636S2160.1,2795.433,2156.518,2794.9Z" transform="translate(-2138.67 -2760.378)" fill-rule="evenodd" fill="url(#linear-gradient-81)"/>
            <path id="Tracé_419" data-name="Tracé 419" d="M2152.824,2550.279c-1.085,4.193-.769,9.011,4.164,10.092,3.413.748,7-2.729,8.084-6.922s-.773-7.385-4.155-8.261S2153.909,2546.086,2152.824,2550.279Z" transform="translate(-2134.945 -2539.012)" fill-rule="evenodd" fill="url(#linear-gradient-82)"/>
            <path id="Tracé_420" data-name="Tracé 420" d="M2145.54,2587.985s-.161-2.535-1.426-1.753.489,3.82,1.27,4S2145.54,2587.985,2145.54,2587.985Z" transform="translate(-2127.29 -2575.426)" fill-rule="evenodd" fill="url(#linear-gradient-83)"/>
            <path id="Tracé_421" data-name="Tracé 421" d="M2246.089,2618.422s.378-1.933,1.748-1.04-1.244,4.053-2.855,3.35Z" transform="translate(-2217.021 -2602.939)" fill-rule="evenodd" fill="url(#linear-gradient-84)"/>
            <path id="Tracé_422" data-name="Tracé 422" d="M2168.253,2547.052s-3.922,4.246-5.96-4.565c0,0-2.033,2.633-2.962.3,0,0-4.048,1.388-4.5-.316s5.473-6.321,10.234-3.007S2168.253,2547.052,2168.253,2547.052Z" transform="translate(-2137.159 -2533.105)" fill-rule="evenodd" fill="url(#linear-gradient-85)"/>
          </g>
          <g id="Groupe_184" data-name="Groupe 184" transform="translate(94.732 68.214)">
            <path id="Tracé_423" data-name="Tracé 423" d="M2764.065,2465.028s11.3,16.182,20.917,18.381c0,0-.765,4.623-2.44,5.33,0,0-9.207-2.2-19.041-21.605Z" transform="translate(-2760.165 -2461.017)" fill="url(#linear-gradient-86)"/>
            <g id="Groupe_182" data-name="Groupe 182">
              <path id="Tracé_424" data-name="Tracé 424" d="M2740.168,2438.512c-.028.306,1.109.517,1.47-.787-.1-.566-.276-3.044-.71-3.429a45.811,45.811,0,0,0-6.431-4.357.843.843,0,0,0,.143,1.167l2.057,1.388a8.324,8.324,0,0,0-.563,2.15,2.406,2.406,0,0,0,.608,1.682c.409.468.961,1.072,1.458,1.53A2.378,2.378,0,0,0,2740.168,2438.512Z" transform="translate(-2734.324 -2429.94)" fill="url(#linear-gradient-87)"/>
              <path id="Tracé_425" data-name="Tracé 425" d="M2764.292,2463l-.759-1.188-1.811-.968c-.283.231-.4.537.059,1.019a18.026,18.026,0,0,1,1.472,2.946Z" transform="translate(-2758.369 -2457.309)" fill="url(#linear-gradient-3)"/>
            </g>
            <path id="Tracé_426" data-name="Tracé 426" d="M3184.64,3021.032a11.8,11.8,0,0,1,2.048-1.522.435.435,0,0,1,.553.116c.771,1,3.345,4.454,3.919,6.833a.442.442,0,0,1-.232.493c-.664.346-2.414.72-4.909-2.751l-1.5-2.118A.794.794,0,0,1,3184.64,3021.032Z" transform="translate(-3132.93 -2952.07)" fill-rule="evenodd" fill="url(#linear-gradient-89)"/>
            <path id="Tracé_427" data-name="Tracé 427" d="M3053.658,2965.361s.838,11.32,5.45,15.093c4.037,3.3,10.324-2.712,11.827-4.261a.963.963,0,0,0,.262-.854,2.368,2.368,0,0,0-1.145-1.685,1.178,1.178,0,0,0-1.384.152c-1.252,1.157-4.531,3.965-6.206,3.295-2.1-.838-3.354-11.739-3.354-11.739Z" transform="translate(-3017.156 -2904.158)" fill-rule="evenodd" fill="url(#linear-gradient-90)"/>
            <g id="Groupe_183" data-name="Groupe 183" transform="translate(44.178 1.303)">
              <path id="Tracé_428" data-name="Tracé 428" d="M3124.028,2510.413s6.289-2.935,9.743-19.021l-1.719-.881s-6.675,13.136-10.12,16.129S3124.028,2510.413,3124.028,2510.413Z" transform="translate(-3120.803 -2484.89)" fill-rule="evenodd" fill="url(#linear-gradient-91)"/>
              <path id="Tracé_429" data-name="Tracé 429" d="M3218.688,2448.9l1.33-1.055a13.078,13.078,0,0,0,2.452-3.259c.637-1.5-1.233-2.847-1.939-3.165s-1.092.352-.952,1.857a6.683,6.683,0,0,0-1.375,4.593Z" transform="translate(-3207.051 -2441.342)" fill-rule="evenodd" fill="url(#linear-gradient-92)"/>
            </g>
            <path id="Tracé_430" data-name="Tracé 430" d="M2971.706,3220.048a13.982,13.982,0,0,1,.465,3.225.438.438,0,0,1-.378.424c-1.252.173-5.526.685-7.875,0a.434.434,0,0,1-.312-.429c.021-.737.54-2.467,4.829-2.908Z" transform="translate(-2937.396 -3129.732)" fill-rule="evenodd" fill="url(#linear-gradient-93)"/>
            <path id="Tracé_431" data-name="Tracé 431" d="M2969.538,2971.856c-.528.344,3.454,28.306,4.419,28.51a2.2,2.2,0,0,0,2.806-.144,169.628,169.628,0,0,1-1.052-27.8Z" transform="translate(-2942.609 -2909.91)" fill-rule="evenodd" fill="url(#linear-gradient-94)"/>
            <path id="Tracé_432" data-name="Tracé 432" d="M2967.507,2823.388s-12.986.594-16.079,1.679a140.616,140.616,0,0,0,1.65,17.046.649.649,0,0,0,.489.509,12.879,12.879,0,0,0,6.255-.461.649.649,0,0,0,.471-.669l-.343-4.206a.512.512,0,0,1,.476-.546l.348-.052a.513.513,0,0,1,.548.507l.656,4.265a.648.648,0,0,0,.44.608,11.33,11.33,0,0,0,6.866-.073.647.647,0,0,0,.459-.613A92.193,92.193,0,0,0,2967.507,2823.388Z" transform="translate(-2926.611 -2778.414)" fill-rule="evenodd" fill="url(#linear-gradient-95)"/>
            <path id="Tracé_433" data-name="Tracé 433" d="M3049.5,2828.836s1.642,4.563,5.6,4.88l-.875-5.2A29.857,29.857,0,0,0,3049.5,2828.836Z" transform="translate(-3013.476 -2782.951)" fill-rule="evenodd" fill="url(#linear-gradient-96)"/>
            <path id="Tracé_434" data-name="Tracé 434" d="M2908.222,2607.466a24.048,24.048,0,0,1-13,3.354c-5.944-.35-9.555-1.866-11.563-3.575a2.125,2.125,0,0,0-2.532-.2,18.049,18.049,0,0,0-3.237,2.7.974.974,0,0,0-.135,1.181,16.819,16.819,0,0,0,5.534,5.889,3.828,3.828,0,0,1,.991,2.673l-.361,13.738a.774.774,0,0,0,.629.783c2.605.494,12.492,2.216,18.639,1.131v-14.817a3.023,3.023,0,0,1,1.572-2.638,16.238,16.238,0,0,0,5.136-4.764Z" transform="translate(-2861.239 -2586.509)" fill-rule="evenodd" fill="url(#linear-gradient-97)"/>
            <path id="Tracé_435" data-name="Tracé 435" d="M2944.36,2552.874s.5-1.41-.774-1.661-.059,3.492-.059,3.492Z" transform="translate(-2919.151 -2537.34)" fill-rule="evenodd" fill="url(#linear-gradient-98)"/>
            <path id="Tracé_436" data-name="Tracé 436" d="M3005.821,2599.308l.5,5.525s-2.916,1.7-5.425.215l.446-4.826Z" transform="translate(-2970.427 -2579.948)" fill-rule="evenodd" fill="url(#linear-gradient-99)"/>
            <path id="Tracé_437" data-name="Tracé 437" d="M2933.442,2477.165a4.044,4.044,0,0,1-1.356-1.359,3.13,3.13,0,0,1-.534-2.675c.26-.578.88-1.019.882-1.652,0-.466-.343-.859-.458-1.311a1.83,1.83,0,0,1,.87-1.875,4.577,4.577,0,0,1,2.1-.594,2.392,2.392,0,0,0,.991-.234,3.811,3.811,0,0,0,.818-.862,2.876,2.876,0,0,1,4.145.03c.527.61.813,1.473,1.531,1.839a4.931,4.931,0,0,0,1.289.3,5.4,5.4,0,0,1,2.6,1.529,6.869,6.869,0,0,1,2.254,3.7,13.437,13.437,0,0,1,.151,2.464,6.882,6.882,0,0,1-.475,3.078c-.459.926-1.322,1.617-1.717,2.572a5.879,5.879,0,0,1-.385.929.868.868,0,0,1-.834.452c-.4-.075-.6-.5-.81-.846-1.053-1.7-4.565-2.477-6.321-3.321A38.488,38.488,0,0,1,2933.442,2477.165Z" transform="translate(-2908.879 -2461.644)" fill-rule="evenodd" fill="url(#linear-gradient-100)"/>
            <path id="Tracé_438" data-name="Tracé 438" d="M2949.894,2522.866s-6.083,9.167.2,11.974c5.932,2.65,8.432-3.437,8.432-3.437s2.608-2.7,1.732-4.783S2951.377,2521.727,2949.894,2522.866Z" transform="translate(-2922.91 -2512.012)" fill-rule="evenodd" fill="url(#linear-gradient-101)"/>
            <path id="Tracé_439" data-name="Tracé 439" d="M2967.427,2519.547a1.629,1.629,0,0,1-.967-.706,11.1,11.1,0,0,1-.823-2.077,4.092,4.092,0,0,0-2.68-2.225,13.481,13.481,0,0,0-3.242-.209c-1.478-.032-4.813-1.1-2.107-2.556,1.947-1.044,4.184-.064,6.114.472a10.242,10.242,0,0,1,5.2,3.117,3.088,3.088,0,0,1,.652,2.448A2.051,2.051,0,0,1,2967.427,2519.547Z" transform="translate(-2931.177 -2502.011)" fill-rule="evenodd" fill="url(#linear-gradient-102)"/>
            <path id="Tracé_440" data-name="Tracé 440" d="M3039.086,2582.074l1.058-2.908s2.044-.939,1.775.643A2.889,2.889,0,0,1,3039.086,2582.074Z" transform="translate(-3004.249 -2561.863)" fill-rule="evenodd" fill="url(#linear-gradient-103)"/>
          </g>
        </g>
      </g>
    </g>
  </g>
</svg>
