<svg xmlns="http://www.w3.org/2000/svg" xmlns:xlink="http://www.w3.org/1999/xlink" width="280.756" height="397.328" viewBox="0 0 280.756 397.328">
  <defs>
    <linearGradient id="linear-gradient" y1="0.5" x2="1" y2="0.5" gradientUnits="objectBoundingBox">
      <stop offset="0.004" stop-color="#e38ddd"/>
      <stop offset="1" stop-color="#9571f6"/>
    </linearGradient>
    <clipPath id="clip-path">
      <path id="Tracé_230" data-name="Tracé 230" d="M2059.635,1468.488c3.161,10.73,5.936,21.778,9.06,32.6,6.345.691,13.826,1.349,15.448-6.432,2.256-10.817,21.243-14.487,30.16-14.457,11.037.036,34.9-2.1,30.3-17.667-3.829-12.957-11.326-19.422,3.267-27.141s20.63-18.7,14.281-32.411c-6.681-14.431,7.807-33.335-5.694-42.806-23.524-16.5-42.667,24.391-41.709,47.1s-11.3,17.463-26,21.52c-20.069,5.54-3.629,24.379-11.194,33.034C2071.626,1468.611,2067.137,1467.218,2059.635,1468.488Z" transform="translate(-2059.635 -1356.353)" fill="none"/>
    </clipPath>
    <clipPath id="clip-path-2">
      <path id="Tracé_239" data-name="Tracé 239" d="M2200.271,721.854q-13.1-1.764-26.175-4.129c-.14.13-3.228-18.786,5.653-28.833,17.565-19.469,5.366-36.6,1.821-46.8-5.649-14.371-3.057-31.953,12.884-28.859,15.526,2.642,17.488-29.28,14.515-53.818-2.427-11.931,8.679-26.578,19.9-30.031,11.45-3.814,23.012,3.566,26.817,27.36,5.658,27.534-14.281,44.423-21.571,58.351-7.173,13.673,10.032,24.455-3.562,36.658-11.427,10.835-25.9,18.7-20.409,32.068C2215.779,697.037,2214.6,707.911,2200.271,721.854Z" transform="translate(-2173.464 -528.435)" fill="none"/>
    </clipPath>
    <linearGradient id="linear-gradient-2" x1="0.195" y1="0.024" x2="-0.557" y2="0.944" gradientUnits="objectBoundingBox">
      <stop offset="0" stop-color="#85b2ff"/>
      <stop offset="1" stop-color="#060051"/>
    </linearGradient>
    <linearGradient id="linear-gradient-3" x1="1.061" y1="1.542" x2="0.091" y2="2.169" gradientUnits="objectBoundingBox">
      <stop offset="0.004" stop-color="#26264f"/>
      <stop offset="1" stop-color="#444b8c"/>
    </linearGradient>
    <linearGradient id="linear-gradient-4" x1="0.019" y1="0.501" x2="1.126" y2="0.479" gradientUnits="objectBoundingBox">
      <stop offset="0" stop-color="#444b8c"/>
      <stop offset="0.996" stop-color="#26264f"/>
    </linearGradient>
    <linearGradient id="linear-gradient-5" x1="0.291" y1="2.149" x2="0.864" y2="1.654" xlink:href="#linear-gradient-4"/>
    <linearGradient id="linear-gradient-6" x1="0.541" y1="-1.092" x2="0.458" y2="2.151" xlink:href="#linear-gradient-4"/>
    <linearGradient id="linear-gradient-7" x1="0.252" y1="0.202" x2="0.8" y2="0.86" gradientUnits="objectBoundingBox">
      <stop offset="0" stop-color="#ff9085"/>
      <stop offset="1" stop-color="#fb6fbb"/>
    </linearGradient>
    <linearGradient id="linear-gradient-8" x1="0.31" y1="1.286" x2="0.72" y2="-0.437" gradientUnits="objectBoundingBox">
      <stop offset="0" stop-color="#1d55da"/>
      <stop offset="0.004" stop-color="#7a56f3"/>
      <stop offset="1" stop-color="#44a8ff"/>
    </linearGradient>
    <linearGradient id="linear-gradient-9" x1="-0.727" y1="2.202" x2="0.554" y2="0.404" gradientUnits="objectBoundingBox">
      <stop offset="0" stop-color="#5666f3"/>
      <stop offset="0.004" stop-color="#565bf3"/>
      <stop offset="1" stop-color="#5044ff"/>
    </linearGradient>
    <linearGradient id="linear-gradient-10" y1="0.5" x2="1" y2="0.5" gradientUnits="objectBoundingBox">
      <stop offset="0" stop-color="#85e7ff"/>
      <stop offset="1" stop-color="#6f94fb"/>
    </linearGradient>
    <linearGradient id="linear-gradient-11" y1="0.5" x2="1" y2="0.5" gradientUnits="objectBoundingBox">
      <stop offset="0" stop-color="#a685ff"/>
      <stop offset="1" stop-color="#e36ffb"/>
    </linearGradient>
    <linearGradient id="linear-gradient-12" x1="0.522" y1="0.328" x2="0.37" y2="1.498" xlink:href="#linear-gradient-4"/>
    <linearGradient id="linear-gradient-13" x1="0.573" y1="0.296" x2="0.319" y2="1.564" xlink:href="#linear-gradient-4"/>
    <linearGradient id="linear-gradient-14" x1="0.894" y1="0.977" x2="-0.544" y2="-0.765" gradientUnits="objectBoundingBox">
      <stop offset="0" stop-color="#aa80f9"/>
      <stop offset="0.996" stop-color="#0009ff"/>
      <stop offset="1" stop-color="#6165d7"/>
    </linearGradient>
  </defs>
  <g id="Illustration" transform="translate(5 4)">
    <g id="Groupe_145" data-name="Groupe 145" transform="translate(-5 -4)">
      <path id="Tracé_223" data-name="Tracé 223" d="M422.9,407.811c-19.2,3.668-36.472,17.909-47.836,39.416s-15.871,48.452-12.39,74.566c10.9,81.779-88.656,249.347,46.508,274.015s204.6-42,207.833-102.689C620.1,635.275,632.489,367.774,422.9,407.811Z" transform="translate(-337.509 -403.746)" fill="#f4f7fa"/>
      <g id="Groupe_136" data-name="Groupe 136" transform="translate(167.089 11.944)">
        <g id="Groupe_131" data-name="Groupe 131" transform="translate(0 79.309)">
          <g id="Groupe_130" data-name="Groupe 130">
            <path id="Tracé_224" data-name="Tracé 224" d="M2114.728,1497.216a13.405,13.405,0,0,1-5.524-3.085c-4.272-5.755-12.972-16.009-12.318-23.558.112-1.289,5.915-2.329,6.757-3.492,3.539-1.561,4.864-1.883,7.5-5.02,7.782-9.262-8.881-27.514,11.248-33.214,14.744-4.175,26.952,1.2,26-21.536s18.187-63.594,41.713-47.1c13.5,9.464-.99,28.377,5.694,42.806,6.351,13.711.311,24.689-14.282,32.411s-7.089,14.174-3.266,27.143c4.591,15.579-19.236,17.661-30.319,17.683C2139.011,1480.269,2116.3,1486.336,2114.728,1497.216Z" transform="translate(-2093.286 -1356.383)" fill="url(#linear-gradient)"/>
            <g id="Groupe_129" data-name="Groupe 129">
              <g id="Groupe_128" data-name="Groupe 128" clip-path="url(#clip-path)">
                <g id="Groupe_127" data-name="Groupe 127" transform="translate(9.798 -3.244)">
                  <path id="Tracé_225" data-name="Tracé 225" d="M2162.068,1452.356l-.146-.32a132.362,132.362,0,0,0,58.822-52.739c13.41-22.3,21.015-48.862,21.993-76.814l.351.012c-.98,28.01-8.6,54.63-22.043,76.983A132.715,132.715,0,0,1,2162.068,1452.356Z" transform="translate(-2161.922 -1322.483)" fill="#fcfdfe"/>
                  <path id="Tracé_226" data-name="Tracé 226" d="M2486.212,2486.7c-13.72-4.924-36.876-5.685-51.616-1.7l-.092-.339c14.8-4,38.049-3.239,51.827,1.706Z" transform="translate(-2408.392 -2371.01)" fill="#fcfdfe"/>
                  <path id="Tracé_227" data-name="Tracé 227" d="M2260.241,2151.149l-.228-.267c6.036-5.154,9.235-13.162,9.507-23.8.2-7.8-1.15-16.81-4.011-26.774l.338-.1c2.871,10,4.225,19.043,4.025,26.88C2269.6,2137.833,2266.356,2145.927,2260.241,2151.149Z" transform="translate(-2250.617 -2025.709)" fill="#fcfdfe"/>
                  <path id="Tracé_228" data-name="Tracé 228" d="M2795.455,1968.046l-.242-.255c10.88-10.3,26.451-12.709,37.6-12.914l.007.351C2821.732,1955.431,2806.253,1957.821,2795.455,1968.046Z" transform="translate(-2734.548 -1894.297)" fill="#fcfdfe"/>
                  <path id="Tracé_229" data-name="Tracé 229" d="M2810.181,1389.079l-.349-.035c.723-7.208-.04-21.911-13.269-39.392l.28-.212C2810.144,1367.017,2810.909,1381.819,2810.181,1389.079Z" transform="translate(-2735.769 -1346.858)" fill="#fcfdfe"/>
                </g>
              </g>
            </g>
          </g>
        </g>
        <g id="Groupe_135" data-name="Groupe 135" transform="translate(10.904)">
          <g id="Groupe_134" data-name="Groupe 134">
            <g id="Groupe_133" data-name="Groupe 133" clip-path="url(#clip-path-2)">
              <path id="Tracé_231" data-name="Tracé 231" d="M2200.271,721.854q-13.1-1.764-26.175-4.129c-.14.13-3.228-18.786,5.653-28.833,17.565-19.469,5.366-36.6,1.821-46.8-5.594-14.361-2.934-30.018,11.746-30.428,16.279-.773,18.9-27.765,15.653-52.25-2.427-11.931,8.679-26.578,19.9-30.031,11.45-3.814,23.012,3.566,26.817,27.36,5.658,27.534-14.281,44.423-21.571,58.351-7.173,13.673,10.032,24.455-3.562,36.658-11.427,10.835-25.9,18.7-20.409,32.068C2215.779,697.037,2214.6,707.911,2200.271,721.854Z" transform="translate(-2173.464 -528.435)" fill="url(#linear-gradient-2)"/>
              <g id="Groupe_132" data-name="Groupe 132" transform="translate(4.161 -5.76)">
                <path id="Tracé_232" data-name="Tracé 232" d="M2328.4,668.755h-.351c0-.168,7.839-40.129,21.735-79.111,1.907-6.307,3.985-12.669,5.995-18.822,5.382-16.477,10.947-33.514,13.481-50.442,2.834-18.921,1.535-35.916-3.97-51.955l.332-.114c5.524,16.094,6.828,33.143,3.986,52.121-2.539,16.957-8.109,34.009-13.495,50.5-2.01,6.151-4.087,12.511-6,18.823C2336.87,626.926,2328.5,667.51,2328.4,668.755Z" transform="translate(-2317.405 -468.309)" fill="#fcfdfe"/>
                <path id="Tracé_233" data-name="Tracé 233" d="M2719.795,813.195l-.264-.232c9.588-10.917,21.128-26.406,27.328-34.728,4.987-6.693,5.019-6.686,5.224-6.657l-.05.348.025-.174.073.156c-.254.179-2.344,2.985-4.991,6.537C2740.937,786.77,2729.392,802.267,2719.795,813.195Z" transform="translate(-2671.381 -742.524)" fill="#fcfdfe"/>
                <path id="Tracé_234" data-name="Tracé 234" d="M2559.768,742.4c-2.162-12.353-7.358-20.432-11.336-25.034-4.4-5.085-8.41-7.272-8.817-7.316a.133.133,0,0,0,.083-.026l-.2-.289c.088-.06.192-.047.428.052,1.081.454,5.132,2.919,9.415,8.111a52.543,52.543,0,0,1,10.773,24.442Z" transform="translate(-2508.595 -686.57)" fill="#fcfdfe"/>
                <path id="Tracé_235" data-name="Tracé 235" d="M2257.854,1462.277l-.349-.038c1.231-11.531-1.6-23.884-8.423-36.716a107.153,107.153,0,0,0-13.41-19.449c-.387-.45-.523-.61-.567-.682l.3-.18c.032.052.252.309.531.633a107.5,107.5,0,0,1,13.454,19.513C2256.245,1438.254,2259.093,1450.675,2257.854,1462.277Z" transform="translate(-2233.361 -1315.464)" fill="#fcfdfe"/>
                <path id="Tracé_236" data-name="Tracé 236" d="M2509.214,1698.451l-.3-.181c10.253-17.023,32.277-18.458,32.46-18.4l.133.163-.118.174-.058-.164-.013.172h0C2541.026,1680.216,2519.314,1681.682,2509.214,1698.451Zm32.056-18.576.058.165Z" transform="translate(-2480.939 -1563.809)" fill="#fcfdfe"/>
                <path id="Tracé_237" data-name="Tracé 237" d="M2229.272,2242.815l-.351-.009c.123-5.016-1.773-13.54-11.505-25.665-.528-.657-.528-.657-.515-.756l.349.046-.175-.023.16-.068c.027.05.225.3.454.581C2227.488,2229.129,2229.4,2237.74,2229.272,2242.815Z" transform="translate(-2216.897 -2048.89)" fill="#fcfdfe"/>
                <path id="Tracé_238" data-name="Tracé 238" d="M2364.8,2214.154l-.339-.094c1.059-3.826,5.317-11.35,21.941-18.748.229-.1.377-.168.43-.2l.165.31c-.056.03-.211.1-.452.206C2370.05,2202.973,2365.84,2210.388,2364.8,2214.154Z" transform="translate(-2350.323 -2029.7)" fill="#fcfdfe"/>
              </g>
            </g>
          </g>
        </g>
      </g>
      <g id="Groupe_139" data-name="Groupe 139" transform="translate(37.459 24.649)">
        <g id="Groupe_137" data-name="Groupe 137">
          <path id="Tracé_240" data-name="Tracé 240" d="M902.457,941.115c0,5.8-3.321,10.764-7.416,11.061L737.065,963.607c-4.692.339-8.522-4.461-8.522-10.7V671.962c0-6.241,3.83-11.127,8.522-10.891l157.976,7.937c4.1.206,7.416,5.094,7.416,10.9Z" transform="translate(-728.543 -661.062)" fill="url(#linear-gradient-3)"/>
          <path id="Tracé_241" data-name="Tracé 241" d="M950.876,941.115c0,5.8-3.321,10.764-7.416,11.061L785.484,963.607c-4.692.339-8.522-4.461-8.522-10.7V671.962c0-6.241,3.83-11.127,8.522-10.891l157.976,7.937c4.1.206,7.416,5.094,7.416,10.9Z" transform="translate(-772.324 -661.062)" fill="url(#linear-gradient-4)"/>
          <path id="Tracé_242" data-name="Tracé 242" d="M818.451,711.18V993.625c0,3.359,2.038,5.938,4.548,5.761l124.942-8.836,33.034-2.336c2.194-.155,3.97-2.821,3.97-5.954V718.837c0-3.133-1.776-5.759-3.97-5.865l-34.227-1.658-123.75-6C820.489,705.2,818.451,707.821,818.451,711.18Z" transform="translate(-809.838 -701.075)" fill="url(#linear-gradient-5)"/>
          <path id="Tracé_243" data-name="Tracé 243" d="M1006.466,1001.233a2.113,2.113,0,0,1-1.668,2.253l-158.216,10.251a1.973,1.973,0,0,1-1.908-2.172V738.441a2.014,2.014,0,0,1,1.908-2.205l158.216,7.54a2.07,2.07,0,0,1,1.668,2.225Z" transform="translate(-833.549 -729.033)" fill="#d8dee8"/>
          <path id="Tracé_244" data-name="Tracé 244" d="M1551.693,3011.971l-32.127,1.767a2.794,2.794,0,0,1-3.112-2.66v-.118a3.18,3.18,0,0,1,3.112-3l32.127-1.689a2.734,2.734,0,0,1,3.021,2.627v.115A3.113,3.113,0,0,1,1551.693,3011.971Z" transform="translate(-1440.977 -2723.108)" fill="url(#linear-gradient-6)"/>
          <path id="Tracé_245" data-name="Tracé 245" d="M1703.857,724.23a1.509,1.509,0,0,1-1.644,1.443,1.657,1.657,0,0,1-1.647-1.571,1.51,1.51,0,0,1,1.647-1.444A1.657,1.657,0,0,1,1703.857,724.23Z" transform="translate(-1607.453 -716.757)" fill="url(#linear-gradient-7)"/>
        </g>
        <g id="Groupe_138" data-name="Groupe 138" transform="translate(4.638 0)" opacity="0.3" style="mix-blend-mode: screen;isolation: isolate">
          <path id="Tracé_246" data-name="Tracé 246" d="M909.062,922.73c-.644-17.119,14.709-27.159,13.234-51.309-.133-2.179-1.505-20.867-13.638-33.535-10.895-11.375-20.052-7.1-40.217-16.169-14.133-6.359-30.021-13.508-36.446-27.851-12.761-28.484,23.7-56.935,16.241-93.81-2.139-10.566-8.177-23.518-24.125-37.044l-38.627-1.941c-4.692-.236-8.522,4.65-8.522,10.891V952.906c0,6.241,3.83,11.042,8.522,10.7l143.938-10.415C914.091,942.205,909.4,931.649,909.062,922.73Z" transform="translate(-776.962 -661.063)" fill="#fff"/>
        </g>
      </g>
      <g id="Groupe_141" data-name="Groupe 141" transform="translate(61.857 38.495)">
        <g id="Groupe_140" data-name="Groupe 140" transform="translate(0 11.911)">
          <path id="Tracé_247" data-name="Tracé 247" d="M1073.837,953,931.678,965.476l.764-255.588,141.4,4.021Z" transform="translate(-931.678 -709.888)" fill="url(#linear-gradient-8)"/>
          <path id="Tracé_248" data-name="Tracé 248" d="M1095.527,849.087l-64.374-.668.057-17.894,64.345,1.192Z" transform="translate(-1021.624 -818.968)" fill="#fff"/>
          <path id="Tracé_249" data-name="Tracé 249" d="M1225.532,1286.486l-20.66.222.062-22.569,20.648,0Z" transform="translate(-1178.701 -1199.764)" fill="#fff"/>
          <path id="Tracé_250" data-name="Tracé 250" d="M1562.326,1273.944l-72.656.441.023-11.141,72.637-.063Z" transform="translate(-1436.218 -1199.547)" fill="#fff"/>
          <path id="Tracé_251" data-name="Tracé 251" d="M1224.259,1756.868l-20.684.676.062-22.618,20.672-.45Z" transform="translate(-1177.529 -1615.418)" fill="#fff"/>
          <path id="Tracé_252" data-name="Tracé 252" d="M1561.43,1727.094l-72.734,1.973.023-11.165,72.715-1.592Z" transform="translate(-1435.337 -1600.412)" fill="#fff"/>
          <path id="Tracé_253" data-name="Tracé 253" d="M1222.983,2228.236l-20.707,1.131.062-22.668,20.7-.9Z" transform="translate(-1176.354 -2031.889)" fill="#fff"/>
          <path id="Tracé_254" data-name="Tracé 254" d="M1560.531,2181.183l-72.813,3.511.023-11.188,72.793-3.129Z" transform="translate(-1434.454 -2001.969)" fill="#fff"/>
        </g>
        <path id="Tracé_255" data-name="Tracé 255" d="M1017.818,954.185l-85.321,7.49.724-255.588,52.7,1.5c-10.306,21.1-22.881,63.234,13.081,102.728C1035.555,850.452,1050.207,911.814,1017.818,954.185Z" transform="translate(-932.419 -694.54)" fill="#fff" opacity="0.3" style="mix-blend-mode: soft-light;isolation: isolate"/>
        <path id="Tracé_256" data-name="Tracé 256" d="M1125.928,589.564V828.655l-56.759,4.986-85.321,7.49.724-255.588,52.7,1.5Z" transform="translate(-978.85 -585.544)" fill="url(#linear-gradient-9)"/>
        <path id="Tracé_257" data-name="Tracé 257" d="M1069.168,833.642l-85.321,7.49.724-255.587,52.7,1.5c-10.306,21.1-22.881,63.234,13.081,102.728C1086.905,729.909,1101.557,791.271,1069.168,833.642Z" transform="translate(-978.85 -585.544)" fill="#fff" opacity="0.5" style="mix-blend-mode: soft-light;isolation: isolate"/>
        <path id="Tracé_258" data-name="Tracé 258" d="M1148.5,724.739l-64.374-.668.057-17.894,64.345,1.192Z" transform="translate(-1069.521 -694.621)" opacity="0.6" fill="url(#linear-gradient-10)" style="mix-blend-mode: multiply;isolation: isolate"/>
        <path id="Tracé_259" data-name="Tracé 259" d="M1293.638,1177.683l-20.66.222.061-22.569,20.649,0Z" transform="translate(-1240.283 -1089.832)" fill="#6048fc" opacity="0.6" style="mix-blend-mode: multiply;isolation: isolate"/>
        <path id="Tracé_260" data-name="Tracé 260" d="M1630.432,1165.14l-72.656.442.023-11.141,72.636-.062Z" transform="translate(-1497.8 -1089.561)" fill="#fff" opacity="0.5"/>
        <path id="Tracé_261" data-name="Tracé 261" d="M1292.365,1648.064l-20.684.676.062-22.618,20.672-.45Z" transform="translate(-1239.111 -1506.05)" fill="#5d49fc" opacity="0.6" style="mix-blend-mode: multiply;isolation: isolate"/>
        <path id="Tracé_262" data-name="Tracé 262" d="M1629.536,1618.29l-72.734,1.973.023-11.164,72.715-1.592Z" transform="translate(-1496.919 -1490.921)" fill="#fff" opacity="0.5"/>
        <path id="Tracé_263" data-name="Tracé 263" d="M1291.089,2119.432l-20.707,1.131.062-22.667,20.7-.905Z" transform="translate(-1237.936 -1923.093)" opacity="0.6" fill="url(#linear-gradient-11)" style="mix-blend-mode: multiply;isolation: isolate"/>
        <path id="Tracé_264" data-name="Tracé 264" d="M1628.638,2072.38l-72.813,3.511.023-11.189,72.793-3.128Z" transform="translate(-1496.035 -1892.989)" fill="#fff" opacity="0.5"/>
      </g>
      <g id="Groupe_143" data-name="Groupe 143" transform="translate(10.553 240.167)">
        <path id="Tracé_269" data-name="Tracé 269" d="M525.518,2372.985c3.514,1.784,7.928.146,9.86-3.659s.649-8.335-2.865-10.12c-.182-.092-.368-.17-.554-.244a44.539,44.539,0,0,0,1.475-6.35c.2,0,.4,0,.609-.022a8.085,8.085,0,0,0,7.107-8.229,6.846,6.846,0,0,0-7.411-6.935c-.21.019-.415.052-.62.088a40.861,40.861,0,0,0-1.716-6.064c.184-.108.368-.219.547-.345a8.085,8.085,0,0,0,2.449-10.593,6.847,6.847,0,0,0-9.971-1.891c-.176.123-.341.256-.5.391a36.185,36.185,0,0,0-4.448-4.152c.113-.186.224-.373.324-.57,1.932-3.8,4.456-7.961.915-9.689-8.192-4-11.708-.576-13.64,3.229-.1.2-.186.4-.269.6a36.223,36.223,0,0,0-5.977-1.141c.013-.211.022-.424.018-.638-.084-4.187,1.158-6.453-2.866-6.531-8.775-.171-11.736,3.638-11.652,7.825,0,.219.023.433.044.646a40.885,40.885,0,0,0-5.908,2.192c-.091-.187-.186-.372-.295-.553a6.847,6.847,0,0,0-9.972-1.891,8.085,8.085,0,0,0-2.449,10.593c.106.177.223.342.341.5a44.531,44.531,0,0,0-4.256,4.938c-.17-.106-.343-.21-.525-.3-3.514-1.784-7.928-.146-9.86,3.659s-.649,8.335,2.865,10.119c.182.093.368.17.554.245a44.589,44.589,0,0,0-1.475,6.35c-.2,0-.4,0-.609.022a8.085,8.085,0,0,0-7.107,8.229,6.846,6.846,0,0,0,7.411,6.935c.209-.019.415-.051.62-.088a40.851,40.851,0,0,0,1.716,6.064c-.184.108-.368.219-.547.345a8.084,8.084,0,0,0-2.449,10.593c2.077,3.448,8.954,5.049,12.384,2.646.176-.123-2.071-1.011-1.908-1.146a36.189,36.189,0,0,0,4.448,4.152c-.113.185-.224.373-.324.57-1.932,3.8-.649,8.335,2.865,10.12s7.928.146,9.86-3.659c.1-.2.186-.4.269-.6a36.278,36.278,0,0,0,5.977,1.141c-.012.211-.022.423-.018.638a6.846,6.846,0,0,0,7.411,6.935,8.085,8.085,0,0,0,7.107-8.229c0-.219-.023-.433-.044-.646a40.817,40.817,0,0,0,5.908-2.192c.091.187.186.373.295.552a6.846,6.846,0,0,0,9.972,1.891,8.085,8.085,0,0,0,2.449-10.593c-.106-.177-.223-.341-.341-.5a44.545,44.545,0,0,0,4.256-4.938C525.164,2372.789,525.336,2372.893,525.518,2372.985Zm-43.8.556c-12.758-6.478-17.415-22.927-10.4-36.742s23.042-19.762,35.8-13.285,17.415,22.927,10.4,36.742S494.472,2380.019,481.714,2373.542Z" transform="translate(-447.676 -2300.114)" fill="url(#linear-gradient-12)"/>
        <path id="Tracé_270" data-name="Tracé 270" d="M887.079,2427.007a8.084,8.084,0,0,0,7.107-8.229,6.846,6.846,0,0,0-7.411-6.934c-.21.019-.415.052-.62.088a40.864,40.864,0,0,0-1.716-6.063c.184-.108.368-.219.547-.345,3.43-2.4,7.673-8.209,5.253-11.425-4.593-6.1-9.346-3.462-12.776-1.059-.176.123-.341.256-.5.391a36.2,36.2,0,0,0-4.448-4.152c.113-.185.224-.373.324-.57a7.983,7.983,0,0,0,.45-6.295q-4.969,8.747-9.791,17.573c10.178,7.458,13.418,22.156,7.056,34.686-5.391,10.618-16.108,16.581-26.572,15.833-.467,1.21-.925,2.428-1.425,3.627-1.356,3.253-2.9,6.439-4.44,9.622q1.456.275,2.922.429c-.012.212-.022.424-.018.638.084,4.187,2.626,7.745,9.892,7.359,4.019-.213,4.71-4.466,4.626-8.653,0-.219-.023-.433-.044-.646a40.766,40.766,0,0,0,5.908-2.192c.091.187.186.372.295.552,2.077,3.448,9.283,4.912,12.713,2.51s1.785-7.764-.292-11.212c-.106-.176-.223-.342-.341-.5a44.541,44.541,0,0,0,4.256-4.938c.17.107.342.211.525.3,3.514,1.784,7.928.146,9.86-3.659s.649-8.335-2.865-10.119c-.182-.092-.368-.17-.554-.244a44.549,44.549,0,0,0,1.475-6.35C886.671,2427.028,886.873,2427.025,887.079,2427.007Z" transform="translate(-800.712 -2374.529)" fill="url(#linear-gradient-13)"/>
        <path id="Tracé_271" data-name="Tracé 271" d="M564.971,2373.454c3.514,1.784,7.929.146,9.86-3.659s.649-8.335-2.865-10.12c-.182-.092-.368-.17-.554-.244a44.549,44.549,0,0,0,1.475-6.35c.2,0,.4,0,.609-.022a8.084,8.084,0,0,0,7.107-8.228,6.846,6.846,0,0,0-7.411-6.935c-.21.019-.416.052-.62.088a40.863,40.863,0,0,0-1.716-6.064c.184-.108.368-.219.547-.345a8.085,8.085,0,0,0,2.449-10.593,6.847,6.847,0,0,0-9.971-1.891c-.176.124-.341.257-.5.391a36.259,36.259,0,0,0-4.448-4.152c.113-.185.224-.373.324-.57,1.932-3.8.649-8.335-2.865-10.12s-7.928-.146-9.86,3.659c-.1.2-.186.4-.269.6a36.251,36.251,0,0,0-5.977-1.141c.012-.211.022-.423.018-.638a6.846,6.846,0,0,0-7.411-6.934,8.084,8.084,0,0,0-7.107,8.228c0,.219.023.433.044.646a40.913,40.913,0,0,0-5.908,2.192c-.091-.187-.186-.373-.295-.553a6.846,6.846,0,0,0-9.972-1.891A8.085,8.085,0,0,0,507.2,2319.4c.107.176.223.342.341.5a44.551,44.551,0,0,0-4.256,4.938c-.17-.106-.342-.211-.524-.3-3.514-1.784-7.928-.146-9.86,3.659s-.649,8.335,2.865,10.119c.182.092.368.17.554.244a44.536,44.536,0,0,0-1.475,6.35c-.2,0-.4,0-.609.022a8.085,8.085,0,0,0-7.107,8.229,6.847,6.847,0,0,0,7.411,6.935c.209-.019.415-.052.62-.088a40.856,40.856,0,0,0,1.716,6.064c-.184.108-.368.219-.547.345a8.084,8.084,0,0,0-2.449,10.593,6.846,6.846,0,0,0,9.971,1.891c.176-.123.341-.256.5-.391a36.171,36.171,0,0,0,4.448,4.152c-.113.186-.224.373-.324.57-1.932,3.8-.649,8.335,2.865,10.12s7.928.146,9.86-3.659c.1-.2.186-.4.269-.6a36.285,36.285,0,0,0,5.977,1.141c-.013.211-.022.423-.018.638a6.846,6.846,0,0,0,7.411,6.934,8.084,8.084,0,0,0,7.107-8.228c0-.219-.023-.433-.044-.646a40.824,40.824,0,0,0,5.908-2.193c.091.187.186.373.295.553a6.846,6.846,0,0,0,9.971,1.891,8.085,8.085,0,0,0,2.449-10.593c-.106-.177-.223-.342-.341-.5a44.582,44.582,0,0,0,4.256-4.938C564.616,2373.258,564.789,2373.362,564.971,2373.454Zm-43.8.556c-12.758-6.478-17.415-22.927-10.4-36.742s23.042-19.762,35.8-13.284,17.415,22.927,10.4,36.742S533.925,2380.488,521.167,2374.01Z" transform="translate(-483.35 -2300.152)" fill="url(#linear-gradient-14)"/>
      </g>
      <g id="Groupe_144" data-name="Groupe 144" transform="translate(0.901 147.923)">
        <path id="Tracé_272" data-name="Tracé 272" d="M395.705,1676.911a4.858,4.858,0,0,0,4.385-8.636c-.114-.058-.231-.107-.347-.153a27.91,27.91,0,0,0,.925-3.98c.126,0,.253,0,.382-.014a5.067,5.067,0,0,0,4.454-5.157,4.291,4.291,0,0,0-4.645-4.346c-.131.012-.26.032-.389.055a25.593,25.593,0,0,0-1.076-3.8c.116-.067.231-.137.343-.216a5.067,5.067,0,0,0,1.535-6.639,4.291,4.291,0,0,0-6.25-1.185c-.11.077-.214.161-.316.245a22.7,22.7,0,0,0-2.788-2.6c.071-.116.14-.234.2-.357,1.211-2.385,2.793-4.99.573-6.073-5.135-2.507-7.338-.361-8.549,2.024-.063.124-.117.249-.169.375a22.751,22.751,0,0,0-3.746-.715c.008-.132.014-.265.011-.4-.053-2.625.726-4.045-1.8-4.094-5.5-.107-7.356,2.281-7.3,4.9,0,.137.014.271.028.4a25.618,25.618,0,0,0-3.7,1.374c-.057-.117-.117-.233-.185-.346a4.291,4.291,0,0,0-6.25-1.186,5.067,5.067,0,0,0-1.535,6.64c.067.111.14.214.214.316a27.954,27.954,0,0,0-2.667,3.095c-.107-.067-.215-.132-.329-.19a4.858,4.858,0,0,0-4.385,8.636c.114.058.231.107.347.153a27.945,27.945,0,0,0-.925,3.98c-.126,0-.253,0-.382.014a5.068,5.068,0,0,0-4.454,5.157,4.291,4.291,0,0,0,4.645,4.346c.131-.012.26-.032.389-.055a25.623,25.623,0,0,0,1.076,3.8c-.116.067-.231.137-.343.216a5.067,5.067,0,0,0-1.535,6.639c1.3,2.161,5.612,3.165,7.762,1.658.11-.077-1.3-.634-1.2-.718a22.732,22.732,0,0,0,2.788,2.6c-.071.116-.14.234-.2.357a4.486,4.486,0,1,0,7.975,4.049c.063-.123.117-.249.169-.375a22.649,22.649,0,0,0,3.746.715c-.008.133-.014.265-.011.4a4.291,4.291,0,0,0,4.645,4.346,5.067,5.067,0,0,0,4.454-5.157c0-.137-.014-.271-.028-.4a25.608,25.608,0,0,0,3.7-1.374c.057.117.117.233.185.346a4.291,4.291,0,0,0,6.25,1.185,5.067,5.067,0,0,0,1.535-6.639c-.067-.111-.14-.214-.214-.316a27.938,27.938,0,0,0,2.667-3.1C395.483,1676.787,395.591,1676.853,395.705,1676.911Zm-27.455.348c-8-4.06-10.915-14.37-6.519-23.029s14.442-12.386,22.438-8.326,10.915,14.37,6.519,23.028S376.247,1681.319,368.25,1677.259Z" transform="translate(-346.916 -1631.237)" fill="url(#linear-gradient-12)"/>
        <path id="Tracé_273" data-name="Tracé 273" d="M622.32,1710.77a5.067,5.067,0,0,0,4.454-5.157,4.291,4.291,0,0,0-4.645-4.346c-.131.012-.26.032-.389.055a25.6,25.6,0,0,0-1.076-3.8c.116-.068.231-.138.343-.216,2.15-1.506,4.809-5.145,3.293-7.161-2.879-3.826-5.858-2.17-8.007-.664-.11.077-.214.161-.316.245a22.692,22.692,0,0,0-2.788-2.6c.071-.116.14-.234.2-.357a5,5,0,0,0,.282-3.945q-3.115,5.482-6.137,11.014c6.379,4.675,8.41,13.886,4.423,21.74a17.608,17.608,0,0,1-16.654,9.924c-.293.759-.58,1.521-.893,2.273-.85,2.039-1.816,4.036-2.783,6.031q.912.172,1.832.269c-.008.133-.014.265-.011.4.053,2.624,1.646,4.854,6.2,4.612,2.519-.134,2.952-2.8,2.9-5.424,0-.137-.014-.271-.028-.4a25.6,25.6,0,0,0,3.7-1.374c.057.117.117.233.185.346,1.3,2.161,5.818,3.079,7.968,1.573s1.119-4.866-.183-7.027c-.067-.111-.14-.214-.214-.316a27.9,27.9,0,0,0,2.667-3.095c.107.067.215.132.329.19a4.858,4.858,0,0,0,4.385-8.636c-.114-.058-.231-.106-.347-.153a27.918,27.918,0,0,0,.925-3.98C622.065,1710.783,622.191,1710.781,622.32,1710.77Z" transform="translate(-568.188 -1677.879)" fill="url(#linear-gradient-13)"/>
        <path id="Tracé_274" data-name="Tracé 274" d="M420.433,1677.2a4.858,4.858,0,0,0,4.385-8.636c-.114-.058-.231-.107-.347-.153a27.94,27.94,0,0,0,.925-3.98c.126,0,.253,0,.382-.014a5.067,5.067,0,0,0,4.454-5.157,4.291,4.291,0,0,0-4.645-4.346c-.131.012-.26.032-.389.055a25.6,25.6,0,0,0-1.076-3.8c.116-.068.231-.137.343-.216a5.067,5.067,0,0,0,1.535-6.639,4.291,4.291,0,0,0-6.25-1.186c-.11.077-.214.161-.316.245a22.694,22.694,0,0,0-2.788-2.6c.071-.116.14-.234.2-.357a4.486,4.486,0,1,0-7.975-4.049c-.063.124-.117.249-.169.375a22.723,22.723,0,0,0-3.746-.715c.008-.133.014-.265.011-.4a4.291,4.291,0,0,0-4.645-4.346,5.067,5.067,0,0,0-4.454,5.157c0,.137.014.271.028.4a25.626,25.626,0,0,0-3.7,1.374c-.057-.117-.117-.233-.185-.346a4.291,4.291,0,0,0-6.25-1.185,5.067,5.067,0,0,0-1.535,6.639c.067.111.14.214.214.317a27.933,27.933,0,0,0-2.667,3.095c-.107-.067-.215-.132-.329-.19a4.858,4.858,0,0,0-4.385,8.636c.114.058.231.107.347.153a27.929,27.929,0,0,0-.925,3.98c-.126,0-.253,0-.382.014a5.067,5.067,0,0,0-4.454,5.157,4.291,4.291,0,0,0,4.645,4.346c.131-.012.26-.032.389-.055a25.612,25.612,0,0,0,1.076,3.8c-.116.068-.231.138-.343.216a5.067,5.067,0,0,0-1.535,6.639,4.291,4.291,0,0,0,6.25,1.185c.11-.077.214-.161.316-.245a22.714,22.714,0,0,0,2.788,2.6c-.071.116-.14.234-.2.357a4.486,4.486,0,1,0,7.975,4.049c.063-.124.117-.249.169-.375a22.7,22.7,0,0,0,3.746.715c-.008.133-.014.265-.011.4a4.291,4.291,0,0,0,4.645,4.346,5.067,5.067,0,0,0,4.454-5.157c0-.137-.014-.271-.028-.4a25.62,25.62,0,0,0,3.7-1.374c.057.117.117.233.185.346a4.291,4.291,0,0,0,6.25,1.185,5.067,5.067,0,0,0,1.535-6.64c-.067-.111-.14-.214-.214-.316a27.964,27.964,0,0,0,2.668-3.1C420.211,1677.081,420.319,1677.146,420.433,1677.2Zm-27.455.348c-8-4.06-10.915-14.37-6.519-23.028s14.442-12.386,22.438-8.326,10.915,14.37,6.519,23.028S400.975,1681.613,392.978,1677.553Z" transform="translate(-369.276 -1631.261)" fill="url(#linear-gradient-14)"/>
      </g>
    </g>
  </g>
</svg>
