<svg xmlns="http://www.w3.org/2000/svg" width="499.209" height="603.266" viewBox="0 0 499.209 603.266">
  <g id="Vector_svg" transform="translate(-252.96 -51.042)">
    <g id="Floor" transform="translate(19.406 286.94)">
      <path id="Floor-2" data-name="Floor" d="M256.221,576.193c126.721,23.295,273.729,8.961,375.123-42.974,140.051-71.736,140.051-188.04,0-259.774-101.535-52.008-243.657-68.121-370.585-44.675C259.685,480.808,257.355,398.069,256.221,576.193Z" transform="translate(-18.886 -219.641)" fill="#f5f5f5"/>
    </g>
    <g id="Shadows" transform="translate(138.627 429.092)">
      <path id="Shadow" d="M377.345,368.292c7.683,4.436,22.784,2.908,33.729-3.41l63.083-36.637c10.943-6.318,13.574-15.044,5.873-19.489s-22.811-2.922-33.753,3.4L383.245,348.81C372.3,355.134,369.662,363.855,377.345,368.292Z" transform="translate(66.586 -304.865)" fill="#ebebeb"/>
      <path id="Shadow-2" data-name="Shadow" d="M288.066,424.734,184.649,364.987l103.442-59.629Z" transform="translate(-42.551 -305.358)" fill="#ebebeb"/>
    </g>
    <g id="Plants" transform="translate(22.084 308.347)">
      <g id="Plants-2" data-name="Plants" transform="translate(641.863)">
        <g id="Groupe_97" data-name="Groupe 97" transform="translate(0.482)">
          <path id="Tracé_153" data-name="Tracé 153" d="M439.193,319.35s2.106-31.641,20.753-55.13,17.5-33.161,4.642-37.9-42.72,23.566-36.075,61.475S439.193,319.35,439.193,319.35Z" transform="translate(-427.561 -225.798)" fill="#005be4"/>
          <path id="Tracé_154" data-name="Tracé 154" d="M439.193,319.35s2.106-31.641,20.753-55.13,17.5-33.161,4.642-37.9-42.72,23.566-36.075,61.475S439.193,319.35,439.193,319.35Z" transform="translate(-427.561 -225.798)" stroke="#707070" stroke-width="1" opacity="0.1"/>
          <g id="Groupe_96" data-name="Groupe 96" transform="translate(5.067 4.752)">
            <path id="Tracé_155" data-name="Tracé 155" d="M431.638,299.532a.733.733,0,0,1-.733-.689c-2.178-34.844,22.429-63.434,31.641-69.9a.734.734,0,0,1,.844,1.2c-9.031,6.345-33.157,34.391-31.019,68.61a.736.736,0,0,1-.687.78Z" transform="translate(-430.769 -228.807)" fill="#fff"/>
          </g>
        </g>
        <g id="Groupe_100" data-name="Groupe 100" transform="translate(0 50.914)">
          <g id="Groupe_99" data-name="Groupe 99">
            <path id="Tracé_156" data-name="Tracé 156" d="M434.3,326.8a166.926,166.926,0,0,0,25.676,6.179c14.439,2.287,20.811-4.619,20.811-4.619S475.1,314.816,466.9,311.016c0,0,13.9,2.834,25.06,10.28,0,0,8.817.133,12.327-13.324,0,0-5.225-8.1-22.753-12.473,0,0,10.664-2.684,26.03,1.235,1.153.458,6.064-16.941,7.551-24.969s-1.741-7.942-8-9.613-26.986-6.326-30.9-2.884-5.908,15.212-5.908,15.212a27.749,27.749,0,0,1-.588-14.916s-5.631-2.2-14.371.341c-7.148,2.079-7.5,6.944-7.173,12.441a53.736,53.736,0,0,0,3.094,13.957s-5.573-7.143-5.745-22.628c0,0-14.629,7.268-17.126,21.787C427.052,293.31,425.138,316.368,434.3,326.8Z" transform="translate(-427.256 -258.031)" fill="#27a2de"/>
            <g id="Groupe_98" data-name="Groupe 98" transform="translate(8.992 8.52)">
              <path id="Tracé_157" data-name="Tracé 157" d="M433.76,320.847a.81.81,0,0,0,.731-.46c11.653-24.207,54.973-52.337,70.491-55.354a.813.813,0,1,0-.311-1.6c-15.772,3.068-59.805,31.65-71.641,56.246a.808.808,0,0,0,.379,1.082A.8.8,0,0,0,433.76,320.847Z" transform="translate(-432.949 -263.424)" fill="#fff"/>
            </g>
          </g>
        </g>
      </g>
    </g>
    <g id="Computer_Screen" data-name="Computer Screen" transform="translate(106.552 50.042)">
      <g id="Groupe_105" data-name="Groupe 105">
        <g id="Groupe_103" data-name="Groupe 103">
          <g id="Tracé_158" data-name="Tracé 158" transform="translate(-74.385 -42.993)" fill="#fafafa" stroke-miterlimit="10">
            <path d="M 224.6117553710938 437.8593444824219 L 221.5069885253906 371.4199829101562 C 222.3298645019531 367.7717590332031 221.9737091064453 352.7774353027344 221.6591949462891 339.5360412597656 C 221.4442901611328 330.4871215820312 221.2412872314453 321.9400939941406 221.50048828125 319.5339965820312 L 221.5032958984375 319.5079345703125 L 221.5037384033203 319.4817810058594 C 221.7214813232422 307.2972106933594 223.1924133300781 173.5236968994141 223.2767333984375 165.8470764160156 L 401.0350036621094 63.21712112426758 L 401.0380859375 328.4393920898438 C 401.0380859375 330.4476928710938 400.3543395996094 332.73779296875 399.11279296875 334.8878784179688 C 397.8711547851562 337.0380249023438 396.2291870117188 338.775390625 394.4893493652344 339.7798767089844 L 224.6117553710938 437.8593444824219 Z" stroke="none"/>
            <path d="M 225.1512145996094 436.8724975585938 L 394.1968994140625 339.2733459472656 C 395.8492431640625 338.3193969726562 397.4151916503906 336.6580505371094 398.6062316894531 334.5953979492188 C 399.7972412109375 332.5328369140625 400.4531860351562 330.3465881347656 400.4531860351562 328.4393920898438 L 400.4501037597656 64.23020935058594 L 223.8579711914062 166.1868896484375 C 223.7418212890625 176.7564544677734 222.3036956787109 307.4535522460938 222.0885467529297 319.4922485351562 L 222.087646484375 319.5445861816406 L 222.0820465087891 319.5966491699219 C 221.8269348144531 321.9645385742188 222.0294952392578 330.4929809570312 222.2439422607422 339.5221252441406 C 222.5722198486328 353.3417663574219 222.9114074707031 367.6248474121094 222.0948791503906 371.4695434570312 L 225.1512145996094 436.8724975585938 M 224.0723419189453 438.84619140625 L 220.9189453125 371.3660888671875 C 222.3352966308594 365.5276794433594 220.2829437255859 325.3751220703125 220.9189453125 319.4713439941406 C 221.1445465087891 306.8472900390625 222.6955413818359 165.5072326660156 222.6955413818359 165.5072326660156 L 401.6199035644531 62.20403671264648 L 401.6229858398438 328.4393920898438 C 401.6229858398438 332.8006896972656 398.5601806640625 338.10498046875 394.7817993164062 340.2864379882812 L 224.0723419189453 438.84619140625 Z" stroke="none" fill="#e0e0e0"/>
          </g>
          <path id="Tracé_159" data-name="Tracé 159" d="M223.441,209.082,401.275,106.663l0-44.459L225.337,163.98h-1.9Z" transform="translate(-74.041 -42.993)" fill="#2775de"/>
          <path id="Tracé_162" data-name="Tracé 162" d="M223.834,149.672l170.946-98.7c3.778-2.18,6.84-.412,6.84,3.949V69.253L223.834,171.87s.169-13.952,0-16.295C223.724,154.47,223.834,155.577,223.834,149.672Z" transform="translate(-74.385 -49.042)" fill="#455a64"/>
          <g id="Groupe_101" data-name="Groupe 101" transform="translate(287.66 13.231)">
            <path id="Tracé_163" data-name="Tracé 163" d="M259.7,66.3a7.092,7.092,0,0,0-3.207,5.557c0,2.046,1.436,2.876,3.207,1.853a7.094,7.094,0,0,0,3.21-5.557C262.91,66.1,261.473,65.273,259.7,66.3Z" transform="translate(-256.494 -54.106)" fill="#27debf"/>
            <path id="Tracé_164" data-name="Tracé 164" d="M266.136,62.577a7.09,7.09,0,0,0-3.208,5.557c0,2.046,1.436,2.875,3.208,1.853a7.092,7.092,0,0,0,3.208-5.557C269.344,62.383,267.908,61.553,266.136,62.577Z" transform="translate(-252.765 -56.262)" fill="#27debf"/>
            <path id="Tracé_165" data-name="Tracé 165" d="M272.57,58.857a7.087,7.087,0,0,0-3.208,5.557c0,2.046,1.436,2.875,3.208,1.853a7.092,7.092,0,0,0,3.208-5.557C275.778,58.663,274.343,57.833,272.57,58.857Z" transform="translate(-249.036 -58.418)" fill="#27debf"/>
          </g>
          <g id="Groupe_102" data-name="Groupe 102" transform="translate(185.479 54.577)" opacity="0.1">
            <path id="Tracé_166" data-name="Tracé 166" d="M219.128,109.027a15.5,15.5,0,0,0-7.013,12.147c0,4.473,3.14,6.287,7.013,4.05a15.5,15.5,0,0,0,7.012-12.147C226.14,108.6,223,106.79,219.128,109.027Z" transform="translate(-180.035 -70.987)"/>
            <path id="Tracé_167" data-name="Tracé 167" d="M198.818,120.753a15.5,15.5,0,0,0-7.012,12.147c0,4.473,3.139,6.287,7.012,4.05a15.5,15.5,0,0,0,7.013-12.147C205.831,120.329,202.691,118.516,198.818,120.753Z" transform="translate(-191.806 -64.19)"/>
            <path id="Tracé_168" data-name="Tracé 168" d="M239.438,97.3a15.5,15.5,0,0,0-7.013,12.149c0,4.473,3.14,6.287,7.013,4.05a15.5,15.5,0,0,0,7.013-12.149C246.452,96.877,243.312,95.064,239.438,97.3Z" transform="translate(-168.263 -77.783)"/>
            <path id="Tracé_169" data-name="Tracé 169" d="M259.749,85.55A15.5,15.5,0,0,0,252.736,97.7c0,4.473,3.14,6.287,7.013,4.05A15.5,15.5,0,0,0,266.761,89.6C266.761,85.128,263.623,83.315,259.749,85.55Z" transform="translate(-156.491 -84.593)"/>
          </g>
        </g>
        <path id="Tracé_171" data-name="Tracé 171" d="M174.919,202.821,326.088,114.3c3.777-2.18,6.84-.412,6.84,3.949V191.36a15.122,15.122,0,0,1-6.84,11.847L173.105,290.449c-.967-4.409,0-34.566,0-38.928l.419-44.2C173.524,202.959,171.141,205,174.919,202.821Z" transform="translate(-24.941 -13.341)" fill="#e0e0e0"/>
      </g>
    </g>
    <g id="Envelope" transform="translate(256.741 294.002)">
      <g id="Groupe_108" data-name="Groupe 108" transform="translate(0 0)">
        <g id="Letter">
          <g id="Groupe_107" data-name="Groupe 107" transform="translate(0.004 0.001)">
            <g id="Groupe_106" data-name="Groupe 106">
              <path id="Tracé_175" data-name="Tracé 175" d="M131.253,269.6a6.438,6.438,0,0,1,2.913-5.046L283.2,178.512a6.438,6.438,0,0,1,5.826,0l3.283,1.9a6.438,6.438,0,0,1,2.913,5.046V299.688a6.464,6.464,0,0,1-2.913,5.046l-149.03,86.042a6.47,6.47,0,0,1-5.826,0l-3.283-1.9a6.466,6.466,0,0,1-2.913-5.046Z" transform="translate(-131.253 -177.815)" fill="#2770de"/>
            </g>
          </g>
          <path id="Tracé_176" data-name="Tracé 176" d="M132.011,266.731l8.268,4.768,153.991-88.916a6.024,6.024,0,0,0-2.053-2.178l-3.294-1.888a6.364,6.364,0,0,0-5.815,0l-149.03,86.037A5.929,5.929,0,0,0,132.011,266.731Z" transform="translate(-131.157 -177.814)" fill="#fff" opacity="0.4"/>
          <path id="Tracé_177" data-name="Tracé 177" d="M131.249,259.98V374.212a6.424,6.424,0,0,0,2.922,5.045l3.28,1.9a4.675,4.675,0,0,0,.8.358,6.291,6.291,0,0,0,1.2.276,7.134,7.134,0,0,0,2.3-.083c.193-.04.387-.1.565-.151a2.642,2.642,0,0,0,.345-.138,1.728,1.728,0,0,1-1.393-.027,2.018,2.018,0,0,1-.9-1.916V265.244a2.553,2.553,0,0,1,1.516-2.48l-1.516-.882-8.268-4.768A5.98,5.98,0,0,0,131.249,259.98Z" transform="translate(-131.249 -168.197)" opacity="0.1"/>
          <path id="Tracé_178" data-name="Tracé 178" d="M139.385,271.017,208.4,296.8a11.213,11.213,0,0,0,13.313-4.383L232.8,275.44l61.131-93.656-58.921,94.294,59.224,23.178a6.061,6.061,0,0,1-.909,2.907l-58.48-25.821-12.879,20.611a11.215,11.215,0,0,1-14.043,4.314l-9.171-4.048-58.468,93.309a2.018,2.018,0,0,1-.9-1.916v-1.9l59.078-89.617Z" transform="translate(-130.262 -177.333)" opacity="0.2"/>
        </g>
      </g>
      <g id="Plants-3" data-name="Plants" transform="translate(68.649 136.175)">
        <g id="Groupe_95" data-name="Groupe 95" transform="translate(6.445 45.964)">
          <g id="Groupe_93" data-name="Groupe 93">
            <path id="Tracé_151" data-name="Tracé 151" d="M81.782,352.238c-1.64-6.009-8.836-15.979-20.568-24.285-12.979-9.188-29.492-13.539-33.225-20.614-4.485-8.5,2.727-16.39,16.151-14.562s36.84,20.455,40.285,48.116Z" transform="translate(-26.659 -292.512)" fill="#27debf"/>
          </g>
          <g id="Groupe_94" data-name="Groupe 94" transform="translate(11.058 7.33)">
            <path id="Tracé_152" data-name="Tracé 152" d="M83.263,345.193a.782.782,0,0,1-.665-.522C71.82,313.381,48.182,302.161,37.189,300.6a.78.78,0,0,1-.662-.88.768.768,0,0,1,.88-.662c12.156,1.727,35.661,13.169,46.663,45.107a.781.781,0,0,1-.808,1.029Z" transform="translate(-36.52 -299.049)" fill="#fff"/>
          </g>
        </g>
        <g id="Groupe_92" data-name="Groupe 92">
          <g id="Groupe_90" data-name="Groupe 90">
            <path id="Tracé_148" data-name="Tracé 148" d="M87.571,319.409c.128-10.653-7.312-32.812-18.2-46.777s-28.149-24.289-40.545-20.214c-11.547,3.8-10.483,18.9,3.349,29.061s34.653,22.975,40.58,40.329l12.619,21.358Z" transform="translate(-20.911 -251.519)" fill="#27debf"/>
            <path id="Tracé_149" data-name="Tracé 149" d="M87.571,319.409c.128-10.653-7.312-32.812-18.2-46.777s-28.149-24.289-40.545-20.214c-11.547,3.8-10.483,18.9,3.349,29.061s34.653,22.975,40.58,40.329l12.619,21.358Z" transform="translate(-20.911 -251.519)" opacity="0.1"/>
          </g>
          <g id="Groupe_91" data-name="Groupe 91" transform="translate(12.789 7.228)">
            <path id="Tracé_150" data-name="Tracé 150" d="M86.8,333.215a.781.781,0,0,1-.694-.635c-6.7-36.452-35.76-66.365-53.29-73.107a.78.78,0,0,1-.447-1.006.77.77,0,0,1,1.007-.447c17.863,6.87,47.464,37.275,54.262,74.279a.779.779,0,0,1-.625.906A.759.759,0,0,1,86.8,333.215Z" transform="translate(-32.316 -257.965)" fill="#fff"/>
          </g>
        </g>
      </g>
    </g>
    <g id="Mobile_Screen" data-name="Mobile Screen" transform="translate(382.456 90.489)">
      <g id="Groupe_115" data-name="Groupe 115">
        <path id="Tracé_179" data-name="Tracé 179" d="M249.052,184.257V553.732c0,4.361,3.063,6.129,6.84,3.949l165.983-95.828a15.122,15.122,0,0,0,6.84-11.847V80.531c0-4.361-3.063-6.129-6.84-3.949L255.892,172.41A15.122,15.122,0,0,0,249.052,184.257Z" transform="translate(-249.052 -75.648)" fill="#fafafa" stroke="#e0e0e0" stroke-miterlimit="10" stroke-width="1.17"/>
        <path id="Tracé_180" data-name="Tracé 180" d="M255.142,153.922a3.751,3.751,0,0,1,1.777-2.88l18.908-10.912c.983-.567,1.779-.2,1.779.825a3.749,3.749,0,0,1-1.779,2.88l-18.908,10.912C255.938,155.314,255.142,154.944,255.142,153.922Z" transform="translate(-245.522 -38.428)" fill="#455a64"/>
        <path id="Tracé_181" data-name="Tracé 181" d="M255.142,158.58a3.751,3.751,0,0,1,1.777-2.88l18.908-10.912c.983-.567,1.779-.2,1.779.825a3.749,3.749,0,0,1-1.779,2.88L256.919,159.4C255.938,159.972,255.142,159.6,255.142,158.58Z" transform="translate(-245.522 -35.728)" fill="#455a64"/>
        <path id="Tracé_182" data-name="Tracé 182" d="M255.142,163.238a3.751,3.751,0,0,1,1.777-2.88l18.908-10.912c.983-.567,1.779-.2,1.779.825a3.749,3.749,0,0,1-1.779,2.88l-18.908,10.912C255.938,164.63,255.142,164.26,255.142,163.238Z" transform="translate(-245.522 -33.028)" fill="#455a64"/>
        <path id="Tracé_183" data-name="Tracé 183" d="M362,101.206V98.256a.19.19,0,0,0-.291-.188l-2.275,1.025a.271.271,0,0,1-.379-.175,4.978,4.978,0,0,0-.507-1.128.627.627,0,0,1-.033-.551l1.515-3.057a.341.341,0,0,0-.134-.444l-1.644-.951a.347.347,0,0,0-.453.106l-1.889,2.842a.623.623,0,0,1-.494.245,5.114,5.114,0,0,0-1.23.126.271.271,0,0,1-.341-.242l-.25-2.482a.19.19,0,0,0-.308-.158L350.729,94.7a.687.687,0,0,0-.3.477l-.256,2.843a.952.952,0,0,1-.265.531,15.29,15.29,0,0,0-1.42,1.5.489.489,0,0,1-.5.142l-1.64-.572a.4.4,0,0,0-.461.171L344,103.048a.4.4,0,0,0,.082.483l1.316,1.134a.487.487,0,0,1,.128.505,15.446,15.446,0,0,0-.591,1.981.956.956,0,0,1-.327.5l-2.335,1.643a.69.69,0,0,0-.261.5v2.951a.19.19,0,0,0,.291.188l2.275-1.025a.271.271,0,0,1,.379.175,4.978,4.978,0,0,0,.507,1.128.628.628,0,0,1,.033.551l-1.515,3.057a.343.343,0,0,0,.134.445l1.644.949a.347.347,0,0,0,.453-.106l1.889-2.842a.628.628,0,0,1,.494-.245,5.116,5.116,0,0,0,1.23-.126.271.271,0,0,1,.341.242l.25,2.482a.19.19,0,0,0,.308.158l2.554-1.475a.687.687,0,0,0,.3-.477l.256-2.843a.954.954,0,0,1,.267-.531,15.488,15.488,0,0,0,1.419-1.5.488.488,0,0,1,.5-.142l1.64.572a.4.4,0,0,0,.461-.171l1.878-3.252a.4.4,0,0,0-.082-.485l-1.316-1.134a.487.487,0,0,1-.128-.505,15.458,15.458,0,0,0,.591-1.981.956.956,0,0,1,.327-.5l2.335-1.643A.69.69,0,0,0,362,101.206Zm-9.991,9.279c-2.385,1.376-4.317.261-4.317-2.493a9.542,9.542,0,0,1,4.317-7.478c2.384-1.376,4.316-.261,4.316,2.493A9.544,9.544,0,0,1,352.007,110.485Z" transform="translate(-195.171 -65.739)" fill="#37474f"/>
        <g id="Groupe_109" data-name="Groupe 109" transform="translate(54.716 103.489)">
          <path id="Tracé_184" data-name="Tracé 184" d="M318.806,145.96c19.394-11.2,35.116-2.12,35.116,20.274s-15.722,49.625-35.116,60.823-35.114,2.12-35.114-20.274S299.413,157.157,318.806,145.96Z" transform="translate(-283.691 -141.164)" fill="#455a64"/>
          <path id="Tracé_185" data-name="Tracé 185" d="M309.945,155.929c6.292-3.633,11.394-.689,11.394,6.576s-5.1,16.1-11.394,19.734-11.392.687-11.392-6.579S303.654,159.561,309.945,155.929Z" transform="translate(-275.077 -133.508)" fill="#2784de"/>
          <path id="Tracé_186" data-name="Tracé 186" d="M336.086,184.786c0-11.937-8.381-16.775-18.717-10.806l-6.462,3.729c-10.335,5.968-18.717,20.483-18.717,32.418v3.256a19.2,19.2,0,0,0,6.034.932c4.713.009,10.023-1.543,15.655-4.8,8.426-4.864,16.155-12.758,22.206-21.964Z" transform="translate(-278.765 -123.626)" fill="#2784de"/>
        </g>
        <path id="Tracé_187" data-name="Tracé 187" d="M287.111,230.245l63.391-36.6c1.889-1.09,3.42-.316,3.42,1.731a7.331,7.331,0,0,1-3.42,5.679l-63.391,36.6c-1.889,1.09-3.42.316-3.42-1.731A7.334,7.334,0,0,1,287.111,230.245Z" transform="translate(-228.975 -7.543)" fill="#337bb9"/>
        <path id="Tracé_188" data-name="Tracé 188" d="M282.8,249.718l77-44.5c1.888-1.091,3.42-.316,3.42,1.73a7.335,7.335,0,0,1-3.42,5.679l-77,44.5c-1.889,1.09-3.42.316-3.42-1.73A7.331,7.331,0,0,1,282.8,249.718Z" transform="translate(-231.472 -0.837)" fill="#267da7"/>
        <path id="Tracé_189" data-name="Tracé 189" d="M332.346,232.439l21.562-12.449c1.133-.654,2.05-.355,2.05.668a4.107,4.107,0,0,1-2.05,3.038l-21.562,12.449c-1.133.654-2.052.355-2.052-.668A4.115,4.115,0,0,1,332.346,232.439Z" transform="translate(-201.964 7.812)" fill="#37474f"/>
        <g id="Groupe_110" data-name="Groupe 110" transform="translate(19.251 276.295)">
          <path id="Tracé_190" data-name="Tracé 190" d="M264.659,269.309l31.658-18.279c1.889-1.09,3.42-.207,3.42,1.974v21.738a7.557,7.557,0,0,1-3.42,5.923l-31.658,18.278c-1.888,1.091-3.42.207-3.42-1.974V275.232A7.561,7.561,0,0,1,264.659,269.309Z" transform="translate(-261.239 -250.562)" fill="#2770de"/>
          <path id="Tracé_191" data-name="Tracé 191" d="M267.354,269.048l21.56-12.449c1.133-.654,2.052-.355,2.052.668a4.115,4.115,0,0,1-2.052,3.038l-21.56,12.449c-1.134.654-2.052.354-2.052-.668A4.105,4.105,0,0,1,267.354,269.048Z" transform="translate(-258.884 -247.264)" fill="#fafafa"/>
          <path id="Tracé_192" data-name="Tracé 192" d="M265.3,277.269v6.374c0,1.308.918,1.839,2.052,1.185l21.56-12.449a4.538,4.538,0,0,0,2.052-3.554l0-6.375c0-1.308-.919-1.839-2.052-1.185l-21.562,12.45A4.531,4.531,0,0,0,265.3,277.269Z" transform="translate(-258.884 -244.522)" fill="#fafafa"/>
        </g>
        <g id="Groupe_111" data-name="Groupe 111" transform="translate(70.581 246.66)">
          <path id="Tracé_193" data-name="Tracé 193" d="M297.155,250.546l31.658-18.278c1.889-1.09,3.42-.207,3.42,1.974v21.738a7.561,7.561,0,0,1-3.42,5.924l-31.658,18.278c-1.889,1.09-3.42.207-3.42-1.974V256.469A7.561,7.561,0,0,1,297.155,250.546Z" transform="translate(-293.735 -231.801)" fill="#2770de"/>
          <path id="Tracé_194" data-name="Tracé 194" d="M299.85,250.287l21.56-12.449c1.133-.656,2.052-.355,2.052.667a4.11,4.11,0,0,1-2.052,3.038l-21.56,12.449c-1.134.654-2.052.355-2.052-.667A4.105,4.105,0,0,1,299.85,250.287Z" transform="translate(-291.38 -228.504)" fill="#fafafa"/>
          <path id="Tracé_195" data-name="Tracé 195" d="M297.8,258.508v6.374c0,1.308.918,1.839,2.052,1.185l21.56-12.449a4.538,4.538,0,0,0,2.052-3.554v-6.375c0-1.308-.918-1.839-2.052-1.185l-21.56,12.449A4.536,4.536,0,0,0,297.8,258.508Z" transform="translate(-291.38 -225.761)" fill="#fafafa"/>
        </g>
        <g id="Groupe_112" data-name="Groupe 112" transform="translate(121.912 217.022)">
          <path id="Tracé_196" data-name="Tracé 196" d="M329.651,231.784l31.66-18.279c1.888-1.09,3.42-.205,3.42,1.974v21.738a7.561,7.561,0,0,1-3.42,5.924l-31.658,18.278c-1.889,1.091-3.421.207-3.421-1.974V237.708A7.561,7.561,0,0,1,329.651,231.784Z" transform="translate(-326.231 -213.039)" fill="#2770de"/>
          <path id="Tracé_197" data-name="Tracé 197" d="M332.346,231.524l21.56-12.449c1.134-.654,2.052-.355,2.052.668a4.105,4.105,0,0,1-2.052,3.038l-21.56,12.449c-1.133.654-2.052.355-2.052-.668A4.115,4.115,0,0,1,332.346,231.524Z" transform="translate(-323.876 -209.741)" fill="#fafafa"/>
          <path id="Tracé_198" data-name="Tracé 198" d="M330.294,239.745v6.374c0,1.309.919,1.84,2.052,1.185l21.56-12.449a4.531,4.531,0,0,0,2.052-3.554l0-6.374c0-1.309-.919-1.839-2.052-1.185l-21.562,12.449A4.538,4.538,0,0,0,330.294,239.745Z" transform="translate(-323.876 -206.997)" fill="#fafafa"/>
        </g>
        <path id="Tracé_199" data-name="Tracé 199" d="M268.079,321.382l127.482-73.6c3.777-2.181,6.84-.632,6.84,3.459s-3.063,9.177-6.84,11.359L268.079,336.2c-3.777,2.181-6.84.632-6.84-3.459S264.3,323.562,268.079,321.382Z" transform="translate(-241.988 23.547)" fill="#e0e0e0"/>
        <path id="Tracé_200" data-name="Tracé 200" d="M268.079,340.143l127.482-73.6c3.777-2.181,6.84-.632,6.84,3.459s-3.063,9.178-6.84,11.357l-127.482,73.6c-3.777,2.181-6.84.632-6.84-3.459S264.3,342.324,268.079,340.143Z" transform="translate(-241.988 34.422)" fill="#e0e0e0"/>
        <path id="Tracé_201" data-name="Tracé 201" d="M293.094,330.657l44.49-25.687c1.889-1.09,3.42-.205,3.42,1.974l0,14.33a7.563,7.563,0,0,1-3.421,5.924l-44.49,25.686c-1.889,1.091-3.42.207-3.42-1.975V336.58A7.556,7.556,0,0,1,293.094,330.657Z" transform="translate(-225.508 56.996)" fill="#2770de"/>
        <g id="Groupe_113" data-name="Groupe 113" transform="translate(25.667 311.409)">
          <path id="Tracé_202" data-name="Tracé 202" d="M268.509,295.552a7.091,7.091,0,0,0-3.208,5.557c0,2.046,1.437,2.875,3.208,1.853a7.092,7.092,0,0,0,3.208-5.557C271.717,295.358,270.282,294.528,268.509,295.552Z" transform="translate(-265.301 -259.855)" fill="#fafafa"/>
          <path id="Tracé_203" data-name="Tracé 203" d="M274.943,291.831a7.1,7.1,0,0,0-3.207,5.559c0,2.046,1.436,2.875,3.207,1.853a7.092,7.092,0,0,0,3.208-5.559C278.151,291.638,276.715,290.809,274.943,291.831Z" transform="translate(-261.571 -262.011)" fill="#fafafa"/>
          <path id="Tracé_204" data-name="Tracé 204" d="M281.378,288.111a7.092,7.092,0,0,0-3.208,5.557c0,2.047,1.436,2.876,3.208,1.853a7.091,7.091,0,0,0,3.208-5.557C284.586,287.918,283.149,287.089,281.378,288.111Z" transform="translate(-257.842 -264.168)" fill="#fafafa"/>
          <path id="Tracé_205" data-name="Tracé 205" d="M287.812,284.391a7.092,7.092,0,0,0-3.208,5.557c0,2.047,1.436,2.876,3.208,1.853a7.087,7.087,0,0,0,3.208-5.557C291.02,284.2,289.585,283.369,287.812,284.391Z" transform="translate(-254.113 -266.324)" fill="#fafafa"/>
          <path id="Tracé_206" data-name="Tracé 206" d="M294.246,280.671a7.1,7.1,0,0,0-3.208,5.557c0,2.047,1.437,2.876,3.208,1.853a7.089,7.089,0,0,0,3.208-5.557C297.454,280.477,296.018,279.647,294.246,280.671Z" transform="translate(-250.384 -268.48)" fill="#fafafa"/>
          <path id="Tracé_207" data-name="Tracé 207" d="M300.681,276.951a7.089,7.089,0,0,0-3.208,5.557c0,2.046,1.436,2.876,3.208,1.853a7.094,7.094,0,0,0,3.207-5.557C303.888,276.757,302.452,275.927,300.681,276.951Z" transform="translate(-246.654 -270.636)" fill="#fafafa"/>
          <path id="Tracé_208" data-name="Tracé 208" d="M307.115,273.231a7.087,7.087,0,0,0-3.208,5.557c0,2.046,1.436,2.875,3.208,1.853a7.1,7.1,0,0,0,3.208-5.557C310.323,273.037,308.886,272.207,307.115,273.231Z" transform="translate(-242.925 -272.792)" fill="#fafafa"/>
        </g>
        <g id="Groupe_114" data-name="Groupe 114" transform="translate(25.667 341.077)">
          <path id="Tracé_209" data-name="Tracé 209" d="M268.509,314.334a7.094,7.094,0,0,0-3.208,5.557c0,2.046,1.437,2.876,3.208,1.853a7.092,7.092,0,0,0,3.208-5.557C271.717,314.14,270.282,313.31,268.509,314.334Z" transform="translate(-265.301 -278.637)" fill="#fafafa"/>
          <path id="Tracé_210" data-name="Tracé 210" d="M274.943,310.614a7.09,7.09,0,0,0-3.207,5.557c0,2.046,1.436,2.875,3.207,1.853a7.092,7.092,0,0,0,3.208-5.557C278.151,310.42,276.715,309.59,274.943,310.614Z" transform="translate(-261.571 -280.793)" fill="#fafafa"/>
          <path id="Tracé_211" data-name="Tracé 211" d="M281.378,306.894a7.087,7.087,0,0,0-3.208,5.557c0,2.046,1.436,2.875,3.208,1.853a7.1,7.1,0,0,0,3.208-5.559C284.586,306.7,283.149,305.87,281.378,306.894Z" transform="translate(-257.842 -282.949)" fill="#fafafa"/>
          <path id="Tracé_212" data-name="Tracé 212" d="M287.812,303.173a7.092,7.092,0,0,0-3.208,5.557c0,2.047,1.436,2.876,3.208,1.853a7.087,7.087,0,0,0,3.208-5.557C291.02,302.98,289.585,302.151,287.812,303.173Z" transform="translate(-254.113 -285.106)" fill="#fafafa"/>
          <path id="Tracé_213" data-name="Tracé 213" d="M294.246,299.453a7.1,7.1,0,0,0-3.208,5.557c0,2.047,1.437,2.876,3.208,1.853a7.087,7.087,0,0,0,3.208-5.557C297.454,299.26,296.018,298.431,294.246,299.453Z" transform="translate(-250.384 -287.262)" fill="#fafafa"/>
          <path id="Tracé_214" data-name="Tracé 214" d="M300.681,295.733a7.092,7.092,0,0,0-3.208,5.557c0,2.047,1.436,2.876,3.208,1.853a7.09,7.09,0,0,0,3.207-5.557C303.888,295.54,302.452,294.709,300.681,295.733Z" transform="translate(-246.654 -289.418)" fill="#fafafa"/>
          <path id="Tracé_215" data-name="Tracé 215" d="M307.115,292.013a7.089,7.089,0,0,0-3.208,5.557c0,2.047,1.436,2.876,3.208,1.853a7.094,7.094,0,0,0,3.208-5.557C310.323,291.819,308.886,290.989,307.115,292.013Z" transform="translate(-242.925 -291.574)" fill="#fafafa"/>
        </g>
      </g>
    </g>
    <g id="Key" transform="translate(581.402 177.35)">
      <g id="Groupe_118" data-name="Groupe 118" transform="translate(0 0)">
        <g id="Groupe_117" data-name="Groupe 117" transform="translate(0 179.602)">
          <g id="Groupe_116" data-name="Groupe 116">
            <path id="Tracé_216" data-name="Tracé 216" d="M408.466,381.279a30.758,30.758,0,0,1-15.556-4.113C381.527,370.593,375,356.838,375,339.428c0-30.617,19.459-65.836,44.3-80.177,13.376-7.721,26.659-8.56,37.408-2.355,11.383,6.573,17.911,20.328,17.911,37.738,0,30.617-19.459,65.836-44.3,80.177C422.866,379.114,415.44,381.279,408.466,381.279ZM441.1,274.84c-3.984,0-8.193,2-10.781,3.5-18.042,10.416-33.282,38.392-33.282,61.093,0,9.187,2.576,16.161,6.892,18.652,4.914,2.837,11.74-.259,15.371-2.354,18.041-10.416,33.282-38.392,33.282-61.093,0-9.187-2.578-16.161-6.893-18.654A9.052,9.052,0,0,0,441.1,274.84Z" transform="translate(-374.999 -252.782)" fill="#455a64"/>
          </g>
          <path id="Tracé_217" data-name="Tracé 217" d="M445.908,291.025c0-17.2-10.834-23.557-10.834-23.557h0c4.315,2.493,6.893,9.467,6.893,18.654,0,22.7-15.242,50.677-33.282,61.093-3.631,2.095-10.457,5.191-15.371,2.355,0,0,9.144,5.674,21.775-1.218C433.376,338.376,445.908,313.724,445.908,291.025Z" transform="translate(-364.384 -244.27)" fill="#37474f"/>
        </g>
        <path id="Tracé_218" data-name="Tracé 218" d="M423.97,150.475a11.394,11.394,0,0,0-22.789,0l0,.032h0V331.7h0c0,1.684,1.112,3.368,3.338,4.652a17.8,17.8,0,0,0,16.113,0c2.224-1.284,3.338-2.968,3.338-4.652h0V150.506h0Z" transform="translate(-359.824 -139.081)" fill="#37474f"/>
        <path id="Tracé_219" data-name="Tracé 219" d="M426.16,176.437a14.541,14.541,0,0,0-6.581-11.4c-1.848-1.068-3.511-1.142-4.707-.415l0-.009-28.115,16.2-.679.4a1.515,1.515,0,0,0-.275.163,8.908,8.908,0,0,0-1.346,1.1,9.313,9.313,0,0,0,10.983,14.806c.178-.1.357-.212.534-.308l28.292-16.3,0-.006C425.432,179.981,426.16,178.518,426.16,176.437Z" transform="matrix(0.985, 0.174, -0.174, 0.985, -338.431, -196.941)" fill="#455a64"/>
        <path id="Tracé_220" data-name="Tracé 220" d="M427.934,205.161a14.543,14.543,0,0,0-6.581-11.4c-1.848-1.066-3.511-1.142-4.707-.415l0-.009-32.951,18.924-.681.4a1.521,1.521,0,0,0-.275.163,8.822,8.822,0,0,0-1.344,1.1,9.312,9.312,0,0,0,10.981,14.806c.178-.1.357-.212.534-.308l33.129-19.02,0-.008C427.206,208.708,427.934,207.243,427.934,205.161Z" transform="translate(-344.125 -155.477) rotate(7)" fill="#455a64"/>
      </g>
    </g>
  </g>
</svg>
